solid zone0
 facet normal 0 0 -1
  outer loop
   vertex -0.00834742 -0.00614553 -0.15
   vertex -0.00890609 -0.00549299 -0.15
   vertex 0.0118784 -8.32721e-05 -0.15
  endloop
 endfacet
 facet normal -0 0 -1
  outer loop
   vertex 0.0118784 -8.32721e-05 -0.15
   vertex -0.00890609 -0.00549299 -0.15
   vertex 0.0119 2.31112e-33 -0.15
  endloop
 endfacet
 facet normal 0 0 -1
  outer loop
   vertex -0.0119 0 -0.15
   vertex -0.0118784 8.32721e-05 -0.15
   vertex -0.0118784 -8.32721e-05 -0.15
  endloop
 endfacet
 facet normal 0 0 -1
  outer loop
   vertex -0.0118784 8.32721e-05 -0.15
   vertex 0.0118784 8.32721e-05 -0.15
   vertex -0.0118784 -8.32721e-05 -0.15
  endloop
 endfacet
 facet normal -0 0 -1
  outer loop
   vertex 0.0119 2.31112e-33 -0.15
   vertex -0.00890609 -0.00549299 -0.15
   vertex 0.0118784 8.32721e-05 -0.15
  endloop
 endfacet
 facet normal 0 0 -1
  outer loop
   vertex -0.00890609 -0.00549299 -0.15
   vertex -0.00940378 -0.00486346 -0.15
   vertex 0.0118784 8.32721e-05 -0.15
  endloop
 endfacet
 facet normal 0 0 -1
  outer loop
   vertex 0.0118784 8.32721e-05 -0.15
   vertex -0.00940378 -0.00486346 -0.15
   vertex -0.00984261 -0.00426148 -0.15
  endloop
 endfacet
 facet normal 0 -0 -1
  outer loop
   vertex 0.00111564 0.011566 -0.15
   vertex 0.00144598 0.0114291 -0.15
   vertex -0.0118784 8.32721e-05 -0.15
  endloop
 endfacet
 facet normal 0 -0 -1
  outer loop
   vertex 0.00144598 0.0114291 -0.15
   vertex 0.00182806 0.0112538 -0.15
   vertex -0.0118784 8.32721e-05 -0.15
  endloop
 endfacet
 facet normal 0 0 -1
  outer loop
   vertex -0.0118784 8.32721e-05 -0.15
   vertex 0.00182806 0.0112538 -0.15
   vertex 0.00226904 0.0110313 -0.15
  endloop
 endfacet
 facet normal 0 0 -1
  outer loop
   vertex -0.00111564 -0.011566 -0.15
   vertex -0.00144598 -0.0114291 -0.15
   vertex 0.0118784 -8.32721e-05 -0.15
  endloop
 endfacet
 facet normal 0 0 -1
  outer loop
   vertex -0.00144598 -0.0114291 -0.15
   vertex -0.00182806 -0.0112538 -0.15
   vertex 0.0118784 -8.32721e-05 -0.15
  endloop
 endfacet
 facet normal 0 0 -1
  outer loop
   vertex 0.0118784 -8.32721e-05 -0.15
   vertex -0.00182806 -0.0112538 -0.15
   vertex -0.00226904 -0.0110313 -0.15
  endloop
 endfacet
 facet normal 0 -0 -1
  outer loop
   vertex -0.00335022 0.0104051 -0.15
   vertex -0.00277514 0.0107517 -0.15
   vertex -0.0118784 8.32721e-05 -0.15
  endloop
 endfacet
 facet normal 0 -0 -1
  outer loop
   vertex -0.00277514 0.0107517 -0.15
   vertex -0.00226904 0.0110313 -0.15
   vertex -0.0118784 8.32721e-05 -0.15
  endloop
 endfacet
 facet normal 0 0 -1
  outer loop
   vertex -0.0118784 8.32721e-05 -0.15
   vertex -0.00226904 0.0110313 -0.15
   vertex -0.00182806 0.0112538 -0.15
  endloop
 endfacet
 facet normal 0 -0 -1
  outer loop
   vertex -0.00182806 0.0112538 -0.15
   vertex -0.00144598 0.0114291 -0.15
   vertex -0.0118784 8.32721e-05 -0.15
  endloop
 endfacet
 facet normal 0 -0 -1
  outer loop
   vertex -0.00144598 0.0114291 -0.15
   vertex -0.00111564 0.011566 -0.15
   vertex -0.0118784 8.32721e-05 -0.15
  endloop
 endfacet
 facet normal 0 0 -1
  outer loop
   vertex -0.0118784 8.32721e-05 -0.15
   vertex -0.00111564 0.011566 -0.15
   vertex -0.000829966 0.0116722 -0.15
  endloop
 endfacet
 facet normal -0 0 -1
  outer loop
   vertex 0.00335022 -0.0104051 -0.15
   vertex 0.00277514 -0.0107517 -0.15
   vertex 0.0118784 -8.32721e-05 -0.15
  endloop
 endfacet
 facet normal -0 0 -1
  outer loop
   vertex 0.00277514 -0.0107517 -0.15
   vertex 0.00226904 -0.0110313 -0.15
   vertex 0.0118784 -8.32721e-05 -0.15
  endloop
 endfacet
 facet normal 0 0 -1
  outer loop
   vertex 0.0118784 -8.32721e-05 -0.15
   vertex 0.00226904 -0.0110313 -0.15
   vertex 0.00182806 -0.0112538 -0.15
  endloop
 endfacet
 facet normal -0 0 -1
  outer loop
   vertex 0.00182806 -0.0112538 -0.15
   vertex 0.00144598 -0.0114291 -0.15
   vertex 0.0118784 -8.32721e-05 -0.15
  endloop
 endfacet
 facet normal -0 0 -1
  outer loop
   vertex 0.00144598 -0.0114291 -0.15
   vertex 0.00111564 -0.011566 -0.15
   vertex 0.0118784 -8.32721e-05 -0.15
  endloop
 endfacet
 facet normal 0 0 -1
  outer loop
   vertex 0.0118784 -8.32721e-05 -0.15
   vertex 0.00111564 -0.011566 -0.15
   vertex 0.000829966 -0.0116722 -0.15
  endloop
 endfacet
 facet normal 0 0 -1
  outer loop
   vertex -0.00984261 -0.00426148 -0.15
   vertex -0.0102265 -0.00368916 -0.15
   vertex 0.0118784 8.32721e-05 -0.15
  endloop
 endfacet
 facet normal 0 0 -1
  outer loop
   vertex -0.0102265 -0.00368916 -0.15
   vertex -0.0105602 -0.00314693 -0.15
   vertex 0.0118784 8.32721e-05 -0.15
  endloop
 endfacet
 facet normal 0 0 -1
  outer loop
   vertex 0.0118784 8.32721e-05 -0.15
   vertex -0.0105602 -0.00314693 -0.15
   vertex -0.0108489 -0.00263413 -0.15
  endloop
 endfacet
 facet normal 0 -0 -1
  outer loop
   vertex 0.00226904 0.0110313 -0.15
   vertex 0.00277514 0.0107517 -0.15
   vertex -0.0118784 8.32721e-05 -0.15
  endloop
 endfacet
 facet normal 0 -0 -1
  outer loop
   vertex 0.00277514 0.0107517 -0.15
   vertex 0.00335022 0.0104051 -0.15
   vertex -0.0118784 8.32721e-05 -0.15
  endloop
 endfacet
 facet normal 0 0 -1
  outer loop
   vertex -0.0118784 8.32721e-05 -0.15
   vertex 0.00335022 0.0104051 -0.15
   vertex 0.00399372 0.00998308 -0.15
  endloop
 endfacet
 facet normal 0 0 -1
  outer loop
   vertex -0.00226904 -0.0110313 -0.15
   vertex -0.00277514 -0.0107517 -0.15
   vertex 0.0118784 -8.32721e-05 -0.15
  endloop
 endfacet
 facet normal 0 0 -1
  outer loop
   vertex -0.00277514 -0.0107517 -0.15
   vertex -0.00335022 -0.0104051 -0.15
   vertex 0.0118784 -8.32721e-05 -0.15
  endloop
 endfacet
 facet normal 0 0 -1
  outer loop
   vertex 0.0118784 -8.32721e-05 -0.15
   vertex -0.00335022 -0.0104051 -0.15
   vertex -0.00399372 -0.00998308 -0.15
  endloop
 endfacet
 facet normal 0 -0 -1
  outer loop
   vertex 0.000367083 0.0118161 -0.15
   vertex 0.000582393 0.0117539 -0.15
   vertex -0.0118784 8.32721e-05 -0.15
  endloop
 endfacet
 facet normal 0 -0 -1
  outer loop
   vertex 0.000582393 0.0117539 -0.15
   vertex 0.000829966 0.0116722 -0.15
   vertex -0.0118784 8.32721e-05 -0.15
  endloop
 endfacet
 facet normal 0 0 -1
  outer loop
   vertex -0.0118784 8.32721e-05 -0.15
   vertex 0.000829966 0.0116722 -0.15
   vertex 0.00111564 0.011566 -0.15
  endloop
 endfacet
 facet normal 0 -0 -1
  outer loop
   vertex 0.00834742 0.00614553 -0.15
   vertex 0.00890609 0.00549299 -0.15
   vertex -0.0118784 8.32721e-05 -0.15
  endloop
 endfacet
 facet normal 0 -0 -1
  outer loop
   vertex 0.00890609 0.00549299 -0.15
   vertex 0.00940378 0.00486346 -0.15
   vertex -0.0118784 8.32721e-05 -0.15
  endloop
 endfacet
 facet normal 0 0 -1
  outer loop
   vertex -0.0118784 8.32721e-05 -0.15
   vertex 0.00940378 0.00486346 -0.15
   vertex 0.00984261 0.00426148 -0.15
  endloop
 endfacet
 facet normal 0 0 -1
  outer loop
   vertex -0.000367083 -0.0118161 -0.15
   vertex -0.000582393 -0.0117539 -0.15
   vertex 0.0118784 -8.32721e-05 -0.15
  endloop
 endfacet
 facet normal 0 0 -1
  outer loop
   vertex -0.000582393 -0.0117539 -0.15
   vertex -0.000829966 -0.0116722 -0.15
   vertex 0.0118784 -8.32721e-05 -0.15
  endloop
 endfacet
 facet normal 0 0 -1
  outer loop
   vertex 0.0118784 -8.32721e-05 -0.15
   vertex -0.000829966 -0.0116722 -0.15
   vertex -0.00111564 -0.011566 -0.15
  endloop
 endfacet
 facet normal 0 0 -1
  outer loop
   vertex -0.0108489 -0.00263413 -0.15
   vertex -0.0110973 -0.00214938 -0.15
   vertex 0.0118784 8.32721e-05 -0.15
  endloop
 endfacet
 facet normal 0 0 -1
  outer loop
   vertex -0.0110973 -0.00214938 -0.15
   vertex -0.01131 -0.00169098 -0.15
   vertex 0.0118784 8.32721e-05 -0.15
  endloop
 endfacet
 facet normal 0 0 -1
  outer loop
   vertex 0.0118784 8.32721e-05 -0.15
   vertex -0.01131 -0.00169098 -0.15
   vertex -0.0114911 -0.001257 -0.15
  endloop
 endfacet
 facet normal 0 -0 -1
  outer loop
   vertex -0.0105602 0.00314693 -0.15
   vertex -0.0102265 0.00368916 -0.15
   vertex -0.0118784 8.32721e-05 -0.15
  endloop
 endfacet
 facet normal 0 -0 -1
  outer loop
   vertex -0.0102265 0.00368916 -0.15
   vertex -0.00984261 0.00426148 -0.15
   vertex -0.0118784 8.32721e-05 -0.15
  endloop
 endfacet
 facet normal 0 0 -1
  outer loop
   vertex -0.0118784 8.32721e-05 -0.15
   vertex -0.00984261 0.00426148 -0.15
   vertex -0.00940378 0.00486346 -0.15
  endloop
 endfacet
 facet normal -0 0 -1
  outer loop
   vertex 0.0105602 -0.00314693 -0.15
   vertex 0.0102265 -0.00368916 -0.15
   vertex 0.0118784 -8.32721e-05 -0.15
  endloop
 endfacet
 facet normal -0 0 -1
  outer loop
   vertex 0.0102265 -0.00368916 -0.15
   vertex 0.00984261 -0.00426148 -0.15
   vertex 0.0118784 -8.32721e-05 -0.15
  endloop
 endfacet
 facet normal 0 0 -1
  outer loop
   vertex 0.0118784 -8.32721e-05 -0.15
   vertex 0.00984261 -0.00426148 -0.15
   vertex 0.00940378 -0.00486346 -0.15
  endloop
 endfacet
 facet normal 0 0 -1
  outer loop
   vertex -0.0114911 -0.001257 -0.15
   vertex -0.0116442 -0.000845497 -0.15
   vertex 0.0118784 8.32721e-05 -0.15
  endloop
 endfacet
 facet normal 0 0 -1
  outer loop
   vertex -0.0116442 -0.000845497 -0.15
   vertex -0.0117725 -0.000454544 -0.15
   vertex 0.0118784 8.32721e-05 -0.15
  endloop
 endfacet
 facet normal 0 0 -1
  outer loop
   vertex 0.0118784 8.32721e-05 -0.15
   vertex -0.0117725 -0.000454544 -0.15
   vertex -0.0118784 -8.32721e-05 -0.15
  endloop
 endfacet
 facet normal 0 -0 -1
  outer loop
   vertex -0.00544963 0.00889938 -0.15
   vertex -0.00469855 0.00948075 -0.15
   vertex -0.0118784 8.32721e-05 -0.15
  endloop
 endfacet
 facet normal 0 -0 -1
  outer loop
   vertex -0.00469855 0.00948075 -0.15
   vertex -0.00399372 0.00998308 -0.15
   vertex -0.0118784 8.32721e-05 -0.15
  endloop
 endfacet
 facet normal 0 0 -1
  outer loop
   vertex -0.0118784 8.32721e-05 -0.15
   vertex -0.00399372 0.00998308 -0.15
   vertex -0.00335022 0.0104051 -0.15
  endloop
 endfacet
 facet normal 0 -0 -1
  outer loop
   vertex -0.000829966 0.0116722 -0.15
   vertex -0.000582393 0.0117539 -0.15
   vertex -0.0118784 8.32721e-05 -0.15
  endloop
 endfacet
 facet normal 0 -0 -1
  outer loop
   vertex -0.000582393 0.0117539 -0.15
   vertex -0.000367083 0.0118161 -0.15
   vertex -0.0118784 8.32721e-05 -0.15
  endloop
 endfacet
 facet normal 0 0 -1
  outer loop
   vertex -0.0118784 8.32721e-05 -0.15
   vertex -0.000367083 0.0118161 -0.15
   vertex -0.000179903 0.0118627 -0.15
  endloop
 endfacet
 facet normal 0 -0 -1
  outer loop
   vertex 0.00984261 0.00426148 -0.15
   vertex 0.0102265 0.00368916 -0.15
   vertex -0.0118784 8.32721e-05 -0.15
  endloop
 endfacet
 facet normal 0 -0 -1
  outer loop
   vertex 0.0102265 0.00368916 -0.15
   vertex 0.0105602 0.00314693 -0.15
   vertex -0.0118784 8.32721e-05 -0.15
  endloop
 endfacet
 facet normal 0 0 -1
  outer loop
   vertex -0.0118784 8.32721e-05 -0.15
   vertex 0.0105602 0.00314693 -0.15
   vertex 0.0108489 0.00263413 -0.15
  endloop
 endfacet
 facet normal -0 0 -1
  outer loop
   vertex 0.00544963 -0.00889938 -0.15
   vertex 0.00469855 -0.00948075 -0.15
   vertex 0.0118784 -8.32721e-05 -0.15
  endloop
 endfacet
 facet normal -0 0 -1
  outer loop
   vertex 0.00469855 -0.00948075 -0.15
   vertex 0.00399372 -0.00998308 -0.15
   vertex 0.0118784 -8.32721e-05 -0.15
  endloop
 endfacet
 facet normal 0 0 -1
  outer loop
   vertex 0.0118784 -8.32721e-05 -0.15
   vertex 0.00399372 -0.00998308 -0.15
   vertex 0.00335022 -0.0104051 -0.15
  endloop
 endfacet
 facet normal -0 0 -1
  outer loop
   vertex 0.000829966 -0.0116722 -0.15
   vertex 0.000582393 -0.0117539 -0.15
   vertex 0.0118784 -8.32721e-05 -0.15
  endloop
 endfacet
 facet normal -0 0 -1
  outer loop
   vertex 0.000582393 -0.0117539 -0.15
   vertex 0.000367083 -0.0118161 -0.15
   vertex 0.0118784 -8.32721e-05 -0.15
  endloop
 endfacet
 facet normal 0 0 -1
  outer loop
   vertex 0.0118784 -8.32721e-05 -0.15
   vertex 0.000367083 -0.0118161 -0.15
   vertex 0.000179903 -0.0118627 -0.15
  endloop
 endfacet
 facet normal 0 0 -1
  outer loop
   vertex -0.00399372 -0.00998308 -0.15
   vertex -0.00469855 -0.00948075 -0.15
   vertex 0.0118784 -8.32721e-05 -0.15
  endloop
 endfacet
 facet normal 0 0 -1
  outer loop
   vertex -0.00469855 -0.00948075 -0.15
   vertex -0.00544963 -0.00889938 -0.15
   vertex 0.0118784 -8.32721e-05 -0.15
  endloop
 endfacet
 facet normal 0 0 -1
  outer loop
   vertex 0.0118784 -8.32721e-05 -0.15
   vertex -0.00544963 -0.00889938 -0.15
   vertex -0.00622428 -0.00824801 -0.15
  endloop
 endfacet
 facet normal 0 0 -1
  outer loop
   vertex -0.00622428 -0.00824801 -0.15
   vertex -0.00698858 -0.00754955 -0.15
   vertex 0.0118784 -8.32721e-05 -0.15
  endloop
 endfacet
 facet normal 0 0 -1
  outer loop
   vertex -0.00698858 -0.00754955 -0.15
   vertex -0.00772884 -0.00681336 -0.15
   vertex 0.0118784 -8.32721e-05 -0.15
  endloop
 endfacet
 facet normal 0 0 -1
  outer loop
   vertex 0.0118784 -8.32721e-05 -0.15
   vertex -0.00772884 -0.00681336 -0.15
   vertex -0.00834742 -0.00614553 -0.15
  endloop
 endfacet
 facet normal 0 -0 -1
  outer loop
   vertex -0.00940378 0.00486346 -0.15
   vertex -0.00890609 0.00549299 -0.15
   vertex -0.0118784 8.32721e-05 -0.15
  endloop
 endfacet
 facet normal 0 -0 -1
  outer loop
   vertex -0.00890609 0.00549299 -0.15
   vertex -0.00834742 0.00614553 -0.15
   vertex -0.0118784 8.32721e-05 -0.15
  endloop
 endfacet
 facet normal 0 0 -1
  outer loop
   vertex -0.0118784 8.32721e-05 -0.15
   vertex -0.00834742 0.00614553 -0.15
   vertex -0.00772884 0.00681336 -0.15
  endloop
 endfacet
 facet normal 0 -0 -1
  outer loop
   vertex -0.000179903 0.0118627 -0.15
   vertex 0 0.0119 -0.15
   vertex -0.0118784 8.32721e-05 -0.15
  endloop
 endfacet
 facet normal 0 -0 -1
  outer loop
   vertex 0 0.0119 -0.15
   vertex 0.000179903 0.0118627 -0.15
   vertex -0.0118784 8.32721e-05 -0.15
  endloop
 endfacet
 facet normal 0 0 -1
  outer loop
   vertex -0.0118784 8.32721e-05 -0.15
   vertex 0.000179903 0.0118627 -0.15
   vertex 0.000367083 0.0118161 -0.15
  endloop
 endfacet
 facet normal 0 -0 -1
  outer loop
   vertex 0.00399372 0.00998308 -0.15
   vertex 0.00469855 0.00948075 -0.15
   vertex -0.0118784 8.32721e-05 -0.15
  endloop
 endfacet
 facet normal 0 -0 -1
  outer loop
   vertex 0.00469855 0.00948075 -0.15
   vertex 0.00544963 0.00889938 -0.15
   vertex -0.0118784 8.32721e-05 -0.15
  endloop
 endfacet
 facet normal 0 0 -1
  outer loop
   vertex -0.0118784 8.32721e-05 -0.15
   vertex 0.00544963 0.00889938 -0.15
   vertex 0.00622428 0.00824801 -0.15
  endloop
 endfacet
 facet normal -0 0 -1
  outer loop
   vertex 0.00940378 -0.00486346 -0.15
   vertex 0.00890609 -0.00549299 -0.15
   vertex 0.0118784 -8.32721e-05 -0.15
  endloop
 endfacet
 facet normal -0 0 -1
  outer loop
   vertex 0.00890609 -0.00549299 -0.15
   vertex 0.00834742 -0.00614553 -0.15
   vertex 0.0118784 -8.32721e-05 -0.15
  endloop
 endfacet
 facet normal 0 0 -1
  outer loop
   vertex 0.0118784 -8.32721e-05 -0.15
   vertex 0.00834742 -0.00614553 -0.15
   vertex 0.00772884 -0.00681336 -0.15
  endloop
 endfacet
 facet normal -0 0 -1
  outer loop
   vertex 0.000179903 -0.0118627 -0.15
   vertex -2.91466e-18 -0.0119 -0.15
   vertex 0.0118784 -8.32721e-05 -0.15
  endloop
 endfacet
 facet normal 0 0 -1
  outer loop
   vertex -2.91466e-18 -0.0119 -0.15
   vertex -0.000179903 -0.0118627 -0.15
   vertex 0.0118784 -8.32721e-05 -0.15
  endloop
 endfacet
 facet normal 0 0 -1
  outer loop
   vertex 0.0118784 -8.32721e-05 -0.15
   vertex -0.000179903 -0.0118627 -0.15
   vertex -0.000367083 -0.0118161 -0.15
  endloop
 endfacet
 facet normal 0 -0 -1
  outer loop
   vertex -0.0117725 0.000454544 -0.15
   vertex -0.0110973 0.00214938 -0.15
   vertex -0.0118784 8.32721e-05 -0.15
  endloop
 endfacet
 facet normal 0 -0 -1
  outer loop
   vertex -0.0110973 0.00214938 -0.15
   vertex -0.0108489 0.00263413 -0.15
   vertex -0.0118784 8.32721e-05 -0.15
  endloop
 endfacet
 facet normal 0 0 -1
  outer loop
   vertex -0.0118784 8.32721e-05 -0.15
   vertex -0.0108489 0.00263413 -0.15
   vertex -0.0105602 0.00314693 -0.15
  endloop
 endfacet
 facet normal 0 -0 -1
  outer loop
   vertex 0.00622428 0.00824801 -0.15
   vertex 0.00698858 0.00754955 -0.15
   vertex -0.0118784 8.32721e-05 -0.15
  endloop
 endfacet
 facet normal 0 -0 -1
  outer loop
   vertex 0.00698858 0.00754955 -0.15
   vertex 0.00772884 0.00681336 -0.15
   vertex -0.0118784 8.32721e-05 -0.15
  endloop
 endfacet
 facet normal 0 0 -1
  outer loop
   vertex -0.0118784 8.32721e-05 -0.15
   vertex 0.00772884 0.00681336 -0.15
   vertex 0.00834742 0.00614553 -0.15
  endloop
 endfacet
 facet normal -0 0 -1
  outer loop
   vertex 0.0117725 -0.000454544 -0.15
   vertex 0.0110973 -0.00214938 -0.15
   vertex 0.0118784 -8.32721e-05 -0.15
  endloop
 endfacet
 facet normal -0 0 -1
  outer loop
   vertex 0.0110973 -0.00214938 -0.15
   vertex 0.0108489 -0.00263413 -0.15
   vertex 0.0118784 -8.32721e-05 -0.15
  endloop
 endfacet
 facet normal 0 0 -1
  outer loop
   vertex 0.0118784 -8.32721e-05 -0.15
   vertex 0.0108489 -0.00263413 -0.15
   vertex 0.0105602 -0.00314693 -0.15
  endloop
 endfacet
 facet normal 0 -0 -1
  outer loop
   vertex -0.00772884 0.00681336 -0.15
   vertex -0.00698858 0.00754955 -0.15
   vertex -0.0118784 8.32721e-05 -0.15
  endloop
 endfacet
 facet normal 0 -0 -1
  outer loop
   vertex -0.00698858 0.00754955 -0.15
   vertex -0.00622428 0.00824801 -0.15
   vertex -0.0118784 8.32721e-05 -0.15
  endloop
 endfacet
 facet normal 0 0 -1
  outer loop
   vertex -0.0118784 8.32721e-05 -0.15
   vertex -0.00622428 0.00824801 -0.15
   vertex -0.00544963 0.00889938 -0.15
  endloop
 endfacet
 facet normal 0 -0 -1
  outer loop
   vertex 0.0108489 0.00263413 -0.15
   vertex 0.0110973 0.00214938 -0.15
   vertex -0.0118784 8.32721e-05 -0.15
  endloop
 endfacet
 facet normal 0 -0 -1
  outer loop
   vertex 0.0110973 0.00214938 -0.15
   vertex 0.01131 0.00169098 -0.15
   vertex -0.0118784 8.32721e-05 -0.15
  endloop
 endfacet
 facet normal 0 0 -1
  outer loop
   vertex -0.0118784 8.32721e-05 -0.15
   vertex 0.01131 0.00169098 -0.15
   vertex 0.0114911 0.001257 -0.15
  endloop
 endfacet
 facet normal -0 0 -1
  outer loop
   vertex 0.00772884 -0.00681336 -0.15
   vertex 0.00698858 -0.00754955 -0.15
   vertex 0.0118784 -8.32721e-05 -0.15
  endloop
 endfacet
 facet normal -0 0 -1
  outer loop
   vertex 0.00698858 -0.00754955 -0.15
   vertex 0.00622428 -0.00824801 -0.15
   vertex 0.0118784 -8.32721e-05 -0.15
  endloop
 endfacet
 facet normal 0 0 -1
  outer loop
   vertex 0.0118784 -8.32721e-05 -0.15
   vertex 0.00622428 -0.00824801 -0.15
   vertex 0.00544963 -0.00889938 -0.15
  endloop
 endfacet
 facet normal 0 -0 -1
  outer loop
   vertex -0.0116442 0.000845497 -0.15
   vertex -0.0114911 0.001257 -0.15
   vertex -0.0117725 0.000454544 -0.15
  endloop
 endfacet
 facet normal 0 -0 -1
  outer loop
   vertex -0.0114911 0.001257 -0.15
   vertex -0.01131 0.00169098 -0.15
   vertex -0.0117725 0.000454544 -0.15
  endloop
 endfacet
 facet normal 0 0 -1
  outer loop
   vertex -0.0117725 0.000454544 -0.15
   vertex -0.01131 0.00169098 -0.15
   vertex -0.0110973 0.00214938 -0.15
  endloop
 endfacet
 facet normal 0 -0 -1
  outer loop
   vertex 0.0114911 0.001257 -0.15
   vertex 0.0116442 0.000845497 -0.15
   vertex -0.0118784 8.32721e-05 -0.15
  endloop
 endfacet
 facet normal 0 -0 -1
  outer loop
   vertex 0.0116442 0.000845497 -0.15
   vertex 0.0117725 0.000454544 -0.15
   vertex -0.0118784 8.32721e-05 -0.15
  endloop
 endfacet
 facet normal 0 0 -1
  outer loop
   vertex -0.0118784 8.32721e-05 -0.15
   vertex 0.0117725 0.000454544 -0.15
   vertex 0.0118784 8.32721e-05 -0.15
  endloop
 endfacet
 facet normal -0 0 -1
  outer loop
   vertex 0.0116442 -0.000845497 -0.15
   vertex 0.0114911 -0.001257 -0.15
   vertex 0.0117725 -0.000454544 -0.15
  endloop
 endfacet
 facet normal -0 0 -1
  outer loop
   vertex 0.0114911 -0.001257 -0.15
   vertex 0.01131 -0.00169098 -0.15
   vertex 0.0117725 -0.000454544 -0.15
  endloop
 endfacet
 facet normal 0 0 -1
  outer loop
   vertex 0.0117725 -0.000454544 -0.15
   vertex 0.01131 -0.00169098 -0.15
   vertex 0.0110973 -0.00214938 -0.15
  endloop
 endfacet
 facet normal 0 0 1
  outer loop
   vertex 0.0118784 -8.32721e-05 0.15
   vertex 0.0119 2.31112e-33 0.15
   vertex 0.0118784 8.32721e-05 0.15
  endloop
 endfacet
 facet normal -0 0 1
  outer loop
   vertex -0.0102265 -0.00368916 0.15
   vertex -0.00984261 -0.00426148 0.15
   vertex 0.0118784 8.32721e-05 0.15
  endloop
 endfacet
 facet normal -0 0 1
  outer loop
   vertex -0.00335022 -0.0104051 0.15
   vertex -0.00277514 -0.0107517 0.15
   vertex 0.0118784 -8.32721e-05 0.15
  endloop
 endfacet
 facet normal -0 0 1
  outer loop
   vertex -0.00277514 -0.0107517 0.15
   vertex -0.00226904 -0.0110313 0.15
   vertex 0.0118784 -8.32721e-05 0.15
  endloop
 endfacet
 facet normal 0 0 1
  outer loop
   vertex 0.0118784 -8.32721e-05 0.15
   vertex -0.00226904 -0.0110313 0.15
   vertex -0.00182806 -0.0112538 0.15
  endloop
 endfacet
 facet normal 0 0 1
  outer loop
   vertex 0.00111564 -0.011566 0.15
   vertex 0.00144598 -0.0114291 0.15
   vertex 0.0118784 -8.32721e-05 0.15
  endloop
 endfacet
 facet normal 0 0 1
  outer loop
   vertex 0.00144598 -0.0114291 0.15
   vertex 0.00182806 -0.0112538 0.15
   vertex 0.0118784 -8.32721e-05 0.15
  endloop
 endfacet
 facet normal 0 0 1
  outer loop
   vertex 0.0118784 -8.32721e-05 0.15
   vertex 0.00182806 -0.0112538 0.15
   vertex 0.00226904 -0.0110313 0.15
  endloop
 endfacet
 facet normal 0 0 1
  outer loop
   vertex 0.00335022 0.0104051 0.15
   vertex 0.00277514 0.0107517 0.15
   vertex -0.0118784 8.32721e-05 0.15
  endloop
 endfacet
 facet normal 0 0 1
  outer loop
   vertex 0.00277514 0.0107517 0.15
   vertex 0.00226904 0.0110313 0.15
   vertex -0.0118784 8.32721e-05 0.15
  endloop
 endfacet
 facet normal 0 0 1
  outer loop
   vertex -0.0118784 8.32721e-05 0.15
   vertex 0.00226904 0.0110313 0.15
   vertex 0.00182806 0.0112538 0.15
  endloop
 endfacet
 facet normal 0 0 1
  outer loop
   vertex -0.00111564 0.011566 0.15
   vertex -0.00144598 0.0114291 0.15
   vertex -0.0118784 8.32721e-05 0.15
  endloop
 endfacet
 facet normal 0 0 1
  outer loop
   vertex -0.00144598 0.0114291 0.15
   vertex -0.00182806 0.0112538 0.15
   vertex -0.0118784 8.32721e-05 0.15
  endloop
 endfacet
 facet normal 0 0 1
  outer loop
   vertex -0.0118784 8.32721e-05 0.15
   vertex -0.00182806 0.0112538 0.15
   vertex -0.00226904 0.0110313 0.15
  endloop
 endfacet
 facet normal 0 -0 1
  outer loop
   vertex -0.0102265 -0.00368916 0.15
   vertex 0.0118784 8.32721e-05 0.15
   vertex -0.0105602 -0.00314693 0.15
  endloop
 endfacet
 facet normal 0 0 1
  outer loop
   vertex 0.00182806 0.0112538 0.15
   vertex 0.00144598 0.0114291 0.15
   vertex -0.0118784 8.32721e-05 0.15
  endloop
 endfacet
 facet normal 0 0 1
  outer loop
   vertex 0.00144598 0.0114291 0.15
   vertex 0.00111564 0.011566 0.15
   vertex -0.0118784 8.32721e-05 0.15
  endloop
 endfacet
 facet normal 0 0 1
  outer loop
   vertex -0.0118784 8.32721e-05 0.15
   vertex 0.00111564 0.011566 0.15
   vertex 0.000829966 0.0116722 0.15
  endloop
 endfacet
 facet normal -0 0 1
  outer loop
   vertex -0.00182806 -0.0112538 0.15
   vertex -0.00144598 -0.0114291 0.15
   vertex 0.0118784 -8.32721e-05 0.15
  endloop
 endfacet
 facet normal -0 0 1
  outer loop
   vertex -0.00144598 -0.0114291 0.15
   vertex -0.00111564 -0.011566 0.15
   vertex 0.0118784 -8.32721e-05 0.15
  endloop
 endfacet
 facet normal 0 0 1
  outer loop
   vertex 0.0118784 -8.32721e-05 0.15
   vertex -0.00111564 -0.011566 0.15
   vertex -0.000829966 -0.0116722 0.15
  endloop
 endfacet
 facet normal 0 0 1
  outer loop
   vertex 0.000367083 -0.0118161 0.15
   vertex 0.000582393 -0.0117539 0.15
   vertex 0.0118784 -8.32721e-05 0.15
  endloop
 endfacet
 facet normal 0 0 1
  outer loop
   vertex 0.000582393 -0.0117539 0.15
   vertex 0.000829966 -0.0116722 0.15
   vertex 0.0118784 -8.32721e-05 0.15
  endloop
 endfacet
 facet normal 0 0 1
  outer loop
   vertex 0.0118784 -8.32721e-05 0.15
   vertex 0.000829966 -0.0116722 0.15
   vertex 0.00111564 -0.011566 0.15
  endloop
 endfacet
 facet normal 0 0 1
  outer loop
   vertex 0.00226904 -0.0110313 0.15
   vertex 0.00277514 -0.0107517 0.15
   vertex 0.0118784 -8.32721e-05 0.15
  endloop
 endfacet
 facet normal 0 0 1
  outer loop
   vertex 0.00277514 -0.0107517 0.15
   vertex 0.00335022 -0.0104051 0.15
   vertex 0.0118784 -8.32721e-05 0.15
  endloop
 endfacet
 facet normal 0 0 1
  outer loop
   vertex 0.0118784 -8.32721e-05 0.15
   vertex 0.00335022 -0.0104051 0.15
   vertex 0.00399372 -0.00998308 0.15
  endloop
 endfacet
 facet normal 0 0 1
  outer loop
   vertex 0.00984261 0.00426148 0.15
   vertex 0.00940378 0.00486346 0.15
   vertex -0.0118784 8.32721e-05 0.15
  endloop
 endfacet
 facet normal 0 0 1
  outer loop
   vertex -0.000367083 0.0118161 0.15
   vertex -0.000582393 0.0117539 0.15
   vertex -0.0118784 8.32721e-05 0.15
  endloop
 endfacet
 facet normal 0 0 1
  outer loop
   vertex -0.000582393 0.0117539 0.15
   vertex -0.000829966 0.0116722 0.15
   vertex -0.0118784 8.32721e-05 0.15
  endloop
 endfacet
 facet normal 0 0 1
  outer loop
   vertex -0.0118784 8.32721e-05 0.15
   vertex -0.000829966 0.0116722 0.15
   vertex -0.00111564 0.011566 0.15
  endloop
 endfacet
 facet normal 0 0 1
  outer loop
   vertex -0.00226904 0.0110313 0.15
   vertex -0.00277514 0.0107517 0.15
   vertex -0.0118784 8.32721e-05 0.15
  endloop
 endfacet
 facet normal 0 0 1
  outer loop
   vertex -0.00277514 0.0107517 0.15
   vertex -0.00335022 0.0104051 0.15
   vertex -0.0118784 8.32721e-05 0.15
  endloop
 endfacet
 facet normal 0 0 1
  outer loop
   vertex -0.0118784 8.32721e-05 0.15
   vertex -0.00335022 0.0104051 0.15
   vertex -0.00399372 0.00998308 0.15
  endloop
 endfacet
 facet normal -0 0 1
  outer loop
   vertex -0.01131 -0.00169098 0.15
   vertex -0.0110973 -0.00214938 0.15
   vertex 0.0118784 8.32721e-05 0.15
  endloop
 endfacet
 facet normal -0 0 1
  outer loop
   vertex -0.0110973 -0.00214938 0.15
   vertex -0.0108489 -0.00263413 0.15
   vertex 0.0118784 8.32721e-05 0.15
  endloop
 endfacet
 facet normal 0 0 1
  outer loop
   vertex 0.0118784 8.32721e-05 0.15
   vertex -0.0108489 -0.00263413 0.15
   vertex -0.0105602 -0.00314693 0.15
  endloop
 endfacet
 facet normal -0 0 1
  outer loop
   vertex -0.00544963 -0.00889938 0.15
   vertex -0.00469855 -0.00948075 0.15
   vertex 0.0118784 -8.32721e-05 0.15
  endloop
 endfacet
 facet normal -0 0 1
  outer loop
   vertex -0.00469855 -0.00948075 0.15
   vertex -0.00399372 -0.00998308 0.15
   vertex 0.0118784 -8.32721e-05 0.15
  endloop
 endfacet
 facet normal 0 0 1
  outer loop
   vertex 0.0118784 -8.32721e-05 0.15
   vertex -0.00399372 -0.00998308 0.15
   vertex -0.00335022 -0.0104051 0.15
  endloop
 endfacet
 facet normal 0 0 1
  outer loop
   vertex 0.00890609 -0.00549299 0.15
   vertex 0.00940378 -0.00486346 0.15
   vertex 0.0118784 -8.32721e-05 0.15
  endloop
 endfacet
 facet normal 0 0 1
  outer loop
   vertex 0.00984261 0.00426148 0.15
   vertex -0.0118784 8.32721e-05 0.15
   vertex 0.0102265 0.00368916 0.15
  endloop
 endfacet
 facet normal 0 0 1
  outer loop
   vertex -0.00890609 0.00549299 0.15
   vertex -0.00940378 0.00486346 0.15
   vertex -0.0118784 8.32721e-05 0.15
  endloop
 endfacet
 facet normal -0 0 1
  outer loop
   vertex -0.0119 0 0.15
   vertex -0.0118784 -8.32721e-05 0.15
   vertex 0.0118784 8.32721e-05 0.15
  endloop
 endfacet
 facet normal -0 0 1
  outer loop
   vertex -0.0118784 -8.32721e-05 0.15
   vertex -0.0117725 -0.000454544 0.15
   vertex 0.0118784 8.32721e-05 0.15
  endloop
 endfacet
 facet normal 0 -0 1
  outer loop
   vertex 0.00890609 -0.00549299 0.15
   vertex 0.0118784 -8.32721e-05 0.15
   vertex 0.00834742 -0.00614553 0.15
  endloop
 endfacet
 facet normal -0 0 1
  outer loop
   vertex -0.00890609 0.00549299 0.15
   vertex -0.0118784 8.32721e-05 0.15
   vertex -0.00834742 0.00614553 0.15
  endloop
 endfacet
 facet normal -0 0 1
  outer loop
   vertex -0.00984261 -0.00426148 0.15
   vertex -0.00940378 -0.00486346 0.15
   vertex 0.0118784 8.32721e-05 0.15
  endloop
 endfacet
 facet normal -0 0 1
  outer loop
   vertex -0.00940378 -0.00486346 0.15
   vertex -0.00890609 -0.00549299 0.15
   vertex 0.0118784 8.32721e-05 0.15
  endloop
 endfacet
 facet normal 0 0 1
  outer loop
   vertex 0.0118784 8.32721e-05 0.15
   vertex -0.00890609 -0.00549299 0.15
   vertex 0.0118784 -8.32721e-05 0.15
  endloop
 endfacet
 facet normal -0 0 1
  outer loop
   vertex -0.00890609 -0.00549299 0.15
   vertex -0.00834742 -0.00614553 0.15
   vertex 0.0118784 -8.32721e-05 0.15
  endloop
 endfacet
 facet normal 0 0 1
  outer loop
   vertex 0.0118784 -8.32721e-05 0.15
   vertex -0.00834742 -0.00614553 0.15
   vertex -0.00772884 -0.00681336 0.15
  endloop
 endfacet
 facet normal 0 0 1
  outer loop
   vertex 0.00544963 0.00889938 0.15
   vertex 0.00469855 0.00948075 0.15
   vertex -0.0118784 8.32721e-05 0.15
  endloop
 endfacet
 facet normal 0 0 1
  outer loop
   vertex 0.00469855 0.00948075 0.15
   vertex 0.00399372 0.00998308 0.15
   vertex -0.0118784 8.32721e-05 0.15
  endloop
 endfacet
 facet normal 0 0 1
  outer loop
   vertex -0.0118784 8.32721e-05 0.15
   vertex 0.00399372 0.00998308 0.15
   vertex 0.00335022 0.0104051 0.15
  endloop
 endfacet
 facet normal -0 0 1
  outer loop
   vertex -0.000829966 -0.0116722 0.15
   vertex -0.000582393 -0.0117539 0.15
   vertex 0.0118784 -8.32721e-05 0.15
  endloop
 endfacet
 facet normal -0 0 1
  outer loop
   vertex -0.000582393 -0.0117539 0.15
   vertex -0.000367083 -0.0118161 0.15
   vertex 0.0118784 -8.32721e-05 0.15
  endloop
 endfacet
 facet normal 0 0 1
  outer loop
   vertex 0.0118784 -8.32721e-05 0.15
   vertex -0.000367083 -0.0118161 0.15
   vertex -0.000179903 -0.0118627 0.15
  endloop
 endfacet
 facet normal 0 0 1
  outer loop
   vertex 0.00940378 -0.00486346 0.15
   vertex 0.00984261 -0.00426148 0.15
   vertex 0.0118784 -8.32721e-05 0.15
  endloop
 endfacet
 facet normal 0 0 1
  outer loop
   vertex 0.00984261 -0.00426148 0.15
   vertex 0.0102265 -0.00368916 0.15
   vertex 0.0118784 -8.32721e-05 0.15
  endloop
 endfacet
 facet normal 0 0 1
  outer loop
   vertex 0.0118784 -8.32721e-05 0.15
   vertex 0.0102265 -0.00368916 0.15
   vertex 0.0105602 -0.00314693 0.15
  endloop
 endfacet
 facet normal 0 0 1
  outer loop
   vertex 0.0110973 0.00214938 0.15
   vertex 0.0108489 0.00263413 0.15
   vertex -0.0118784 8.32721e-05 0.15
  endloop
 endfacet
 facet normal 0 0 1
  outer loop
   vertex 0.0108489 0.00263413 0.15
   vertex 0.0105602 0.00314693 0.15
   vertex -0.0118784 8.32721e-05 0.15
  endloop
 endfacet
 facet normal 0 0 1
  outer loop
   vertex -0.0118784 8.32721e-05 0.15
   vertex 0.0105602 0.00314693 0.15
   vertex 0.0102265 0.00368916 0.15
  endloop
 endfacet
 facet normal 0 0 1
  outer loop
   vertex 0.000829966 0.0116722 0.15
   vertex 0.000582393 0.0117539 0.15
   vertex -0.0118784 8.32721e-05 0.15
  endloop
 endfacet
 facet normal 0 0 1
  outer loop
   vertex 0.000582393 0.0117539 0.15
   vertex 0.000367083 0.0118161 0.15
   vertex -0.0118784 8.32721e-05 0.15
  endloop
 endfacet
 facet normal 0 0 1
  outer loop
   vertex -0.0118784 8.32721e-05 0.15
   vertex 0.000367083 0.0118161 0.15
   vertex 0.000179903 0.0118627 0.15
  endloop
 endfacet
 facet normal 0 0 1
  outer loop
   vertex -0.00940378 0.00486346 0.15
   vertex -0.00984261 0.00426148 0.15
   vertex -0.0118784 8.32721e-05 0.15
  endloop
 endfacet
 facet normal 0 0 1
  outer loop
   vertex -0.00984261 0.00426148 0.15
   vertex -0.0102265 0.00368916 0.15
   vertex -0.0118784 8.32721e-05 0.15
  endloop
 endfacet
 facet normal 0 0 1
  outer loop
   vertex -0.0118784 8.32721e-05 0.15
   vertex -0.0102265 0.00368916 0.15
   vertex -0.0105602 0.00314693 0.15
  endloop
 endfacet
 facet normal -0 0 1
  outer loop
   vertex -0.0117725 -0.000454544 0.15
   vertex -0.0116442 -0.000845497 0.15
   vertex 0.0118784 8.32721e-05 0.15
  endloop
 endfacet
 facet normal -0 0 1
  outer loop
   vertex -0.0116442 -0.000845497 0.15
   vertex -0.0114911 -0.001257 0.15
   vertex 0.0118784 8.32721e-05 0.15
  endloop
 endfacet
 facet normal 0 0 1
  outer loop
   vertex 0.0118784 8.32721e-05 0.15
   vertex -0.0114911 -0.001257 0.15
   vertex -0.01131 -0.00169098 0.15
  endloop
 endfacet
 facet normal -0 0 1
  outer loop
   vertex -0.00772884 -0.00681336 0.15
   vertex -0.00698858 -0.00754955 0.15
   vertex 0.0118784 -8.32721e-05 0.15
  endloop
 endfacet
 facet normal -0 0 1
  outer loop
   vertex -0.00698858 -0.00754955 0.15
   vertex -0.00622428 -0.00824801 0.15
   vertex 0.0118784 -8.32721e-05 0.15
  endloop
 endfacet
 facet normal 0 0 1
  outer loop
   vertex 0.0118784 -8.32721e-05 0.15
   vertex -0.00622428 -0.00824801 0.15
   vertex -0.00544963 -0.00889938 0.15
  endloop
 endfacet
 facet normal 0 0 1
  outer loop
   vertex 0.00940378 0.00486346 0.15
   vertex 0.00890609 0.00549299 0.15
   vertex -0.0118784 8.32721e-05 0.15
  endloop
 endfacet
 facet normal 0 0 1
  outer loop
   vertex 0.00890609 0.00549299 0.15
   vertex 0.00834742 0.00614553 0.15
   vertex -0.0118784 8.32721e-05 0.15
  endloop
 endfacet
 facet normal 0 0 1
  outer loop
   vertex -0.0118784 8.32721e-05 0.15
   vertex 0.00834742 0.00614553 0.15
   vertex 0.00772884 0.00681336 0.15
  endloop
 endfacet
 facet normal -0 0 1
  outer loop
   vertex -0.000179903 -0.0118627 0.15
   vertex -2.91466e-18 -0.0119 0.15
   vertex 0.0118784 -8.32721e-05 0.15
  endloop
 endfacet
 facet normal 0 0 1
  outer loop
   vertex -2.91466e-18 -0.0119 0.15
   vertex 0.000179903 -0.0118627 0.15
   vertex 0.0118784 -8.32721e-05 0.15
  endloop
 endfacet
 facet normal 0 0 1
  outer loop
   vertex 0.0118784 -8.32721e-05 0.15
   vertex 0.000179903 -0.0118627 0.15
   vertex 0.000367083 -0.0118161 0.15
  endloop
 endfacet
 facet normal 0 0 1
  outer loop
   vertex 0.000179903 0.0118627 0.15
   vertex 0 0.0119 0.15
   vertex -0.0118784 8.32721e-05 0.15
  endloop
 endfacet
 facet normal 0 0 1
  outer loop
   vertex 0 0.0119 0.15
   vertex -0.000179903 0.0118627 0.15
   vertex -0.0118784 8.32721e-05 0.15
  endloop
 endfacet
 facet normal 0 0 1
  outer loop
   vertex -0.0118784 8.32721e-05 0.15
   vertex -0.000179903 0.0118627 0.15
   vertex -0.000367083 0.0118161 0.15
  endloop
 endfacet
 facet normal 0 0 1
  outer loop
   vertex 0.00399372 -0.00998308 0.15
   vertex 0.00469855 -0.00948075 0.15
   vertex 0.0118784 -8.32721e-05 0.15
  endloop
 endfacet
 facet normal 0 0 1
  outer loop
   vertex 0.00469855 -0.00948075 0.15
   vertex 0.00544963 -0.00889938 0.15
   vertex 0.0118784 -8.32721e-05 0.15
  endloop
 endfacet
 facet normal 0 0 1
  outer loop
   vertex 0.0118784 -8.32721e-05 0.15
   vertex 0.00544963 -0.00889938 0.15
   vertex 0.00622428 -0.00824801 0.15
  endloop
 endfacet
 facet normal 0 0 1
  outer loop
   vertex 0.0114911 -0.001257 0.15
   vertex 0.0116442 -0.000845497 0.15
   vertex 0.0117725 -0.000454544 0.15
  endloop
 endfacet
 facet normal 0 0 1
  outer loop
   vertex 0.00772884 0.00681336 0.15
   vertex 0.00698858 0.00754955 0.15
   vertex -0.0118784 8.32721e-05 0.15
  endloop
 endfacet
 facet normal 0 0 1
  outer loop
   vertex 0.00698858 0.00754955 0.15
   vertex 0.00622428 0.00824801 0.15
   vertex -0.0118784 8.32721e-05 0.15
  endloop
 endfacet
 facet normal 0 0 1
  outer loop
   vertex -0.0118784 8.32721e-05 0.15
   vertex 0.00622428 0.00824801 0.15
   vertex 0.00544963 0.00889938 0.15
  endloop
 endfacet
 facet normal 0 0 1
  outer loop
   vertex -0.00399372 0.00998308 0.15
   vertex -0.00469855 0.00948075 0.15
   vertex -0.0118784 8.32721e-05 0.15
  endloop
 endfacet
 facet normal 0 0 1
  outer loop
   vertex -0.00469855 0.00948075 0.15
   vertex -0.00544963 0.00889938 0.15
   vertex -0.0118784 8.32721e-05 0.15
  endloop
 endfacet
 facet normal 0 0 1
  outer loop
   vertex -0.0118784 8.32721e-05 0.15
   vertex -0.00544963 0.00889938 0.15
   vertex -0.00622428 0.00824801 0.15
  endloop
 endfacet
 facet normal 0 0 1
  outer loop
   vertex -0.0114911 0.001257 0.15
   vertex -0.0116442 0.000845497 0.15
   vertex -0.0117725 0.000454544 0.15
  endloop
 endfacet
 facet normal 0 0 1
  outer loop
   vertex 0.00622428 -0.00824801 0.15
   vertex 0.00698858 -0.00754955 0.15
   vertex 0.0118784 -8.32721e-05 0.15
  endloop
 endfacet
 facet normal 0 0 1
  outer loop
   vertex 0.00698858 -0.00754955 0.15
   vertex 0.00772884 -0.00681336 0.15
   vertex 0.0118784 -8.32721e-05 0.15
  endloop
 endfacet
 facet normal 0 0 1
  outer loop
   vertex 0.0118784 -8.32721e-05 0.15
   vertex 0.00772884 -0.00681336 0.15
   vertex 0.00834742 -0.00614553 0.15
  endloop
 endfacet
 facet normal 0 0 1
  outer loop
   vertex 0.0116442 0.000845497 0.15
   vertex 0.0114911 0.001257 0.15
   vertex -0.0118784 8.32721e-05 0.15
  endloop
 endfacet
 facet normal 0 0 1
  outer loop
   vertex 0.0114911 0.001257 0.15
   vertex 0.01131 0.00169098 0.15
   vertex -0.0118784 8.32721e-05 0.15
  endloop
 endfacet
 facet normal 0 0 1
  outer loop
   vertex -0.0118784 8.32721e-05 0.15
   vertex 0.01131 0.00169098 0.15
   vertex 0.0110973 0.00214938 0.15
  endloop
 endfacet
 facet normal 0 0 1
  outer loop
   vertex -0.00622428 0.00824801 0.15
   vertex -0.00698858 0.00754955 0.15
   vertex -0.0118784 8.32721e-05 0.15
  endloop
 endfacet
 facet normal 0 0 1
  outer loop
   vertex -0.00698858 0.00754955 0.15
   vertex -0.00772884 0.00681336 0.15
   vertex -0.0118784 8.32721e-05 0.15
  endloop
 endfacet
 facet normal 0 0 1
  outer loop
   vertex -0.0118784 8.32721e-05 0.15
   vertex -0.00772884 0.00681336 0.15
   vertex -0.00834742 0.00614553 0.15
  endloop
 endfacet
 facet normal 0 0 1
  outer loop
   vertex 0.0105602 -0.00314693 0.15
   vertex 0.0108489 -0.00263413 0.15
   vertex 0.0118784 -8.32721e-05 0.15
  endloop
 endfacet
 facet normal 0 0 1
  outer loop
   vertex 0.0108489 -0.00263413 0.15
   vertex 0.0110973 -0.00214938 0.15
   vertex 0.0118784 -8.32721e-05 0.15
  endloop
 endfacet
 facet normal 0 0 1
  outer loop
   vertex 0.0118784 -8.32721e-05 0.15
   vertex 0.0110973 -0.00214938 0.15
   vertex 0.0117725 -0.000454544 0.15
  endloop
 endfacet
 facet normal 0 0 1
  outer loop
   vertex 0.0110973 -0.00214938 0.15
   vertex 0.01131 -0.00169098 0.15
   vertex 0.0117725 -0.000454544 0.15
  endloop
 endfacet
 facet normal 0 0 1
  outer loop
   vertex 0.0117725 -0.000454544 0.15
   vertex 0.01131 -0.00169098 0.15
   vertex 0.0114911 -0.001257 0.15
  endloop
 endfacet
 facet normal 0 0 1
  outer loop
   vertex -0.0119 0 0.15
   vertex 0.0118784 8.32721e-05 0.15
   vertex -0.0118784 8.32721e-05 0.15
  endloop
 endfacet
 facet normal 0 0 1
  outer loop
   vertex 0.0118784 8.32721e-05 0.15
   vertex 0.0117725 0.000454544 0.15
   vertex -0.0118784 8.32721e-05 0.15
  endloop
 endfacet
 facet normal 0 0 1
  outer loop
   vertex -0.0118784 8.32721e-05 0.15
   vertex 0.0117725 0.000454544 0.15
   vertex 0.0116442 0.000845497 0.15
  endloop
 endfacet
 facet normal 0 0 1
  outer loop
   vertex -0.0105602 0.00314693 0.15
   vertex -0.0108489 0.00263413 0.15
   vertex -0.0118784 8.32721e-05 0.15
  endloop
 endfacet
 facet normal 0 0 1
  outer loop
   vertex -0.0108489 0.00263413 0.15
   vertex -0.0110973 0.00214938 0.15
   vertex -0.0118784 8.32721e-05 0.15
  endloop
 endfacet
 facet normal 0 0 1
  outer loop
   vertex -0.0118784 8.32721e-05 0.15
   vertex -0.0110973 0.00214938 0.15
   vertex -0.0117725 0.000454544 0.15
  endloop
 endfacet
 facet normal 0 0 1
  outer loop
   vertex -0.0110973 0.00214938 0.15
   vertex -0.01131 0.00169098 0.15
   vertex -0.0117725 0.000454544 0.15
  endloop
 endfacet
 facet normal 0 0 1
  outer loop
   vertex -0.0117725 0.000454544 0.15
   vertex -0.01131 0.00169098 0.15
   vertex -0.0114911 0.001257 0.15
  endloop
 endfacet
 facet normal -0.203191 0.979139 0
  outer loop
   vertex 0 0.0119 0.15
   vertex 0 0.0119 -0.15
   vertex -0.000179903 0.0118627 -0.15
  endloop
 endfacet
 facet normal -0.203191 0.979139 0
  outer loop
   vertex 0 0.0119 0.15
   vertex -0.000179903 0.0118627 -0.15
   vertex -0.000179903 0.0118627 0.15
  endloop
 endfacet
 facet normal -0.241474 0.970407 0
  outer loop
   vertex -0.000179903 0.0118627 -0.15
   vertex -0.000367083 0.0118161 -0.15
   vertex -0.000179903 0.0118627 0.15
  endloop
 endfacet
 facet normal -0.241474 0.970407 0
  outer loop
   vertex -0.000179903 0.0118627 0.15
   vertex -0.000367083 0.0118161 -0.15
   vertex -0.000367083 0.0118161 0.15
  endloop
 endfacet
 facet normal -0.277586 0.960701 0
  outer loop
   vertex -0.000367083 0.0118161 -0.15
   vertex -0.000582393 0.0117539 -0.15
   vertex -0.000367083 0.0118161 0.15
  endloop
 endfacet
 facet normal -0.277586 0.960701 0
  outer loop
   vertex -0.000367083 0.0118161 0.15
   vertex -0.000582393 0.0117539 -0.15
   vertex -0.000582393 0.0117539 0.15
  endloop
 endfacet
 facet normal -0.313252 0.94967 0
  outer loop
   vertex -0.000582393 0.0117539 -0.15
   vertex -0.000829966 0.0116722 -0.15
   vertex -0.000582393 0.0117539 0.15
  endloop
 endfacet
 facet normal -0.313252 0.94967 0
  outer loop
   vertex -0.000582393 0.0117539 0.15
   vertex -0.000829966 0.0116722 -0.15
   vertex -0.000829966 0.0116722 0.15
  endloop
 endfacet
 facet normal -0.348381 0.937353 0
  outer loop
   vertex -0.000829966 0.0116722 -0.15
   vertex -0.00111564 0.011566 -0.15
   vertex -0.000829966 0.0116722 0.15
  endloop
 endfacet
 facet normal -0.348381 0.937353 0
  outer loop
   vertex -0.000829966 0.0116722 0.15
   vertex -0.00111564 0.011566 -0.15
   vertex -0.00111564 0.011566 0.15
  endloop
 endfacet
 facet normal -0.382961 0.923765 0
  outer loop
   vertex -0.00111564 0.011566 -0.15
   vertex -0.00144598 0.0114291 -0.15
   vertex -0.00111564 0.011566 0.15
  endloop
 endfacet
 facet normal -0.382961 0.923765 0
  outer loop
   vertex -0.00111564 0.011566 0.15
   vertex -0.00144598 0.0114291 -0.15
   vertex -0.00144598 0.0114291 0.15
  endloop
 endfacet
 facet normal -0.416998 0.908908 0
  outer loop
   vertex -0.00144598 0.0114291 -0.15
   vertex -0.00182806 0.0112538 -0.15
   vertex -0.00144598 0.0114291 0.15
  endloop
 endfacet
 facet normal -0.416998 0.908908 0
  outer loop
   vertex -0.00144598 0.0114291 0.15
   vertex -0.00182806 0.0112538 -0.15
   vertex -0.00182806 0.0112538 0.15
  endloop
 endfacet
 facet normal -0.450515 0.892769 0
  outer loop
   vertex -0.00182806 0.0112538 -0.15
   vertex -0.00226904 0.0110313 -0.15
   vertex -0.00182806 0.0112538 0.15
  endloop
 endfacet
 facet normal -0.450515 0.892769 0
  outer loop
   vertex -0.00182806 0.0112538 0.15
   vertex -0.00226904 0.0110313 -0.15
   vertex -0.00226904 0.0110313 0.15
  endloop
 endfacet
 facet normal -0.483553 0.875315 0
  outer loop
   vertex -0.00226904 0.0110313 -0.15
   vertex -0.00277514 0.0107517 -0.15
   vertex -0.00226904 0.0110313 0.15
  endloop
 endfacet
 facet normal -0.483553 0.875315 0
  outer loop
   vertex -0.00226904 0.0110313 0.15
   vertex -0.00277514 0.0107517 -0.15
   vertex -0.00277514 0.0107517 0.15
  endloop
 endfacet
 facet normal -0.516163 0.856491 0
  outer loop
   vertex -0.00277514 0.0107517 -0.15
   vertex -0.00335022 0.0104051 -0.15
   vertex -0.00277514 0.0107517 0.15
  endloop
 endfacet
 facet normal -0.516163 0.856491 0
  outer loop
   vertex -0.00277514 0.0107517 0.15
   vertex -0.00335022 0.0104051 -0.15
   vertex -0.00335022 0.0104051 0.15
  endloop
 endfacet
 facet normal -0.548416 0.836205 0
  outer loop
   vertex -0.00335022 0.0104051 -0.15
   vertex -0.00399372 0.00998308 -0.15
   vertex -0.00335022 0.0104051 0.15
  endloop
 endfacet
 facet normal -0.548416 0.836205 0
  outer loop
   vertex -0.00335022 0.0104051 0.15
   vertex -0.00399372 0.00998308 -0.15
   vertex -0.00399372 0.00998308 0.15
  endloop
 endfacet
 facet normal -0.580381 0.814345 0
  outer loop
   vertex -0.00399372 0.00998308 -0.15
   vertex -0.00469855 0.00948075 -0.15
   vertex -0.00399372 0.00998308 0.15
  endloop
 endfacet
 facet normal -0.580381 0.814345 0
  outer loop
   vertex -0.00399372 0.00998308 0.15
   vertex -0.00469855 0.00948075 -0.15
   vertex -0.00469855 0.00948075 0.15
  endloop
 endfacet
 facet normal -0.612099 0.790781 0
  outer loop
   vertex -0.00469855 0.00948075 -0.15
   vertex -0.00544963 0.00889938 -0.15
   vertex -0.00469855 0.00948075 0.15
  endloop
 endfacet
 facet normal -0.612099 0.790781 0
  outer loop
   vertex -0.00469855 0.00948075 0.15
   vertex -0.00544963 0.00889938 -0.15
   vertex -0.00544963 0.00889938 0.15
  endloop
 endfacet
 facet normal -0.643574 0.765384 0
  outer loop
   vertex -0.00544963 0.00889938 -0.15
   vertex -0.00622428 0.00824801 -0.15
   vertex -0.00544963 0.00889938 0.15
  endloop
 endfacet
 facet normal -0.643574 0.765384 0
  outer loop
   vertex -0.00544963 0.00889938 0.15
   vertex -0.00622428 0.00824801 -0.15
   vertex -0.00622428 0.00824801 0.15
  endloop
 endfacet
 facet normal -0.674596 0.738187 0
  outer loop
   vertex -0.00622428 0.00824801 -0.15
   vertex -0.00698858 0.00754955 -0.15
   vertex -0.00622428 0.00824801 0.15
  endloop
 endfacet
 facet normal -0.674596 0.738187 0
  outer loop
   vertex -0.00622428 0.00824801 0.15
   vertex -0.00698858 0.00754955 -0.15
   vertex -0.00698858 0.00754955 0.15
  endloop
 endfacet
 facet normal -0.705157 0.709051 0
  outer loop
   vertex -0.00698858 0.00754955 -0.15
   vertex -0.00772884 0.00681336 -0.15
   vertex -0.00698858 0.00754955 0.15
  endloop
 endfacet
 facet normal -0.705157 0.709051 0
  outer loop
   vertex -0.00698858 0.00754955 0.15
   vertex -0.00772884 0.00681336 -0.15
   vertex -0.00772884 0.00681336 0.15
  endloop
 endfacet
 facet normal -0.733639 0.679539 0
  outer loop
   vertex -0.00772884 0.00681336 -0.15
   vertex -0.00834742 0.00614553 -0.15
   vertex -0.00772884 0.00681336 0.15
  endloop
 endfacet
 facet normal -0.733639 0.679539 0
  outer loop
   vertex -0.00772884 0.00681336 0.15
   vertex -0.00834742 0.00614553 -0.15
   vertex -0.00834742 0.00614553 0.15
  endloop
 endfacet
 facet normal -0.759633 0.650352 0
  outer loop
   vertex -0.00834742 0.00614553 -0.15
   vertex -0.00890609 0.00549299 -0.15
   vertex -0.00834742 0.00614553 0.15
  endloop
 endfacet
 facet normal -0.759633 0.650352 0
  outer loop
   vertex -0.00834742 0.00614553 0.15
   vertex -0.00890609 0.00549299 -0.15
   vertex -0.00890609 0.00549299 0.15
  endloop
 endfacet
 facet normal -0.78446 0.620179 0
  outer loop
   vertex -0.00890609 0.00549299 -0.15
   vertex -0.00940378 0.00486346 -0.15
   vertex -0.00890609 0.00549299 0.15
  endloop
 endfacet
 facet normal -0.78446 0.620179 0
  outer loop
   vertex -0.00890609 0.00549299 0.15
   vertex -0.00940378 0.00486346 -0.15
   vertex -0.00940378 0.00486346 0.15
  endloop
 endfacet
 facet normal -0.808085 0.589065 0
  outer loop
   vertex -0.00940378 0.00486346 -0.15
   vertex -0.00984261 0.00426148 -0.15
   vertex -0.00940378 0.00486346 0.15
  endloop
 endfacet
 facet normal -0.808085 0.589065 0
  outer loop
   vertex -0.00940378 0.00486346 0.15
   vertex -0.00984261 0.00426148 -0.15
   vertex -0.00984261 0.00426148 0.15
  endloop
 endfacet
 facet normal -0.830479 0.55705 0
  outer loop
   vertex -0.00984261 0.00426148 -0.15
   vertex -0.0102265 0.00368916 -0.15
   vertex -0.00984261 0.00426148 0.15
  endloop
 endfacet
 facet normal -0.830479 0.55705 0
  outer loop
   vertex -0.00984261 0.00426148 0.15
   vertex -0.0102265 0.00368916 -0.15
   vertex -0.0102265 0.00368916 0.15
  endloop
 endfacet
 facet normal -0.851608 0.524179 0
  outer loop
   vertex -0.0102265 0.00368916 -0.15
   vertex -0.0105602 0.00314693 -0.15
   vertex -0.0102265 0.00368916 0.15
  endloop
 endfacet
 facet normal -0.851608 0.524179 0
  outer loop
   vertex -0.0102265 0.00368916 0.15
   vertex -0.0105602 0.00314693 -0.15
   vertex -0.0105602 0.00314693 0.15
  endloop
 endfacet
 facet normal -0.87144 0.490501 0
  outer loop
   vertex -0.0105602 0.00314693 -0.15
   vertex -0.0108489 0.00263413 -0.15
   vertex -0.0105602 0.00314693 0.15
  endloop
 endfacet
 facet normal -0.87144 0.490501 0
  outer loop
   vertex -0.0105602 0.00314693 0.15
   vertex -0.0108489 0.00263413 -0.15
   vertex -0.0108489 0.00263413 0.15
  endloop
 endfacet
 facet normal -0.889949 0.45606 0
  outer loop
   vertex -0.0108489 0.00263413 -0.15
   vertex -0.0110973 0.00214938 -0.15
   vertex -0.0108489 0.00263413 0.15
  endloop
 endfacet
 facet normal -0.889949 0.45606 0
  outer loop
   vertex -0.0108489 0.00263413 0.15
   vertex -0.0110973 0.00214938 -0.15
   vertex -0.0110973 0.00214938 0.15
  endloop
 endfacet
 facet normal -0.9071 0.420915 0
  outer loop
   vertex -0.0110973 0.00214938 -0.15
   vertex -0.01131 0.00169098 -0.15
   vertex -0.0110973 0.00214938 0.15
  endloop
 endfacet
 facet normal -0.9071 0.420915 0
  outer loop
   vertex -0.0110973 0.00214938 0.15
   vertex -0.01131 0.00169098 -0.15
   vertex -0.01131 0.00169098 0.15
  endloop
 endfacet
 facet normal -0.92287 0.385112 0
  outer loop
   vertex -0.01131 0.00169098 -0.15
   vertex -0.0114911 0.001257 -0.15
   vertex -0.01131 0.00169098 0.15
  endloop
 endfacet
 facet normal -0.92287 0.385112 0
  outer loop
   vertex -0.01131 0.00169098 0.15
   vertex -0.0114911 0.001257 -0.15
   vertex -0.0114911 0.001257 0.15
  endloop
 endfacet
 facet normal -0.937232 0.348706 0
  outer loop
   vertex -0.0114911 0.001257 -0.15
   vertex -0.0116442 0.000845497 -0.15
   vertex -0.0114911 0.001257 0.15
  endloop
 endfacet
 facet normal -0.937232 0.348706 0
  outer loop
   vertex -0.0114911 0.001257 0.15
   vertex -0.0116442 0.000845497 -0.15
   vertex -0.0116442 0.000845497 0.15
  endloop
 endfacet
 facet normal -0.950163 0.311754 0
  outer loop
   vertex -0.0116442 0.000845497 -0.15
   vertex -0.0117725 0.000454544 -0.15
   vertex -0.0116442 0.000845497 0.15
  endloop
 endfacet
 facet normal -0.950163 0.311754 0
  outer loop
   vertex -0.0116442 0.000845497 0.15
   vertex -0.0117725 0.000454544 -0.15
   vertex -0.0117725 0.000454544 0.15
  endloop
 endfacet
 facet normal -0.961627 0.274361 0
  outer loop
   vertex -0.0117725 0.000454544 -0.15
   vertex -0.0118784 8.32721e-05 -0.15
   vertex -0.0117725 0.000454544 0.15
  endloop
 endfacet
 facet normal -0.961627 0.274361 0
  outer loop
   vertex -0.0117725 0.000454544 0.15
   vertex -0.0118784 8.32721e-05 -0.15
   vertex -0.0118784 8.32721e-05 0.15
  endloop
 endfacet
 facet normal -0.967988 0.250996 0
  outer loop
   vertex -0.0118784 8.32721e-05 -0.15
   vertex -0.0119 0 -0.15
   vertex -0.0118784 8.32721e-05 0.15
  endloop
 endfacet
 facet normal -0.967988 0.250996 0
  outer loop
   vertex -0.0118784 8.32721e-05 0.15
   vertex -0.0119 0 -0.15
   vertex -0.0119 0 0.15
  endloop
 endfacet
 facet normal 0.967988 0.250996 0
  outer loop
   vertex 0.0119 2.31112e-33 0.15
   vertex 0.0119 2.31112e-33 -0.15
   vertex 0.0118784 8.32721e-05 -0.15
  endloop
 endfacet
 facet normal 0.967988 0.250996 0
  outer loop
   vertex 0.0119 2.31112e-33 0.15
   vertex 0.0118784 8.32721e-05 -0.15
   vertex 0.0118784 8.32721e-05 0.15
  endloop
 endfacet
 facet normal 0.961627 0.274361 -0
  outer loop
   vertex 0.0118784 8.32721e-05 -0.15
   vertex 0.0117725 0.000454544 -0.15
   vertex 0.0118784 8.32721e-05 0.15
  endloop
 endfacet
 facet normal 0.961627 0.274361 0
  outer loop
   vertex 0.0118784 8.32721e-05 0.15
   vertex 0.0117725 0.000454544 -0.15
   vertex 0.0117725 0.000454544 0.15
  endloop
 endfacet
 facet normal 0.950163 0.311754 -0
  outer loop
   vertex 0.0117725 0.000454544 -0.15
   vertex 0.0116442 0.000845497 -0.15
   vertex 0.0117725 0.000454544 0.15
  endloop
 endfacet
 facet normal 0.950163 0.311754 0
  outer loop
   vertex 0.0117725 0.000454544 0.15
   vertex 0.0116442 0.000845497 -0.15
   vertex 0.0116442 0.000845497 0.15
  endloop
 endfacet
 facet normal 0.937232 0.348706 -0
  outer loop
   vertex 0.0116442 0.000845497 -0.15
   vertex 0.0114911 0.001257 -0.15
   vertex 0.0116442 0.000845497 0.15
  endloop
 endfacet
 facet normal 0.937232 0.348706 0
  outer loop
   vertex 0.0116442 0.000845497 0.15
   vertex 0.0114911 0.001257 -0.15
   vertex 0.0114911 0.001257 0.15
  endloop
 endfacet
 facet normal 0.92287 0.385112 -0
  outer loop
   vertex 0.0114911 0.001257 -0.15
   vertex 0.01131 0.00169098 -0.15
   vertex 0.0114911 0.001257 0.15
  endloop
 endfacet
 facet normal 0.92287 0.385112 0
  outer loop
   vertex 0.0114911 0.001257 0.15
   vertex 0.01131 0.00169098 -0.15
   vertex 0.01131 0.00169098 0.15
  endloop
 endfacet
 facet normal 0.9071 0.420915 -0
  outer loop
   vertex 0.01131 0.00169098 -0.15
   vertex 0.0110973 0.00214938 -0.15
   vertex 0.01131 0.00169098 0.15
  endloop
 endfacet
 facet normal 0.9071 0.420915 0
  outer loop
   vertex 0.01131 0.00169098 0.15
   vertex 0.0110973 0.00214938 -0.15
   vertex 0.0110973 0.00214938 0.15
  endloop
 endfacet
 facet normal 0.889949 0.45606 -0
  outer loop
   vertex 0.0110973 0.00214938 -0.15
   vertex 0.0108489 0.00263413 -0.15
   vertex 0.0110973 0.00214938 0.15
  endloop
 endfacet
 facet normal 0.889949 0.45606 0
  outer loop
   vertex 0.0110973 0.00214938 0.15
   vertex 0.0108489 0.00263413 -0.15
   vertex 0.0108489 0.00263413 0.15
  endloop
 endfacet
 facet normal 0.87144 0.490501 -0
  outer loop
   vertex 0.0108489 0.00263413 -0.15
   vertex 0.0105602 0.00314693 -0.15
   vertex 0.0108489 0.00263413 0.15
  endloop
 endfacet
 facet normal 0.87144 0.490501 0
  outer loop
   vertex 0.0108489 0.00263413 0.15
   vertex 0.0105602 0.00314693 -0.15
   vertex 0.0105602 0.00314693 0.15
  endloop
 endfacet
 facet normal 0.851608 0.524179 -0
  outer loop
   vertex 0.0105602 0.00314693 -0.15
   vertex 0.0102265 0.00368916 -0.15
   vertex 0.0105602 0.00314693 0.15
  endloop
 endfacet
 facet normal 0.851608 0.524179 0
  outer loop
   vertex 0.0105602 0.00314693 0.15
   vertex 0.0102265 0.00368916 -0.15
   vertex 0.0102265 0.00368916 0.15
  endloop
 endfacet
 facet normal 0.830479 0.55705 -0
  outer loop
   vertex 0.0102265 0.00368916 -0.15
   vertex 0.00984261 0.00426148 -0.15
   vertex 0.0102265 0.00368916 0.15
  endloop
 endfacet
 facet normal 0.830479 0.55705 0
  outer loop
   vertex 0.0102265 0.00368916 0.15
   vertex 0.00984261 0.00426148 -0.15
   vertex 0.00984261 0.00426148 0.15
  endloop
 endfacet
 facet normal 0.808085 0.589065 -0
  outer loop
   vertex 0.00984261 0.00426148 -0.15
   vertex 0.00940378 0.00486346 -0.15
   vertex 0.00984261 0.00426148 0.15
  endloop
 endfacet
 facet normal 0.808085 0.589065 0
  outer loop
   vertex 0.00984261 0.00426148 0.15
   vertex 0.00940378 0.00486346 -0.15
   vertex 0.00940378 0.00486346 0.15
  endloop
 endfacet
 facet normal 0.78446 0.620179 -0
  outer loop
   vertex 0.00940378 0.00486346 -0.15
   vertex 0.00890609 0.00549299 -0.15
   vertex 0.00940378 0.00486346 0.15
  endloop
 endfacet
 facet normal 0.78446 0.620179 0
  outer loop
   vertex 0.00940378 0.00486346 0.15
   vertex 0.00890609 0.00549299 -0.15
   vertex 0.00890609 0.00549299 0.15
  endloop
 endfacet
 facet normal 0.759633 0.650352 -0
  outer loop
   vertex 0.00890609 0.00549299 -0.15
   vertex 0.00834742 0.00614553 -0.15
   vertex 0.00890609 0.00549299 0.15
  endloop
 endfacet
 facet normal 0.759633 0.650352 0
  outer loop
   vertex 0.00890609 0.00549299 0.15
   vertex 0.00834742 0.00614553 -0.15
   vertex 0.00834742 0.00614553 0.15
  endloop
 endfacet
 facet normal 0.733639 0.679539 -0
  outer loop
   vertex 0.00834742 0.00614553 -0.15
   vertex 0.00772884 0.00681336 -0.15
   vertex 0.00834742 0.00614553 0.15
  endloop
 endfacet
 facet normal 0.733639 0.679539 0
  outer loop
   vertex 0.00834742 0.00614553 0.15
   vertex 0.00772884 0.00681336 -0.15
   vertex 0.00772884 0.00681336 0.15
  endloop
 endfacet
 facet normal 0.705157 0.709051 -0
  outer loop
   vertex 0.00772884 0.00681336 -0.15
   vertex 0.00698858 0.00754955 -0.15
   vertex 0.00772884 0.00681336 0.15
  endloop
 endfacet
 facet normal 0.705157 0.709051 0
  outer loop
   vertex 0.00772884 0.00681336 0.15
   vertex 0.00698858 0.00754955 -0.15
   vertex 0.00698858 0.00754955 0.15
  endloop
 endfacet
 facet normal 0.674596 0.738187 -0
  outer loop
   vertex 0.00698858 0.00754955 -0.15
   vertex 0.00622428 0.00824801 -0.15
   vertex 0.00698858 0.00754955 0.15
  endloop
 endfacet
 facet normal 0.674596 0.738187 0
  outer loop
   vertex 0.00698858 0.00754955 0.15
   vertex 0.00622428 0.00824801 -0.15
   vertex 0.00622428 0.00824801 0.15
  endloop
 endfacet
 facet normal 0.643574 0.765384 -0
  outer loop
   vertex 0.00622428 0.00824801 -0.15
   vertex 0.00544963 0.00889938 -0.15
   vertex 0.00622428 0.00824801 0.15
  endloop
 endfacet
 facet normal 0.643574 0.765384 0
  outer loop
   vertex 0.00622428 0.00824801 0.15
   vertex 0.00544963 0.00889938 -0.15
   vertex 0.00544963 0.00889938 0.15
  endloop
 endfacet
 facet normal 0.612099 0.790781 -0
  outer loop
   vertex 0.00544963 0.00889938 -0.15
   vertex 0.00469855 0.00948075 -0.15
   vertex 0.00544963 0.00889938 0.15
  endloop
 endfacet
 facet normal 0.612099 0.790781 0
  outer loop
   vertex 0.00544963 0.00889938 0.15
   vertex 0.00469855 0.00948075 -0.15
   vertex 0.00469855 0.00948075 0.15
  endloop
 endfacet
 facet normal 0.580381 0.814345 -0
  outer loop
   vertex 0.00469855 0.00948075 -0.15
   vertex 0.00399372 0.00998308 -0.15
   vertex 0.00469855 0.00948075 0.15
  endloop
 endfacet
 facet normal 0.580381 0.814345 0
  outer loop
   vertex 0.00469855 0.00948075 0.15
   vertex 0.00399372 0.00998308 -0.15
   vertex 0.00399372 0.00998308 0.15
  endloop
 endfacet
 facet normal 0.548416 0.836205 -0
  outer loop
   vertex 0.00399372 0.00998308 -0.15
   vertex 0.00335022 0.0104051 -0.15
   vertex 0.00399372 0.00998308 0.15
  endloop
 endfacet
 facet normal 0.548416 0.836205 0
  outer loop
   vertex 0.00399372 0.00998308 0.15
   vertex 0.00335022 0.0104051 -0.15
   vertex 0.00335022 0.0104051 0.15
  endloop
 endfacet
 facet normal 0.516163 0.856491 -0
  outer loop
   vertex 0.00335022 0.0104051 -0.15
   vertex 0.00277514 0.0107517 -0.15
   vertex 0.00335022 0.0104051 0.15
  endloop
 endfacet
 facet normal 0.516163 0.856491 0
  outer loop
   vertex 0.00335022 0.0104051 0.15
   vertex 0.00277514 0.0107517 -0.15
   vertex 0.00277514 0.0107517 0.15
  endloop
 endfacet
 facet normal 0.483553 0.875315 -0
  outer loop
   vertex 0.00277514 0.0107517 -0.15
   vertex 0.00226904 0.0110313 -0.15
   vertex 0.00277514 0.0107517 0.15
  endloop
 endfacet
 facet normal 0.483553 0.875315 0
  outer loop
   vertex 0.00277514 0.0107517 0.15
   vertex 0.00226904 0.0110313 -0.15
   vertex 0.00226904 0.0110313 0.15
  endloop
 endfacet
 facet normal 0.450515 0.892769 -0
  outer loop
   vertex 0.00226904 0.0110313 -0.15
   vertex 0.00182806 0.0112538 -0.15
   vertex 0.00226904 0.0110313 0.15
  endloop
 endfacet
 facet normal 0.450515 0.892769 0
  outer loop
   vertex 0.00226904 0.0110313 0.15
   vertex 0.00182806 0.0112538 -0.15
   vertex 0.00182806 0.0112538 0.15
  endloop
 endfacet
 facet normal 0.416998 0.908908 -0
  outer loop
   vertex 0.00182806 0.0112538 -0.15
   vertex 0.00144598 0.0114291 -0.15
   vertex 0.00182806 0.0112538 0.15
  endloop
 endfacet
 facet normal 0.416998 0.908908 0
  outer loop
   vertex 0.00182806 0.0112538 0.15
   vertex 0.00144598 0.0114291 -0.15
   vertex 0.00144598 0.0114291 0.15
  endloop
 endfacet
 facet normal 0.382961 0.923765 -0
  outer loop
   vertex 0.00144598 0.0114291 -0.15
   vertex 0.00111564 0.011566 -0.15
   vertex 0.00144598 0.0114291 0.15
  endloop
 endfacet
 facet normal 0.382961 0.923765 0
  outer loop
   vertex 0.00144598 0.0114291 0.15
   vertex 0.00111564 0.011566 -0.15
   vertex 0.00111564 0.011566 0.15
  endloop
 endfacet
 facet normal 0.348381 0.937353 -0
  outer loop
   vertex 0.00111564 0.011566 -0.15
   vertex 0.000829966 0.0116722 -0.15
   vertex 0.00111564 0.011566 0.15
  endloop
 endfacet
 facet normal 0.348381 0.937353 0
  outer loop
   vertex 0.00111564 0.011566 0.15
   vertex 0.000829966 0.0116722 -0.15
   vertex 0.000829966 0.0116722 0.15
  endloop
 endfacet
 facet normal 0.313252 0.94967 -0
  outer loop
   vertex 0.000829966 0.0116722 -0.15
   vertex 0.000582393 0.0117539 -0.15
   vertex 0.000829966 0.0116722 0.15
  endloop
 endfacet
 facet normal 0.313252 0.94967 0
  outer loop
   vertex 0.000829966 0.0116722 0.15
   vertex 0.000582393 0.0117539 -0.15
   vertex 0.000582393 0.0117539 0.15
  endloop
 endfacet
 facet normal 0.277586 0.960701 -0
  outer loop
   vertex 0.000582393 0.0117539 -0.15
   vertex 0.000367083 0.0118161 -0.15
   vertex 0.000582393 0.0117539 0.15
  endloop
 endfacet
 facet normal 0.277586 0.960701 0
  outer loop
   vertex 0.000582393 0.0117539 0.15
   vertex 0.000367083 0.0118161 -0.15
   vertex 0.000367083 0.0118161 0.15
  endloop
 endfacet
 facet normal 0.241474 0.970407 -0
  outer loop
   vertex 0.000367083 0.0118161 -0.15
   vertex 0.000179903 0.0118627 -0.15
   vertex 0.000367083 0.0118161 0.15
  endloop
 endfacet
 facet normal 0.241474 0.970407 0
  outer loop
   vertex 0.000367083 0.0118161 0.15
   vertex 0.000179903 0.0118627 -0.15
   vertex 0.000179903 0.0118627 0.15
  endloop
 endfacet
 facet normal 0.203191 0.979139 -0
  outer loop
   vertex 0.000179903 0.0118627 -0.15
   vertex 0 0.0119 -0.15
   vertex 0.000179903 0.0118627 0.15
  endloop
 endfacet
 facet normal 0.203191 0.979139 0
  outer loop
   vertex 0.000179903 0.0118627 0.15
   vertex 0 0.0119 -0.15
   vertex 0 0.0119 0.15
  endloop
 endfacet
 facet normal -0.967988 -0.250996 -0
  outer loop
   vertex -0.0119 0 0.15
   vertex -0.0119 0 -0.15
   vertex -0.0118784 -8.32721e-05 -0.15
  endloop
 endfacet
 facet normal -0.967988 -0.250996 0
  outer loop
   vertex -0.0119 0 0.15
   vertex -0.0118784 -8.32721e-05 -0.15
   vertex -0.0118784 -8.32721e-05 0.15
  endloop
 endfacet
 facet normal -0.961627 -0.274361 0
  outer loop
   vertex -0.0118784 -8.32721e-05 -0.15
   vertex -0.0117725 -0.000454544 -0.15
   vertex -0.0118784 -8.32721e-05 0.15
  endloop
 endfacet
 facet normal -0.961627 -0.274361 0
  outer loop
   vertex -0.0118784 -8.32721e-05 0.15
   vertex -0.0117725 -0.000454544 -0.15
   vertex -0.0117725 -0.000454544 0.15
  endloop
 endfacet
 facet normal -0.950163 -0.311754 0
  outer loop
   vertex -0.0117725 -0.000454544 -0.15
   vertex -0.0116442 -0.000845497 -0.15
   vertex -0.0117725 -0.000454544 0.15
  endloop
 endfacet
 facet normal -0.950163 -0.311754 0
  outer loop
   vertex -0.0117725 -0.000454544 0.15
   vertex -0.0116442 -0.000845497 -0.15
   vertex -0.0116442 -0.000845497 0.15
  endloop
 endfacet
 facet normal -0.937232 -0.348706 0
  outer loop
   vertex -0.0116442 -0.000845497 -0.15
   vertex -0.0114911 -0.001257 -0.15
   vertex -0.0116442 -0.000845497 0.15
  endloop
 endfacet
 facet normal -0.937232 -0.348706 0
  outer loop
   vertex -0.0116442 -0.000845497 0.15
   vertex -0.0114911 -0.001257 -0.15
   vertex -0.0114911 -0.001257 0.15
  endloop
 endfacet
 facet normal -0.92287 -0.385112 0
  outer loop
   vertex -0.0114911 -0.001257 -0.15
   vertex -0.01131 -0.00169098 -0.15
   vertex -0.0114911 -0.001257 0.15
  endloop
 endfacet
 facet normal -0.92287 -0.385112 0
  outer loop
   vertex -0.0114911 -0.001257 0.15
   vertex -0.01131 -0.00169098 -0.15
   vertex -0.01131 -0.00169098 0.15
  endloop
 endfacet
 facet normal -0.9071 -0.420915 0
  outer loop
   vertex -0.01131 -0.00169098 -0.15
   vertex -0.0110973 -0.00214938 -0.15
   vertex -0.01131 -0.00169098 0.15
  endloop
 endfacet
 facet normal -0.9071 -0.420915 0
  outer loop
   vertex -0.01131 -0.00169098 0.15
   vertex -0.0110973 -0.00214938 -0.15
   vertex -0.0110973 -0.00214938 0.15
  endloop
 endfacet
 facet normal -0.889949 -0.45606 0
  outer loop
   vertex -0.0110973 -0.00214938 -0.15
   vertex -0.0108489 -0.00263413 -0.15
   vertex -0.0110973 -0.00214938 0.15
  endloop
 endfacet
 facet normal -0.889949 -0.45606 0
  outer loop
   vertex -0.0110973 -0.00214938 0.15
   vertex -0.0108489 -0.00263413 -0.15
   vertex -0.0108489 -0.00263413 0.15
  endloop
 endfacet
 facet normal -0.87144 -0.490501 0
  outer loop
   vertex -0.0108489 -0.00263413 -0.15
   vertex -0.0105602 -0.00314693 -0.15
   vertex -0.0108489 -0.00263413 0.15
  endloop
 endfacet
 facet normal -0.87144 -0.490501 0
  outer loop
   vertex -0.0108489 -0.00263413 0.15
   vertex -0.0105602 -0.00314693 -0.15
   vertex -0.0105602 -0.00314693 0.15
  endloop
 endfacet
 facet normal -0.851608 -0.524179 0
  outer loop
   vertex -0.0105602 -0.00314693 -0.15
   vertex -0.0102265 -0.00368916 -0.15
   vertex -0.0105602 -0.00314693 0.15
  endloop
 endfacet
 facet normal -0.851608 -0.524179 0
  outer loop
   vertex -0.0105602 -0.00314693 0.15
   vertex -0.0102265 -0.00368916 -0.15
   vertex -0.0102265 -0.00368916 0.15
  endloop
 endfacet
 facet normal -0.830479 -0.55705 0
  outer loop
   vertex -0.0102265 -0.00368916 -0.15
   vertex -0.00984261 -0.00426148 -0.15
   vertex -0.0102265 -0.00368916 0.15
  endloop
 endfacet
 facet normal -0.830479 -0.55705 0
  outer loop
   vertex -0.0102265 -0.00368916 0.15
   vertex -0.00984261 -0.00426148 -0.15
   vertex -0.00984261 -0.00426148 0.15
  endloop
 endfacet
 facet normal -0.808085 -0.589065 0
  outer loop
   vertex -0.00984261 -0.00426148 -0.15
   vertex -0.00940378 -0.00486346 -0.15
   vertex -0.00984261 -0.00426148 0.15
  endloop
 endfacet
 facet normal -0.808085 -0.589065 0
  outer loop
   vertex -0.00984261 -0.00426148 0.15
   vertex -0.00940378 -0.00486346 -0.15
   vertex -0.00940378 -0.00486346 0.15
  endloop
 endfacet
 facet normal -0.78446 -0.620179 0
  outer loop
   vertex -0.00940378 -0.00486346 -0.15
   vertex -0.00890609 -0.00549299 -0.15
   vertex -0.00940378 -0.00486346 0.15
  endloop
 endfacet
 facet normal -0.78446 -0.620179 0
  outer loop
   vertex -0.00940378 -0.00486346 0.15
   vertex -0.00890609 -0.00549299 -0.15
   vertex -0.00890609 -0.00549299 0.15
  endloop
 endfacet
 facet normal -0.759633 -0.650352 0
  outer loop
   vertex -0.00890609 -0.00549299 -0.15
   vertex -0.00834742 -0.00614553 -0.15
   vertex -0.00890609 -0.00549299 0.15
  endloop
 endfacet
 facet normal -0.759633 -0.650352 0
  outer loop
   vertex -0.00890609 -0.00549299 0.15
   vertex -0.00834742 -0.00614553 -0.15
   vertex -0.00834742 -0.00614553 0.15
  endloop
 endfacet
 facet normal -0.733639 -0.679539 0
  outer loop
   vertex -0.00834742 -0.00614553 -0.15
   vertex -0.00772884 -0.00681336 -0.15
   vertex -0.00834742 -0.00614553 0.15
  endloop
 endfacet
 facet normal -0.733639 -0.679539 0
  outer loop
   vertex -0.00834742 -0.00614553 0.15
   vertex -0.00772884 -0.00681336 -0.15
   vertex -0.00772884 -0.00681336 0.15
  endloop
 endfacet
 facet normal -0.705157 -0.709051 0
  outer loop
   vertex -0.00772884 -0.00681336 -0.15
   vertex -0.00698858 -0.00754955 -0.15
   vertex -0.00772884 -0.00681336 0.15
  endloop
 endfacet
 facet normal -0.705157 -0.709051 0
  outer loop
   vertex -0.00772884 -0.00681336 0.15
   vertex -0.00698858 -0.00754955 -0.15
   vertex -0.00698858 -0.00754955 0.15
  endloop
 endfacet
 facet normal -0.674596 -0.738187 0
  outer loop
   vertex -0.00698858 -0.00754955 -0.15
   vertex -0.00622428 -0.00824801 -0.15
   vertex -0.00698858 -0.00754955 0.15
  endloop
 endfacet
 facet normal -0.674596 -0.738187 0
  outer loop
   vertex -0.00698858 -0.00754955 0.15
   vertex -0.00622428 -0.00824801 -0.15
   vertex -0.00622428 -0.00824801 0.15
  endloop
 endfacet
 facet normal -0.643574 -0.765384 0
  outer loop
   vertex -0.00622428 -0.00824801 -0.15
   vertex -0.00544963 -0.00889938 -0.15
   vertex -0.00622428 -0.00824801 0.15
  endloop
 endfacet
 facet normal -0.643574 -0.765384 0
  outer loop
   vertex -0.00622428 -0.00824801 0.15
   vertex -0.00544963 -0.00889938 -0.15
   vertex -0.00544963 -0.00889938 0.15
  endloop
 endfacet
 facet normal -0.612099 -0.790781 0
  outer loop
   vertex -0.00544963 -0.00889938 -0.15
   vertex -0.00469855 -0.00948075 -0.15
   vertex -0.00544963 -0.00889938 0.15
  endloop
 endfacet
 facet normal -0.612099 -0.790781 0
  outer loop
   vertex -0.00544963 -0.00889938 0.15
   vertex -0.00469855 -0.00948075 -0.15
   vertex -0.00469855 -0.00948075 0.15
  endloop
 endfacet
 facet normal -0.580381 -0.814345 0
  outer loop
   vertex -0.00469855 -0.00948075 -0.15
   vertex -0.00399372 -0.00998308 -0.15
   vertex -0.00469855 -0.00948075 0.15
  endloop
 endfacet
 facet normal -0.580381 -0.814345 0
  outer loop
   vertex -0.00469855 -0.00948075 0.15
   vertex -0.00399372 -0.00998308 -0.15
   vertex -0.00399372 -0.00998308 0.15
  endloop
 endfacet
 facet normal -0.548416 -0.836205 0
  outer loop
   vertex -0.00399372 -0.00998308 -0.15
   vertex -0.00335022 -0.0104051 -0.15
   vertex -0.00399372 -0.00998308 0.15
  endloop
 endfacet
 facet normal -0.548416 -0.836205 0
  outer loop
   vertex -0.00399372 -0.00998308 0.15
   vertex -0.00335022 -0.0104051 -0.15
   vertex -0.00335022 -0.0104051 0.15
  endloop
 endfacet
 facet normal -0.516163 -0.856491 0
  outer loop
   vertex -0.00335022 -0.0104051 -0.15
   vertex -0.00277514 -0.0107517 -0.15
   vertex -0.00335022 -0.0104051 0.15
  endloop
 endfacet
 facet normal -0.516163 -0.856491 0
  outer loop
   vertex -0.00335022 -0.0104051 0.15
   vertex -0.00277514 -0.0107517 -0.15
   vertex -0.00277514 -0.0107517 0.15
  endloop
 endfacet
 facet normal -0.483553 -0.875315 0
  outer loop
   vertex -0.00277514 -0.0107517 -0.15
   vertex -0.00226904 -0.0110313 -0.15
   vertex -0.00277514 -0.0107517 0.15
  endloop
 endfacet
 facet normal -0.483553 -0.875315 0
  outer loop
   vertex -0.00277514 -0.0107517 0.15
   vertex -0.00226904 -0.0110313 -0.15
   vertex -0.00226904 -0.0110313 0.15
  endloop
 endfacet
 facet normal -0.450515 -0.892769 0
  outer loop
   vertex -0.00226904 -0.0110313 -0.15
   vertex -0.00182806 -0.0112538 -0.15
   vertex -0.00226904 -0.0110313 0.15
  endloop
 endfacet
 facet normal -0.450515 -0.892769 0
  outer loop
   vertex -0.00226904 -0.0110313 0.15
   vertex -0.00182806 -0.0112538 -0.15
   vertex -0.00182806 -0.0112538 0.15
  endloop
 endfacet
 facet normal -0.416998 -0.908908 0
  outer loop
   vertex -0.00182806 -0.0112538 -0.15
   vertex -0.00144598 -0.0114291 -0.15
   vertex -0.00182806 -0.0112538 0.15
  endloop
 endfacet
 facet normal -0.416998 -0.908908 0
  outer loop
   vertex -0.00182806 -0.0112538 0.15
   vertex -0.00144598 -0.0114291 -0.15
   vertex -0.00144598 -0.0114291 0.15
  endloop
 endfacet
 facet normal -0.382961 -0.923765 0
  outer loop
   vertex -0.00144598 -0.0114291 -0.15
   vertex -0.00111564 -0.011566 -0.15
   vertex -0.00144598 -0.0114291 0.15
  endloop
 endfacet
 facet normal -0.382961 -0.923765 0
  outer loop
   vertex -0.00144598 -0.0114291 0.15
   vertex -0.00111564 -0.011566 -0.15
   vertex -0.00111564 -0.011566 0.15
  endloop
 endfacet
 facet normal -0.348381 -0.937353 0
  outer loop
   vertex -0.00111564 -0.011566 -0.15
   vertex -0.000829966 -0.0116722 -0.15
   vertex -0.00111564 -0.011566 0.15
  endloop
 endfacet
 facet normal -0.348381 -0.937353 0
  outer loop
   vertex -0.00111564 -0.011566 0.15
   vertex -0.000829966 -0.0116722 -0.15
   vertex -0.000829966 -0.0116722 0.15
  endloop
 endfacet
 facet normal -0.313252 -0.94967 0
  outer loop
   vertex -0.000829966 -0.0116722 -0.15
   vertex -0.000582393 -0.0117539 -0.15
   vertex -0.000829966 -0.0116722 0.15
  endloop
 endfacet
 facet normal -0.313252 -0.94967 0
  outer loop
   vertex -0.000829966 -0.0116722 0.15
   vertex -0.000582393 -0.0117539 -0.15
   vertex -0.000582393 -0.0117539 0.15
  endloop
 endfacet
 facet normal -0.277586 -0.960701 0
  outer loop
   vertex -0.000582393 -0.0117539 -0.15
   vertex -0.000367083 -0.0118161 -0.15
   vertex -0.000582393 -0.0117539 0.15
  endloop
 endfacet
 facet normal -0.277586 -0.960701 0
  outer loop
   vertex -0.000582393 -0.0117539 0.15
   vertex -0.000367083 -0.0118161 -0.15
   vertex -0.000367083 -0.0118161 0.15
  endloop
 endfacet
 facet normal -0.241474 -0.970407 0
  outer loop
   vertex -0.000367083 -0.0118161 -0.15
   vertex -0.000179903 -0.0118627 -0.15
   vertex -0.000367083 -0.0118161 0.15
  endloop
 endfacet
 facet normal -0.241474 -0.970407 0
  outer loop
   vertex -0.000367083 -0.0118161 0.15
   vertex -0.000179903 -0.0118627 -0.15
   vertex -0.000179903 -0.0118627 0.15
  endloop
 endfacet
 facet normal -0.203191 -0.979139 0
  outer loop
   vertex -0.000179903 -0.0118627 -0.15
   vertex -2.91466e-18 -0.0119 -0.15
   vertex -0.000179903 -0.0118627 0.15
  endloop
 endfacet
 facet normal -0.203191 -0.979139 0
  outer loop
   vertex -0.000179903 -0.0118627 0.15
   vertex -2.91466e-18 -0.0119 -0.15
   vertex -2.91466e-18 -0.0119 0.15
  endloop
 endfacet
 facet normal 0.203191 -0.979139 0
  outer loop
   vertex -2.91466e-18 -0.0119 0.15
   vertex -2.91466e-18 -0.0119 -0.15
   vertex 0.000179903 -0.0118627 -0.15
  endloop
 endfacet
 facet normal 0.203191 -0.979139 0
  outer loop
   vertex -2.91466e-18 -0.0119 0.15
   vertex 0.000179903 -0.0118627 -0.15
   vertex 0.000179903 -0.0118627 0.15
  endloop
 endfacet
 facet normal 0.241474 -0.970407 0
  outer loop
   vertex 0.000179903 -0.0118627 -0.15
   vertex 0.000367083 -0.0118161 -0.15
   vertex 0.000179903 -0.0118627 0.15
  endloop
 endfacet
 facet normal 0.241474 -0.970407 0
  outer loop
   vertex 0.000179903 -0.0118627 0.15
   vertex 0.000367083 -0.0118161 -0.15
   vertex 0.000367083 -0.0118161 0.15
  endloop
 endfacet
 facet normal 0.277586 -0.960701 0
  outer loop
   vertex 0.000367083 -0.0118161 -0.15
   vertex 0.000582393 -0.0117539 -0.15
   vertex 0.000367083 -0.0118161 0.15
  endloop
 endfacet
 facet normal 0.277586 -0.960701 0
  outer loop
   vertex 0.000367083 -0.0118161 0.15
   vertex 0.000582393 -0.0117539 -0.15
   vertex 0.000582393 -0.0117539 0.15
  endloop
 endfacet
 facet normal 0.313252 -0.94967 0
  outer loop
   vertex 0.000582393 -0.0117539 -0.15
   vertex 0.000829966 -0.0116722 -0.15
   vertex 0.000582393 -0.0117539 0.15
  endloop
 endfacet
 facet normal 0.313252 -0.94967 0
  outer loop
   vertex 0.000582393 -0.0117539 0.15
   vertex 0.000829966 -0.0116722 -0.15
   vertex 0.000829966 -0.0116722 0.15
  endloop
 endfacet
 facet normal 0.348381 -0.937353 0
  outer loop
   vertex 0.000829966 -0.0116722 -0.15
   vertex 0.00111564 -0.011566 -0.15
   vertex 0.000829966 -0.0116722 0.15
  endloop
 endfacet
 facet normal 0.348381 -0.937353 0
  outer loop
   vertex 0.000829966 -0.0116722 0.15
   vertex 0.00111564 -0.011566 -0.15
   vertex 0.00111564 -0.011566 0.15
  endloop
 endfacet
 facet normal 0.382961 -0.923765 0
  outer loop
   vertex 0.00111564 -0.011566 -0.15
   vertex 0.00144598 -0.0114291 -0.15
   vertex 0.00111564 -0.011566 0.15
  endloop
 endfacet
 facet normal 0.382961 -0.923765 0
  outer loop
   vertex 0.00111564 -0.011566 0.15
   vertex 0.00144598 -0.0114291 -0.15
   vertex 0.00144598 -0.0114291 0.15
  endloop
 endfacet
 facet normal 0.416998 -0.908908 0
  outer loop
   vertex 0.00144598 -0.0114291 -0.15
   vertex 0.00182806 -0.0112538 -0.15
   vertex 0.00144598 -0.0114291 0.15
  endloop
 endfacet
 facet normal 0.416998 -0.908908 0
  outer loop
   vertex 0.00144598 -0.0114291 0.15
   vertex 0.00182806 -0.0112538 -0.15
   vertex 0.00182806 -0.0112538 0.15
  endloop
 endfacet
 facet normal 0.450515 -0.892769 0
  outer loop
   vertex 0.00182806 -0.0112538 -0.15
   vertex 0.00226904 -0.0110313 -0.15
   vertex 0.00182806 -0.0112538 0.15
  endloop
 endfacet
 facet normal 0.450515 -0.892769 0
  outer loop
   vertex 0.00182806 -0.0112538 0.15
   vertex 0.00226904 -0.0110313 -0.15
   vertex 0.00226904 -0.0110313 0.15
  endloop
 endfacet
 facet normal 0.483553 -0.875315 0
  outer loop
   vertex 0.00226904 -0.0110313 -0.15
   vertex 0.00277514 -0.0107517 -0.15
   vertex 0.00226904 -0.0110313 0.15
  endloop
 endfacet
 facet normal 0.483553 -0.875315 0
  outer loop
   vertex 0.00226904 -0.0110313 0.15
   vertex 0.00277514 -0.0107517 -0.15
   vertex 0.00277514 -0.0107517 0.15
  endloop
 endfacet
 facet normal 0.516163 -0.856491 0
  outer loop
   vertex 0.00277514 -0.0107517 -0.15
   vertex 0.00335022 -0.0104051 -0.15
   vertex 0.00277514 -0.0107517 0.15
  endloop
 endfacet
 facet normal 0.516163 -0.856491 0
  outer loop
   vertex 0.00277514 -0.0107517 0.15
   vertex 0.00335022 -0.0104051 -0.15
   vertex 0.00335022 -0.0104051 0.15
  endloop
 endfacet
 facet normal 0.548416 -0.836205 0
  outer loop
   vertex 0.00335022 -0.0104051 -0.15
   vertex 0.00399372 -0.00998308 -0.15
   vertex 0.00335022 -0.0104051 0.15
  endloop
 endfacet
 facet normal 0.548416 -0.836205 0
  outer loop
   vertex 0.00335022 -0.0104051 0.15
   vertex 0.00399372 -0.00998308 -0.15
   vertex 0.00399372 -0.00998308 0.15
  endloop
 endfacet
 facet normal 0.580381 -0.814345 0
  outer loop
   vertex 0.00399372 -0.00998308 -0.15
   vertex 0.00469855 -0.00948075 -0.15
   vertex 0.00399372 -0.00998308 0.15
  endloop
 endfacet
 facet normal 0.580381 -0.814345 0
  outer loop
   vertex 0.00399372 -0.00998308 0.15
   vertex 0.00469855 -0.00948075 -0.15
   vertex 0.00469855 -0.00948075 0.15
  endloop
 endfacet
 facet normal 0.612099 -0.790781 0
  outer loop
   vertex 0.00469855 -0.00948075 -0.15
   vertex 0.00544963 -0.00889938 -0.15
   vertex 0.00469855 -0.00948075 0.15
  endloop
 endfacet
 facet normal 0.612099 -0.790781 0
  outer loop
   vertex 0.00469855 -0.00948075 0.15
   vertex 0.00544963 -0.00889938 -0.15
   vertex 0.00544963 -0.00889938 0.15
  endloop
 endfacet
 facet normal 0.643574 -0.765384 0
  outer loop
   vertex 0.00544963 -0.00889938 -0.15
   vertex 0.00622428 -0.00824801 -0.15
   vertex 0.00544963 -0.00889938 0.15
  endloop
 endfacet
 facet normal 0.643574 -0.765384 0
  outer loop
   vertex 0.00544963 -0.00889938 0.15
   vertex 0.00622428 -0.00824801 -0.15
   vertex 0.00622428 -0.00824801 0.15
  endloop
 endfacet
 facet normal 0.674596 -0.738187 0
  outer loop
   vertex 0.00622428 -0.00824801 -0.15
   vertex 0.00698858 -0.00754955 -0.15
   vertex 0.00622428 -0.00824801 0.15
  endloop
 endfacet
 facet normal 0.674596 -0.738187 0
  outer loop
   vertex 0.00622428 -0.00824801 0.15
   vertex 0.00698858 -0.00754955 -0.15
   vertex 0.00698858 -0.00754955 0.15
  endloop
 endfacet
 facet normal 0.705157 -0.709051 0
  outer loop
   vertex 0.00698858 -0.00754955 -0.15
   vertex 0.00772884 -0.00681336 -0.15
   vertex 0.00698858 -0.00754955 0.15
  endloop
 endfacet
 facet normal 0.705157 -0.709051 0
  outer loop
   vertex 0.00698858 -0.00754955 0.15
   vertex 0.00772884 -0.00681336 -0.15
   vertex 0.00772884 -0.00681336 0.15
  endloop
 endfacet
 facet normal 0.733639 -0.679539 0
  outer loop
   vertex 0.00772884 -0.00681336 -0.15
   vertex 0.00834742 -0.00614553 -0.15
   vertex 0.00772884 -0.00681336 0.15
  endloop
 endfacet
 facet normal 0.733639 -0.679539 0
  outer loop
   vertex 0.00772884 -0.00681336 0.15
   vertex 0.00834742 -0.00614553 -0.15
   vertex 0.00834742 -0.00614553 0.15
  endloop
 endfacet
 facet normal 0.759633 -0.650352 0
  outer loop
   vertex 0.00834742 -0.00614553 -0.15
   vertex 0.00890609 -0.00549299 -0.15
   vertex 0.00834742 -0.00614553 0.15
  endloop
 endfacet
 facet normal 0.759633 -0.650352 0
  outer loop
   vertex 0.00834742 -0.00614553 0.15
   vertex 0.00890609 -0.00549299 -0.15
   vertex 0.00890609 -0.00549299 0.15
  endloop
 endfacet
 facet normal 0.78446 -0.620179 0
  outer loop
   vertex 0.00890609 -0.00549299 -0.15
   vertex 0.00940378 -0.00486346 -0.15
   vertex 0.00890609 -0.00549299 0.15
  endloop
 endfacet
 facet normal 0.78446 -0.620179 0
  outer loop
   vertex 0.00890609 -0.00549299 0.15
   vertex 0.00940378 -0.00486346 -0.15
   vertex 0.00940378 -0.00486346 0.15
  endloop
 endfacet
 facet normal 0.808085 -0.589065 0
  outer loop
   vertex 0.00940378 -0.00486346 -0.15
   vertex 0.00984261 -0.00426148 -0.15
   vertex 0.00940378 -0.00486346 0.15
  endloop
 endfacet
 facet normal 0.808085 -0.589065 0
  outer loop
   vertex 0.00940378 -0.00486346 0.15
   vertex 0.00984261 -0.00426148 -0.15
   vertex 0.00984261 -0.00426148 0.15
  endloop
 endfacet
 facet normal 0.830479 -0.55705 0
  outer loop
   vertex 0.00984261 -0.00426148 -0.15
   vertex 0.0102265 -0.00368916 -0.15
   vertex 0.00984261 -0.00426148 0.15
  endloop
 endfacet
 facet normal 0.830479 -0.55705 0
  outer loop
   vertex 0.00984261 -0.00426148 0.15
   vertex 0.0102265 -0.00368916 -0.15
   vertex 0.0102265 -0.00368916 0.15
  endloop
 endfacet
 facet normal 0.851608 -0.524179 0
  outer loop
   vertex 0.0102265 -0.00368916 -0.15
   vertex 0.0105602 -0.00314693 -0.15
   vertex 0.0102265 -0.00368916 0.15
  endloop
 endfacet
 facet normal 0.851608 -0.524179 0
  outer loop
   vertex 0.0102265 -0.00368916 0.15
   vertex 0.0105602 -0.00314693 -0.15
   vertex 0.0105602 -0.00314693 0.15
  endloop
 endfacet
 facet normal 0.87144 -0.490501 0
  outer loop
   vertex 0.0105602 -0.00314693 -0.15
   vertex 0.0108489 -0.00263413 -0.15
   vertex 0.0105602 -0.00314693 0.15
  endloop
 endfacet
 facet normal 0.87144 -0.490501 0
  outer loop
   vertex 0.0105602 -0.00314693 0.15
   vertex 0.0108489 -0.00263413 -0.15
   vertex 0.0108489 -0.00263413 0.15
  endloop
 endfacet
 facet normal 0.889949 -0.45606 0
  outer loop
   vertex 0.0108489 -0.00263413 -0.15
   vertex 0.0110973 -0.00214938 -0.15
   vertex 0.0108489 -0.00263413 0.15
  endloop
 endfacet
 facet normal 0.889949 -0.45606 0
  outer loop
   vertex 0.0108489 -0.00263413 0.15
   vertex 0.0110973 -0.00214938 -0.15
   vertex 0.0110973 -0.00214938 0.15
  endloop
 endfacet
 facet normal 0.9071 -0.420915 0
  outer loop
   vertex 0.0110973 -0.00214938 -0.15
   vertex 0.01131 -0.00169098 -0.15
   vertex 0.0110973 -0.00214938 0.15
  endloop
 endfacet
 facet normal 0.9071 -0.420915 0
  outer loop
   vertex 0.0110973 -0.00214938 0.15
   vertex 0.01131 -0.00169098 -0.15
   vertex 0.01131 -0.00169098 0.15
  endloop
 endfacet
 facet normal 0.92287 -0.385112 0
  outer loop
   vertex 0.01131 -0.00169098 -0.15
   vertex 0.0114911 -0.001257 -0.15
   vertex 0.01131 -0.00169098 0.15
  endloop
 endfacet
 facet normal 0.92287 -0.385112 0
  outer loop
   vertex 0.01131 -0.00169098 0.15
   vertex 0.0114911 -0.001257 -0.15
   vertex 0.0114911 -0.001257 0.15
  endloop
 endfacet
 facet normal 0.937232 -0.348706 0
  outer loop
   vertex 0.0114911 -0.001257 -0.15
   vertex 0.0116442 -0.000845497 -0.15
   vertex 0.0114911 -0.001257 0.15
  endloop
 endfacet
 facet normal 0.937232 -0.348706 0
  outer loop
   vertex 0.0114911 -0.001257 0.15
   vertex 0.0116442 -0.000845497 -0.15
   vertex 0.0116442 -0.000845497 0.15
  endloop
 endfacet
 facet normal 0.950163 -0.311754 0
  outer loop
   vertex 0.0116442 -0.000845497 -0.15
   vertex 0.0117725 -0.000454544 -0.15
   vertex 0.0116442 -0.000845497 0.15
  endloop
 endfacet
 facet normal 0.950163 -0.311754 0
  outer loop
   vertex 0.0116442 -0.000845497 0.15
   vertex 0.0117725 -0.000454544 -0.15
   vertex 0.0117725 -0.000454544 0.15
  endloop
 endfacet
 facet normal 0.961627 -0.274361 0
  outer loop
   vertex 0.0117725 -0.000454544 -0.15
   vertex 0.0118784 -8.32721e-05 -0.15
   vertex 0.0117725 -0.000454544 0.15
  endloop
 endfacet
 facet normal 0.961627 -0.274361 0
  outer loop
   vertex 0.0117725 -0.000454544 0.15
   vertex 0.0118784 -8.32721e-05 -0.15
   vertex 0.0118784 -8.32721e-05 0.15
  endloop
 endfacet
 facet normal 0.967988 -0.250996 0
  outer loop
   vertex 0.0118784 -8.32721e-05 -0.15
   vertex 0.0119 2.31112e-33 -0.15
   vertex 0.0118784 -8.32721e-05 0.15
  endloop
 endfacet
 facet normal 0.967988 -0.250996 0
  outer loop
   vertex 0.0118784 -8.32721e-05 0.15
   vertex 0.0119 2.31112e-33 -0.15
   vertex 0.0119 2.31112e-33 0.15
  endloop
 endfacet
endsolid zone0
