solid zone0
 facet normal 0 0 -1
  outer loop
   vertex -0.00182806 0.0112538 0.15
   vertex -0.00144598 0.0114291 0.15
   vertex 0.0103057 0.00595 0.15
  endloop
 endfacet
 facet normal 0 0 -1
  outer loop
   vertex -0.00111564 -0.011566 0.15
   vertex -0.00144598 -0.0114291 0.15
   vertex 0.0103057 0.00595 0.15
  endloop
 endfacet
 facet normal 0 0 -1
  outer loop
   vertex -0.00144598 -0.0114291 0.15
   vertex -0.00182806 -0.0112538 0.15
   vertex 0.0103057 0.00595 0.15
  endloop
 endfacet
 facet normal 0 0 -1
  outer loop
   vertex 0.0103057 0.00595 0.15
   vertex -0.00182806 -0.0112538 0.15
   vertex -0.00226904 -0.0110313 0.15
  endloop
 endfacet
 facet normal 0 0 -1
  outer loop
   vertex -0.000367083 -0.0118161 0.15
   vertex -0.000582393 -0.0117539 0.15
   vertex 0.0103057 0.00595 0.15
  endloop
 endfacet
 facet normal 0 0 -1
  outer loop
   vertex -0.000582393 -0.0117539 0.15
   vertex -0.000829966 -0.0116722 0.15
   vertex 0.0103057 0.00595 0.15
  endloop
 endfacet
 facet normal 0 0 -1
  outer loop
   vertex 0.0103057 0.00595 0.15
   vertex -0.000829966 -0.0116722 0.15
   vertex -0.00111564 -0.011566 0.15
  endloop
 endfacet
 facet normal 0 0 -1
  outer loop
   vertex -0.00335022 0.0104051 0.15
   vertex -0.00277514 0.0107517 0.15
   vertex 0.0103057 0.00595 0.15
  endloop
 endfacet
 facet normal 0 0 -1
  outer loop
   vertex -0.00277514 0.0107517 0.15
   vertex -0.00226904 0.0110313 0.15
   vertex 0.0103057 0.00595 0.15
  endloop
 endfacet
 facet normal 0 0 -1
  outer loop
   vertex 0.0103057 0.00595 0.15
   vertex -0.00226904 0.0110313 0.15
   vertex -0.00182806 0.0112538 0.15
  endloop
 endfacet
 facet normal 0 0 -1
  outer loop
   vertex -0.00144598 0.0114291 0.15
   vertex -0.00111564 0.011566 0.15
   vertex 0.0103057 0.00595 0.15
  endloop
 endfacet
 facet normal 0 0 -1
  outer loop
   vertex -0.00111564 0.011566 0.15
   vertex -0.000829966 0.0116722 0.15
   vertex 0.0103057 0.00595 0.15
  endloop
 endfacet
 facet normal 0 0 -1
  outer loop
   vertex 0.0103057 0.00595 0.15
   vertex -0.000829966 0.0116722 0.15
   vertex -0.000582393 0.0117539 0.15
  endloop
 endfacet
 facet normal 0 0 -1
  outer loop
   vertex -0.00226904 -0.0110313 0.15
   vertex -0.00277514 -0.0107517 0.15
   vertex 0.0103057 0.00595 0.15
  endloop
 endfacet
 facet normal 0 0 -1
  outer loop
   vertex -0.00277514 -0.0107517 0.15
   vertex -0.00335022 -0.0104051 0.15
   vertex 0.0103057 0.00595 0.15
  endloop
 endfacet
 facet normal 0 0 -1
  outer loop
   vertex 0.0103057 0.00595 0.15
   vertex -0.00335022 -0.0104051 0.15
   vertex -0.00399372 -0.00998308 0.15
  endloop
 endfacet
 facet normal 0 0 -1
  outer loop
   vertex -0.00834742 -0.00614553 0.15
   vertex -0.00890609 -0.00549299 0.15
   vertex 0.0103057 0.00595 0.15
  endloop
 endfacet
 facet normal 0 0 -1
  outer loop
   vertex -0.00890609 -0.00549299 0.15
   vertex -0.00940378 -0.00486346 0.15
   vertex 0.0103057 0.00595 0.15
  endloop
 endfacet
 facet normal 0 0 -1
  outer loop
   vertex 0.0103057 0.00595 0.15
   vertex -0.00940378 -0.00486346 0.15
   vertex -0.00984261 -0.00426148 0.15
  endloop
 endfacet
 facet normal -0 -0 -1
  outer loop
   vertex 0.00764917 0.00911593 0.15
   vertex 0.00803952 0.0087736 0.15
   vertex 0.00549481 0.0105554 0.15
  endloop
 endfacet
 facet normal 0 0 -1
  outer loop
   vertex 0.0107851 0.00502916 0.15
   vertex 0.0109942 0.00455393 0.15
   vertex 0.0118547 -0.00103715 0.15
  endloop
 endfacet
 facet normal 0 0 -1
  outer loop
   vertex 0.0109942 0.00455393 0.15
   vertex 0.0111823 0.00407004 0.15
   vertex 0.0118547 -0.00103715 0.15
  endloop
 endfacet
 facet normal 0 0 -1
  outer loop
   vertex 0.0118547 -0.00103715 0.15
   vertex 0.0111823 0.00407004 0.15
   vertex 0.0118887 -0.000519071 0.15
  endloop
 endfacet
 facet normal -0 0 -1
  outer loop
   vertex 0.0094409 -0.00724426 0.15
   vertex 0.00911593 -0.00764917 0.15
   vertex 0.0103057 0.00595 0.15
  endloop
 endfacet
 facet normal -0 0 -1
  outer loop
   vertex 0.00911593 -0.00764917 0.15
   vertex 0.0087736 -0.00803952 0.15
   vertex 0.0103057 0.00595 0.15
  endloop
 endfacet
 facet normal 0 0 -1
  outer loop
   vertex -0.0105602 0.00314693 0.15
   vertex -0.0102265 0.00368916 0.15
   vertex 0.0103057 0.00595 0.15
  endloop
 endfacet
 facet normal 0 0 -1
  outer loop
   vertex -0.0102265 0.00368916 0.15
   vertex -0.00984261 0.00426148 0.15
   vertex 0.0103057 0.00595 0.15
  endloop
 endfacet
 facet normal 0 0 -1
  outer loop
   vertex 0.0103057 0.00595 0.15
   vertex -0.00984261 0.00426148 0.15
   vertex -0.00940378 0.00486346 0.15
  endloop
 endfacet
 facet normal -0 0 -1
  outer loop
   vertex 0.0117982 -0.00155326 0.15
   vertex 0.0117192 -0.00206641 0.15
   vertex 0.0103057 0.00595 0.15
  endloop
 endfacet
 facet normal -0 0 -1
  outer loop
   vertex 0.0117192 -0.00206641 0.15
   vertex 0.0116179 -0.00257563 0.15
   vertex 0.0103057 0.00595 0.15
  endloop
 endfacet
 facet normal 0 0 -1
  outer loop
   vertex 0.0103057 0.00595 0.15
   vertex 0.0116179 -0.00257563 0.15
   vertex 0.0114945 -0.00307995 0.15
  endloop
 endfacet
 facet normal 0 0 -1
  outer loop
   vertex -0.00984261 -0.00426148 0.15
   vertex -0.0102265 -0.00368916 0.15
   vertex 0.0103057 0.00595 0.15
  endloop
 endfacet
 facet normal 0 0 -1
  outer loop
   vertex -0.0102265 -0.00368916 0.15
   vertex -0.0105602 -0.00314693 0.15
   vertex 0.0103057 0.00595 0.15
  endloop
 endfacet
 facet normal 0 0 -1
  outer loop
   vertex 0.0103057 0.00595 0.15
   vertex -0.0105602 -0.00314693 0.15
   vertex -0.0108489 -0.00263413 0.15
  endloop
 endfacet
 facet normal 0 0 -1
  outer loop
   vertex -0.00544963 0.00889938 0.15
   vertex -0.00469855 0.00948075 0.15
   vertex 0.0103057 0.00595 0.15
  endloop
 endfacet
 facet normal 0 0 -1
  outer loop
   vertex -0.00469855 0.00948075 0.15
   vertex -0.00399372 0.00998308 0.15
   vertex 0.0103057 0.00595 0.15
  endloop
 endfacet
 facet normal 0 0 -1
  outer loop
   vertex 0.0103057 0.00595 0.15
   vertex -0.00399372 0.00998308 0.15
   vertex -0.00335022 0.0104051 0.15
  endloop
 endfacet
 facet normal 0 0 -1
  outer loop
   vertex -0.000582393 0.0117539 0.15
   vertex -0.000367083 0.0118161 0.15
   vertex 0.0103057 0.00595 0.15
  endloop
 endfacet
 facet normal 0 0 -1
  outer loop
   vertex -0.000367083 0.0118161 0.15
   vertex -0.000179903 0.0118627 0.15
   vertex 0.0103057 0.00595 0.15
  endloop
 endfacet
 facet normal 0 0 -1
  outer loop
   vertex 0.0103057 0.00595 0.15
   vertex -0.000179903 0.0118627 0.15
   vertex 2.18599e-18 0.0119 0.15
  endloop
 endfacet
 facet normal 0 0 -1
  outer loop
   vertex 2.18599e-18 0.0119 0.15
   vertex 0.000519071 0.0118887 0.15
   vertex 0.0103057 0.00595 0.15
  endloop
 endfacet
 facet normal 0 0 -1
  outer loop
   vertex 0.000519071 0.0118887 0.15
   vertex 0.00103715 0.0118547 0.15
   vertex 0.0103057 0.00595 0.15
  endloop
 endfacet
 facet normal 0 0 -1
  outer loop
   vertex 0.0103057 0.00595 0.15
   vertex 0.00103715 0.0118547 0.15
   vertex 0.00155326 0.0117982 0.15
  endloop
 endfacet
 facet normal 0 0 -1
  outer loop
   vertex 0.00639387 0.0100364 0.15
   vertex 0.00682556 0.00974791 0.15
   vertex 0.00724426 0.0094409 0.15
  endloop
 endfacet
 facet normal 0 0 -1
  outer loop
   vertex 0.0117982 -0.00155326 0.15
   vertex 0.0103057 0.00595 0.15
   vertex 0.0118547 -0.00103715 0.15
  endloop
 endfacet
 facet normal 0 0 -1
  outer loop
   vertex 0.0103057 0.00595 0.15
   vertex 0.0105554 0.00549481 0.15
   vertex 0.0118547 -0.00103715 0.15
  endloop
 endfacet
 facet normal 0 0 -1
  outer loop
   vertex 0.0118547 -0.00103715 0.15
   vertex 0.0105554 0.00549481 0.15
   vertex 0.0107851 0.00502916 0.15
  endloop
 endfacet
 facet normal -0 0 -1
  outer loop
   vertex 0.0109942 -0.00455393 0.15
   vertex 0.0107851 -0.00502916 0.15
   vertex 0.0103057 0.00595 0.15
  endloop
 endfacet
 facet normal -0 0 -1
  outer loop
   vertex 0.0107851 -0.00502916 0.15
   vertex 0.0105554 -0.00549481 0.15
   vertex 0.0103057 0.00595 0.15
  endloop
 endfacet
 facet normal 0 0 -1
  outer loop
   vertex 0.0103057 0.00595 0.15
   vertex 0.0105554 -0.00549481 0.15
   vertex 0.0103057 -0.00595 0.15
  endloop
 endfacet
 facet normal -0 0 -1
  outer loop
   vertex 0.0103057 -0.00595 0.15
   vertex 0.0100364 -0.00639387 0.15
   vertex 0.0103057 0.00595 0.15
  endloop
 endfacet
 facet normal -0 0 -1
  outer loop
   vertex 0.0100364 -0.00639387 0.15
   vertex 0.00974791 -0.00682556 0.15
   vertex 0.0103057 0.00595 0.15
  endloop
 endfacet
 facet normal 0 0 -1
  outer loop
   vertex 0.0103057 0.00595 0.15
   vertex 0.00974791 -0.00682556 0.15
   vertex 0.0094409 -0.00724426 0.15
  endloop
 endfacet
 facet normal -0 0 -1
  outer loop
   vertex 0.0087736 -0.00803952 0.15
   vertex 0.00841457 -0.00841457 0.15
   vertex 0.0103057 0.00595 0.15
  endloop
 endfacet
 facet normal -0 0 -1
  outer loop
   vertex 0.00841457 -0.00841457 0.15
   vertex 0.00803952 -0.0087736 0.15
   vertex 0.0103057 0.00595 0.15
  endloop
 endfacet
 facet normal 0 0 -1
  outer loop
   vertex 0.0103057 0.00595 0.15
   vertex 0.00803952 -0.0087736 0.15
   vertex 0.00764917 -0.00911593 0.15
  endloop
 endfacet
 facet normal -0 0 -1
  outer loop
   vertex 0.00639387 -0.0100364 0.15
   vertex 0.00595 -0.0103057 0.15
   vertex 0.0103057 0.00595 0.15
  endloop
 endfacet
 facet normal -0 0 -1
  outer loop
   vertex 0.00595 -0.0103057 0.15
   vertex 0.00549481 -0.0105554 0.15
   vertex 0.0103057 0.00595 0.15
  endloop
 endfacet
 facet normal 0 0 -1
  outer loop
   vertex 0.0103057 0.00595 0.15
   vertex 0.00549481 -0.0105554 0.15
   vertex 0.00502916 -0.0107851 0.15
  endloop
 endfacet
 facet normal -0 0 -1
  outer loop
   vertex 0.00502916 -0.0107851 0.15
   vertex 0.00455393 -0.0109942 0.15
   vertex 0.0103057 0.00595 0.15
  endloop
 endfacet
 facet normal -0 0 -1
  outer loop
   vertex 0.00455393 -0.0109942 0.15
   vertex 0.00407004 -0.0111823 0.15
   vertex 0.0103057 0.00595 0.15
  endloop
 endfacet
 facet normal 0 0 -1
  outer loop
   vertex 0.0103057 0.00595 0.15
   vertex 0.00407004 -0.0111823 0.15
   vertex 0.0035784 -0.0113492 0.15
  endloop
 endfacet
 facet normal -0 0 -1
  outer loop
   vertex 0.0035784 -0.0113492 0.15
   vertex 0.00307995 -0.0114945 0.15
   vertex 0.0103057 0.00595 0.15
  endloop
 endfacet
 facet normal -0 0 -1
  outer loop
   vertex 0.00307995 -0.0114945 0.15
   vertex 0.00257563 -0.0116179 0.15
   vertex 0.0103057 0.00595 0.15
  endloop
 endfacet
 facet normal 0 0 -1
  outer loop
   vertex 0.0103057 0.00595 0.15
   vertex 0.00257563 -0.0116179 0.15
   vertex 0.00206641 -0.0117192 0.15
  endloop
 endfacet
 facet normal 0 0 -1
  outer loop
   vertex 0.00155326 0.0117982 0.15
   vertex 0.00206641 0.0117192 0.15
   vertex 0.0103057 0.00595 0.15
  endloop
 endfacet
 facet normal 0 0 -1
  outer loop
   vertex 0.00206641 0.0117192 0.15
   vertex 0.00257563 0.0116179 0.15
   vertex 0.0103057 0.00595 0.15
  endloop
 endfacet
 facet normal 0 0 -1
  outer loop
   vertex 0.0103057 0.00595 0.15
   vertex 0.00257563 0.0116179 0.15
   vertex 0.00307995 0.0114945 0.15
  endloop
 endfacet
 facet normal 0 0 -1
  outer loop
   vertex 0.00841457 0.00841457 0.15
   vertex 0.00455393 0.0109942 0.15
   vertex 0.00803952 0.0087736 0.15
  endloop
 endfacet
 facet normal 0 0 -1
  outer loop
   vertex 0.00455393 0.0109942 0.15
   vertex 0.00502916 0.0107851 0.15
   vertex 0.00803952 0.0087736 0.15
  endloop
 endfacet
 facet normal 0 0 -1
  outer loop
   vertex 0.00803952 0.0087736 0.15
   vertex 0.00502916 0.0107851 0.15
   vertex 0.00549481 0.0105554 0.15
  endloop
 endfacet
 facet normal -0 -0 -1
  outer loop
   vertex 0.00841457 0.00841457 0.15
   vertex 0.0087736 0.00803952 0.15
   vertex 0.00455393 0.0109942 0.15
  endloop
 endfacet
 facet normal -0 -0 -1
  outer loop
   vertex 0.0087736 0.00803952 0.15
   vertex 0.00911593 0.00764917 0.15
   vertex 0.00455393 0.0109942 0.15
  endloop
 endfacet
 facet normal 0 0 -1
  outer loop
   vertex 0.00455393 0.0109942 0.15
   vertex 0.00911593 0.00764917 0.15
   vertex 0.0094409 0.00724426 0.15
  endloop
 endfacet
 facet normal -0 -0 -1
  outer loop
   vertex 0.0094409 0.00724426 0.15
   vertex 0.00974791 0.00682556 0.15
   vertex 0.00455393 0.0109942 0.15
  endloop
 endfacet
 facet normal -0 -0 -1
  outer loop
   vertex 0.00974791 0.00682556 0.15
   vertex 0.0100364 0.00639387 0.15
   vertex 0.00455393 0.0109942 0.15
  endloop
 endfacet
 facet normal 0 0 -1
  outer loop
   vertex 0.00455393 0.0109942 0.15
   vertex 0.0100364 0.00639387 0.15
   vertex 0.0103057 0.00595 0.15
  endloop
 endfacet
 facet normal -0 -0 -1
  outer loop
   vertex 0.0113492 0.0035784 0.15
   vertex 0.0114945 0.00307995 0.15
   vertex 0.0111823 0.00407004 0.15
  endloop
 endfacet
 facet normal -0 -0 -1
  outer loop
   vertex 0.0114945 0.00307995 0.15
   vertex 0.0116179 0.00257563 0.15
   vertex 0.0111823 0.00407004 0.15
  endloop
 endfacet
 facet normal -0 -0 -1
  outer loop
   vertex 0.0116179 0.00257563 0.15
   vertex 0.0117192 0.00206641 0.15
   vertex 0.0111823 0.00407004 0.15
  endloop
 endfacet
 facet normal -0 -0 -1
  outer loop
   vertex 0.0117192 0.00206641 0.15
   vertex 0.0117982 0.00155326 0.15
   vertex 0.0111823 0.00407004 0.15
  endloop
 endfacet
 facet normal 0 0 -1
  outer loop
   vertex 0.0111823 0.00407004 0.15
   vertex 0.0117982 0.00155326 0.15
   vertex 0.0118547 0.00103715 0.15
  endloop
 endfacet
 facet normal -0 -0 -1
  outer loop
   vertex 0.0118547 0.00103715 0.15
   vertex 0.0118887 0.000519071 0.15
   vertex 0.0111823 0.00407004 0.15
  endloop
 endfacet
 facet normal -0 -0 -1
  outer loop
   vertex 0.0118887 0.000519071 0.15
   vertex 0.0119 2.91466e-18 0.15
   vertex 0.0111823 0.00407004 0.15
  endloop
 endfacet
 facet normal 0 0 -1
  outer loop
   vertex 0.0111823 0.00407004 0.15
   vertex 0.0119 2.91466e-18 0.15
   vertex 0.0118887 -0.000519071 0.15
  endloop
 endfacet
 facet normal -0 0 -1
  outer loop
   vertex 0.0114945 -0.00307995 0.15
   vertex 0.0113492 -0.0035784 0.15
   vertex 0.0103057 0.00595 0.15
  endloop
 endfacet
 facet normal -0 0 -1
  outer loop
   vertex 0.0113492 -0.0035784 0.15
   vertex 0.0111823 -0.00407004 0.15
   vertex 0.0103057 0.00595 0.15
  endloop
 endfacet
 facet normal 0 0 -1
  outer loop
   vertex 0.0103057 0.00595 0.15
   vertex 0.0111823 -0.00407004 0.15
   vertex 0.0109942 -0.00455393 0.15
  endloop
 endfacet
 facet normal -0 0 -1
  outer loop
   vertex 0.00764917 -0.00911593 0.15
   vertex 0.00724426 -0.0094409 0.15
   vertex 0.0103057 0.00595 0.15
  endloop
 endfacet
 facet normal -0 0 -1
  outer loop
   vertex 0.00724426 -0.0094409 0.15
   vertex 0.00682556 -0.00974791 0.15
   vertex 0.0103057 0.00595 0.15
  endloop
 endfacet
 facet normal 0 0 -1
  outer loop
   vertex 0.0103057 0.00595 0.15
   vertex 0.00682556 -0.00974791 0.15
   vertex 0.00639387 -0.0100364 0.15
  endloop
 endfacet
 facet normal -0 0 -1
  outer loop
   vertex 0.00206641 -0.0117192 0.15
   vertex 0.00155326 -0.0117982 0.15
   vertex 0.0103057 0.00595 0.15
  endloop
 endfacet
 facet normal -0 0 -1
  outer loop
   vertex 0.00155326 -0.0117982 0.15
   vertex 0.00103715 -0.0118547 0.15
   vertex 0.0103057 0.00595 0.15
  endloop
 endfacet
 facet normal 0 0 -1
  outer loop
   vertex 0.0103057 0.00595 0.15
   vertex 0.00103715 -0.0118547 0.15
   vertex 0.000519071 -0.0118887 0.15
  endloop
 endfacet
 facet normal 0 0 -1
  outer loop
   vertex -0.00399372 -0.00998308 0.15
   vertex -0.00469855 -0.00948075 0.15
   vertex 0.0103057 0.00595 0.15
  endloop
 endfacet
 facet normal 0 0 -1
  outer loop
   vertex -0.00469855 -0.00948075 0.15
   vertex -0.00544963 -0.00889938 0.15
   vertex 0.0103057 0.00595 0.15
  endloop
 endfacet
 facet normal 0 0 -1
  outer loop
   vertex 0.0103057 0.00595 0.15
   vertex -0.00544963 -0.00889938 0.15
   vertex -0.00622428 -0.00824801 0.15
  endloop
 endfacet
 facet normal 0 0 -1
  outer loop
   vertex -0.01131 0.00169098 0.15
   vertex -0.0110973 0.00214938 0.15
   vertex 0.0103057 0.00595 0.15
  endloop
 endfacet
 facet normal 0 0 -1
  outer loop
   vertex -0.0110973 0.00214938 0.15
   vertex -0.0108489 0.00263413 0.15
   vertex 0.0103057 0.00595 0.15
  endloop
 endfacet
 facet normal 0 0 -1
  outer loop
   vertex 0.0103057 0.00595 0.15
   vertex -0.0108489 0.00263413 0.15
   vertex -0.0105602 0.00314693 0.15
  endloop
 endfacet
 facet normal 0 0 -1
  outer loop
   vertex -0.00940378 0.00486346 0.15
   vertex -0.00890609 0.00549299 0.15
   vertex 0.0103057 0.00595 0.15
  endloop
 endfacet
 facet normal 0 0 -1
  outer loop
   vertex -0.00890609 0.00549299 0.15
   vertex -0.00834742 0.00614553 0.15
   vertex 0.0103057 0.00595 0.15
  endloop
 endfacet
 facet normal 0 0 -1
  outer loop
   vertex 0.0103057 0.00595 0.15
   vertex -0.00834742 0.00614553 0.15
   vertex -0.00772884 0.00681336 0.15
  endloop
 endfacet
 facet normal 0 0 -1
  outer loop
   vertex 0.00307995 0.0114945 0.15
   vertex 0.0035784 0.0113492 0.15
   vertex 0.0103057 0.00595 0.15
  endloop
 endfacet
 facet normal 0 0 -1
  outer loop
   vertex 0.0035784 0.0113492 0.15
   vertex 0.00407004 0.0111823 0.15
   vertex 0.0103057 0.00595 0.15
  endloop
 endfacet
 facet normal 0 0 -1
  outer loop
   vertex 0.0103057 0.00595 0.15
   vertex 0.00407004 0.0111823 0.15
   vertex 0.00455393 0.0109942 0.15
  endloop
 endfacet
 facet normal 0 0 -1
  outer loop
   vertex 0.00764917 0.00911593 0.15
   vertex 0.00549481 0.0105554 0.15
   vertex 0.00724426 0.0094409 0.15
  endloop
 endfacet
 facet normal 0 0 -1
  outer loop
   vertex 0.00549481 0.0105554 0.15
   vertex 0.00595 0.0103057 0.15
   vertex 0.00724426 0.0094409 0.15
  endloop
 endfacet
 facet normal 0 0 -1
  outer loop
   vertex 0.00724426 0.0094409 0.15
   vertex 0.00595 0.0103057 0.15
   vertex 0.00639387 0.0100364 0.15
  endloop
 endfacet
 facet normal -0 0 -1
  outer loop
   vertex 0.000519071 -0.0118887 0.15
   vertex 1.91367e-18 -0.0119 0.15
   vertex 0.0103057 0.00595 0.15
  endloop
 endfacet
 facet normal 0 0 -1
  outer loop
   vertex 1.91367e-18 -0.0119 0.15
   vertex -0.000179903 -0.0118627 0.15
   vertex 0.0103057 0.00595 0.15
  endloop
 endfacet
 facet normal 0 0 -1
  outer loop
   vertex 0.0103057 0.00595 0.15
   vertex -0.000179903 -0.0118627 0.15
   vertex -0.000367083 -0.0118161 0.15
  endloop
 endfacet
 facet normal 0 0 -1
  outer loop
   vertex -0.00622428 -0.00824801 0.15
   vertex -0.00698858 -0.00754955 0.15
   vertex 0.0103057 0.00595 0.15
  endloop
 endfacet
 facet normal 0 0 -1
  outer loop
   vertex -0.00698858 -0.00754955 0.15
   vertex -0.00772884 -0.00681336 0.15
   vertex 0.0103057 0.00595 0.15
  endloop
 endfacet
 facet normal 0 0 -1
  outer loop
   vertex 0.0103057 0.00595 0.15
   vertex -0.00772884 -0.00681336 0.15
   vertex -0.00834742 -0.00614553 0.15
  endloop
 endfacet
 facet normal 0 0 -1
  outer loop
   vertex -0.0118784 -8.32721e-05 0.15
   vertex -0.0119 -0 0.15
   vertex 0.0103057 0.00595 0.15
  endloop
 endfacet
 facet normal 0 0 -1
  outer loop
   vertex -0.0119 -0 0.15
   vertex -0.0118784 8.32721e-05 0.15
   vertex 0.0103057 0.00595 0.15
  endloop
 endfacet
 facet normal 0 0 -1
  outer loop
   vertex 0.0103057 0.00595 0.15
   vertex -0.0118784 8.32721e-05 0.15
   vertex -0.0117725 0.000454544 0.15
  endloop
 endfacet
 facet normal 0 0 -1
  outer loop
   vertex -0.0108489 -0.00263413 0.15
   vertex -0.0110973 -0.00214938 0.15
   vertex 0.0103057 0.00595 0.15
  endloop
 endfacet
 facet normal 0 0 -1
  outer loop
   vertex -0.0110973 -0.00214938 0.15
   vertex -0.01131 -0.00169098 0.15
   vertex 0.0103057 0.00595 0.15
  endloop
 endfacet
 facet normal 0 0 -1
  outer loop
   vertex 0.0103057 0.00595 0.15
   vertex -0.01131 -0.00169098 0.15
   vertex -0.0114911 -0.001257 0.15
  endloop
 endfacet
 facet normal 0 0 -1
  outer loop
   vertex -0.00772884 0.00681336 0.15
   vertex -0.00698858 0.00754955 0.15
   vertex 0.0103057 0.00595 0.15
  endloop
 endfacet
 facet normal 0 0 -1
  outer loop
   vertex -0.00698858 0.00754955 0.15
   vertex -0.00622428 0.00824801 0.15
   vertex 0.0103057 0.00595 0.15
  endloop
 endfacet
 facet normal 0 0 -1
  outer loop
   vertex 0.0103057 0.00595 0.15
   vertex -0.00622428 0.00824801 0.15
   vertex -0.00544963 0.00889938 0.15
  endloop
 endfacet
 facet normal 0 0 -1
  outer loop
   vertex -0.0114911 -0.001257 0.15
   vertex -0.0116442 -0.000845497 0.15
   vertex 0.0103057 0.00595 0.15
  endloop
 endfacet
 facet normal 0 0 -1
  outer loop
   vertex -0.0116442 -0.000845497 0.15
   vertex -0.0117725 -0.000454544 0.15
   vertex 0.0103057 0.00595 0.15
  endloop
 endfacet
 facet normal 0 0 -1
  outer loop
   vertex 0.0103057 0.00595 0.15
   vertex -0.0117725 -0.000454544 0.15
   vertex -0.0118784 -8.32721e-05 0.15
  endloop
 endfacet
 facet normal 0 0 -1
  outer loop
   vertex -0.0117725 0.000454544 0.15
   vertex -0.0116442 0.000845497 0.15
   vertex 0.0103057 0.00595 0.15
  endloop
 endfacet
 facet normal 0 0 -1
  outer loop
   vertex -0.0116442 0.000845497 0.15
   vertex -0.0114911 0.001257 0.15
   vertex 0.0103057 0.00595 0.15
  endloop
 endfacet
 facet normal 0 0 -1
  outer loop
   vertex 0.0103057 0.00595 0.15
   vertex -0.0114911 0.001257 0.15
   vertex -0.01131 0.00169098 0.15
  endloop
 endfacet
 facet normal -0 0 1
  outer loop
   vertex -0.00182806 -0.0112538 -0.15
   vertex -0.00144598 -0.0114291 -0.15
   vertex 0.0103057 -0.00595 -0.15
  endloop
 endfacet
 facet normal 0 0 1
  outer loop
   vertex -0.00111564 0.011566 -0.15
   vertex -0.00144598 0.0114291 -0.15
   vertex 0.0103057 -0.00595 -0.15
  endloop
 endfacet
 facet normal 0 0 1
  outer loop
   vertex -0.00144598 0.0114291 -0.15
   vertex -0.00182806 0.0112538 -0.15
   vertex 0.0103057 -0.00595 -0.15
  endloop
 endfacet
 facet normal 0 0 1
  outer loop
   vertex 0.0103057 -0.00595 -0.15
   vertex -0.00182806 0.0112538 -0.15
   vertex -0.00226904 0.0110313 -0.15
  endloop
 endfacet
 facet normal 0 0 1
  outer loop
   vertex -0.000367083 0.0118161 -0.15
   vertex -0.000582393 0.0117539 -0.15
   vertex 0.0103057 -0.00595 -0.15
  endloop
 endfacet
 facet normal 0 0 1
  outer loop
   vertex -0.000582393 0.0117539 -0.15
   vertex -0.000829966 0.0116722 -0.15
   vertex 0.0103057 -0.00595 -0.15
  endloop
 endfacet
 facet normal 0 0 1
  outer loop
   vertex 0.0103057 -0.00595 -0.15
   vertex -0.000829966 0.0116722 -0.15
   vertex -0.00111564 0.011566 -0.15
  endloop
 endfacet
 facet normal -0 0 1
  outer loop
   vertex -0.00335022 -0.0104051 -0.15
   vertex -0.00277514 -0.0107517 -0.15
   vertex 0.0103057 -0.00595 -0.15
  endloop
 endfacet
 facet normal -0 0 1
  outer loop
   vertex -0.00277514 -0.0107517 -0.15
   vertex -0.00226904 -0.0110313 -0.15
   vertex 0.0103057 -0.00595 -0.15
  endloop
 endfacet
 facet normal 0 0 1
  outer loop
   vertex 0.0103057 -0.00595 -0.15
   vertex -0.00226904 -0.0110313 -0.15
   vertex -0.00182806 -0.0112538 -0.15
  endloop
 endfacet
 facet normal -0 0 1
  outer loop
   vertex -0.00144598 -0.0114291 -0.15
   vertex -0.00111564 -0.011566 -0.15
   vertex 0.0103057 -0.00595 -0.15
  endloop
 endfacet
 facet normal -0 0 1
  outer loop
   vertex -0.00111564 -0.011566 -0.15
   vertex -0.000829966 -0.0116722 -0.15
   vertex 0.0103057 -0.00595 -0.15
  endloop
 endfacet
 facet normal 0 0 1
  outer loop
   vertex 0.0103057 -0.00595 -0.15
   vertex -0.000829966 -0.0116722 -0.15
   vertex -0.000582393 -0.0117539 -0.15
  endloop
 endfacet
 facet normal 0 0 1
  outer loop
   vertex -0.00226904 0.0110313 -0.15
   vertex -0.00277514 0.0107517 -0.15
   vertex 0.0103057 -0.00595 -0.15
  endloop
 endfacet
 facet normal 0 0 1
  outer loop
   vertex -0.00277514 0.0107517 -0.15
   vertex -0.00335022 0.0104051 -0.15
   vertex 0.0103057 -0.00595 -0.15
  endloop
 endfacet
 facet normal 0 0 1
  outer loop
   vertex 0.0103057 -0.00595 -0.15
   vertex -0.00335022 0.0104051 -0.15
   vertex -0.00399372 0.00998308 -0.15
  endloop
 endfacet
 facet normal 0 0 1
  outer loop
   vertex 0.00502916 0.0107851 -0.15
   vertex 0.00455393 0.0109942 -0.15
   vertex 0.0103057 -0.00595 -0.15
  endloop
 endfacet
 facet normal -0 0 1
  outer loop
   vertex -0.000582393 -0.0117539 -0.15
   vertex -0.000367083 -0.0118161 -0.15
   vertex 0.0103057 -0.00595 -0.15
  endloop
 endfacet
 facet normal -0 0 1
  outer loop
   vertex -0.000367083 -0.0118161 -0.15
   vertex -0.000179903 -0.0118627 -0.15
   vertex 0.0103057 -0.00595 -0.15
  endloop
 endfacet
 facet normal 0 0 1
  outer loop
   vertex 0.0103057 -0.00595 -0.15
   vertex -0.000179903 -0.0118627 -0.15
   vertex 0.0100364 -0.00639387 -0.15
  endloop
 endfacet
 facet normal 0 0 1
  outer loop
   vertex -0.00834742 0.00614553 -0.15
   vertex -0.00890609 0.00549299 -0.15
   vertex 0.0103057 -0.00595 -0.15
  endloop
 endfacet
 facet normal 0 0 1
  outer loop
   vertex -0.00890609 0.00549299 -0.15
   vertex -0.00940378 0.00486346 -0.15
   vertex 0.0103057 -0.00595 -0.15
  endloop
 endfacet
 facet normal 0 0 1
  outer loop
   vertex 0.0103057 -0.00595 -0.15
   vertex -0.00940378 0.00486346 -0.15
   vertex -0.00984261 0.00426148 -0.15
  endloop
 endfacet
 facet normal 0 0 1
  outer loop
   vertex 0.00155326 0.0117982 -0.15
   vertex 0.00103715 0.0118547 -0.15
   vertex 0.0103057 -0.00595 -0.15
  endloop
 endfacet
 facet normal 0 0 1
  outer loop
   vertex 0.00103715 0.0118547 -0.15
   vertex 0.000519071 0.0118887 -0.15
   vertex 0.0103057 -0.00595 -0.15
  endloop
 endfacet
 facet normal 0 0 1
  outer loop
   vertex 0.000519071 0.0118887 -0.15
   vertex 2.18599e-18 0.0119 -0.15
   vertex 0.0103057 -0.00595 -0.15
  endloop
 endfacet
 facet normal 0 0 1
  outer loop
   vertex 2.18599e-18 0.0119 -0.15
   vertex -0.000179903 0.0118627 -0.15
   vertex 0.0103057 -0.00595 -0.15
  endloop
 endfacet
 facet normal 0 0 1
  outer loop
   vertex 0.0103057 -0.00595 -0.15
   vertex -0.000179903 0.0118627 -0.15
   vertex -0.000367083 0.0118161 -0.15
  endloop
 endfacet
 facet normal 0 0 1
  outer loop
   vertex -0.0105602 -0.00314693 -0.15
   vertex -0.0102265 -0.00368916 -0.15
   vertex 0.0103057 -0.00595 -0.15
  endloop
 endfacet
 facet normal 0 0 1
  outer loop
   vertex -0.0102265 -0.00368916 -0.15
   vertex -0.00984261 -0.00426148 -0.15
   vertex 0.0103057 -0.00595 -0.15
  endloop
 endfacet
 facet normal 0 0 1
  outer loop
   vertex 0.0103057 -0.00595 -0.15
   vertex -0.00984261 -0.00426148 -0.15
   vertex -0.00940378 -0.00486346 -0.15
  endloop
 endfacet
 facet normal 0 0 1
  outer loop
   vertex -0.00984261 0.00426148 -0.15
   vertex -0.0102265 0.00368916 -0.15
   vertex 0.0103057 -0.00595 -0.15
  endloop
 endfacet
 facet normal 0 0 1
  outer loop
   vertex -0.0102265 0.00368916 -0.15
   vertex -0.0105602 0.00314693 -0.15
   vertex 0.0103057 -0.00595 -0.15
  endloop
 endfacet
 facet normal 0 0 1
  outer loop
   vertex 0.0103057 -0.00595 -0.15
   vertex -0.0105602 0.00314693 -0.15
   vertex -0.0108489 0.00263413 -0.15
  endloop
 endfacet
 facet normal -0 0 1
  outer loop
   vertex -0.00544963 -0.00889938 -0.15
   vertex -0.00469855 -0.00948075 -0.15
   vertex 0.0103057 -0.00595 -0.15
  endloop
 endfacet
 facet normal -0 0 1
  outer loop
   vertex -0.00469855 -0.00948075 -0.15
   vertex -0.00399372 -0.00998308 -0.15
   vertex 0.0103057 -0.00595 -0.15
  endloop
 endfacet
 facet normal 0 0 1
  outer loop
   vertex 0.0103057 -0.00595 -0.15
   vertex -0.00399372 -0.00998308 -0.15
   vertex -0.00335022 -0.0104051 -0.15
  endloop
 endfacet
 facet normal 0 0 1
  outer loop
   vertex 0.00103715 -0.0118547 -0.15
   vertex 0.00155326 -0.0117982 -0.15
   vertex 0.00974791 -0.00682556 -0.15
  endloop
 endfacet
 facet normal 0 -0 1
  outer loop
   vertex 0.0105554 -0.00549481 -0.15
   vertex 0.0107851 -0.00502916 -0.15
   vertex 0.0103057 0.00595 -0.15
  endloop
 endfacet
 facet normal 0 -0 1
  outer loop
   vertex 0.0107851 -0.00502916 -0.15
   vertex 0.0109942 -0.00455393 -0.15
   vertex 0.0103057 0.00595 -0.15
  endloop
 endfacet
 facet normal 0 0 1
  outer loop
   vertex 0.0103057 0.00595 -0.15
   vertex 0.0109942 -0.00455393 -0.15
   vertex 0.0111823 -0.00407004 -0.15
  endloop
 endfacet
 facet normal 0 -0 1
  outer loop
   vertex 0.0116179 -0.00257563 -0.15
   vertex 0.0117192 -0.00206641 -0.15
   vertex 0.0103057 0.00595 -0.15
  endloop
 endfacet
 facet normal 0 -0 1
  outer loop
   vertex 0.0117192 -0.00206641 -0.15
   vertex 0.0117982 -0.00155326 -0.15
   vertex 0.0103057 0.00595 -0.15
  endloop
 endfacet
 facet normal 0 0 1
  outer loop
   vertex 0.0103057 0.00595 -0.15
   vertex 0.0117982 -0.00155326 -0.15
   vertex 0.0118547 -0.00103715 -0.15
  endloop
 endfacet
 facet normal 0 0 1
  outer loop
   vertex 0.0118547 -0.00103715 -0.15
   vertex 0.0111823 0.00407004 -0.15
   vertex 0.0109942 0.00455393 -0.15
  endloop
 endfacet
 facet normal 0 0 1
  outer loop
   vertex 0.0105554 -0.00549481 -0.15
   vertex 0.0103057 0.00595 -0.15
   vertex 0.0103057 -0.00595 -0.15
  endloop
 endfacet
 facet normal 0 0 1
  outer loop
   vertex 0.0103057 0.00595 -0.15
   vertex 0.0100364 0.00639387 -0.15
   vertex 0.0103057 -0.00595 -0.15
  endloop
 endfacet
 facet normal 0 0 1
  outer loop
   vertex 0.0103057 -0.00595 -0.15
   vertex 0.0100364 0.00639387 -0.15
   vertex 0.00974791 0.00682556 -0.15
  endloop
 endfacet
 facet normal 0 0 1
  outer loop
   vertex 0.00974791 0.00682556 -0.15
   vertex 0.0094409 0.00724426 -0.15
   vertex 0.0103057 -0.00595 -0.15
  endloop
 endfacet
 facet normal 0 0 1
  outer loop
   vertex 0.0094409 0.00724426 -0.15
   vertex 0.00911593 0.00764917 -0.15
   vertex 0.0103057 -0.00595 -0.15
  endloop
 endfacet
 facet normal 0 0 1
  outer loop
   vertex 0.0103057 -0.00595 -0.15
   vertex 0.00911593 0.00764917 -0.15
   vertex 0.0087736 0.00803952 -0.15
  endloop
 endfacet
 facet normal 0 0 1
  outer loop
   vertex 0.0087736 0.00803952 -0.15
   vertex 0.00841457 0.00841457 -0.15
   vertex 0.0103057 -0.00595 -0.15
  endloop
 endfacet
 facet normal 0 0 1
  outer loop
   vertex 0.00841457 0.00841457 -0.15
   vertex 0.00803952 0.0087736 -0.15
   vertex 0.0103057 -0.00595 -0.15
  endloop
 endfacet
 facet normal 0 0 1
  outer loop
   vertex 0.0103057 -0.00595 -0.15
   vertex 0.00803952 0.0087736 -0.15
   vertex 0.00764917 0.00911593 -0.15
  endloop
 endfacet
 facet normal 0 0 1
  outer loop
   vertex 0.00455393 0.0109942 -0.15
   vertex 0.00407004 0.0111823 -0.15
   vertex 0.0103057 -0.00595 -0.15
  endloop
 endfacet
 facet normal 0 0 1
  outer loop
   vertex 0.00407004 0.0111823 -0.15
   vertex 0.0035784 0.0113492 -0.15
   vertex 0.0103057 -0.00595 -0.15
  endloop
 endfacet
 facet normal 0 0 1
  outer loop
   vertex 0.0103057 -0.00595 -0.15
   vertex 0.0035784 0.0113492 -0.15
   vertex 0.00307995 0.0114945 -0.15
  endloop
 endfacet
 facet normal 0 0 1
  outer loop
   vertex 0.00307995 0.0114945 -0.15
   vertex 0.00257563 0.0116179 -0.15
   vertex 0.0103057 -0.00595 -0.15
  endloop
 endfacet
 facet normal 0 0 1
  outer loop
   vertex 0.00257563 0.0116179 -0.15
   vertex 0.00206641 0.0117192 -0.15
   vertex 0.0103057 -0.00595 -0.15
  endloop
 endfacet
 facet normal 0 0 1
  outer loop
   vertex 0.0103057 -0.00595 -0.15
   vertex 0.00206641 0.0117192 -0.15
   vertex 0.00155326 0.0117982 -0.15
  endloop
 endfacet
 facet normal 0 -0 1
  outer loop
   vertex 0.00103715 -0.0118547 -0.15
   vertex 0.00974791 -0.00682556 -0.15
   vertex 0.000519071 -0.0118887 -0.15
  endloop
 endfacet
 facet normal 0 0 1
  outer loop
   vertex 0.00155326 -0.0117982 -0.15
   vertex 0.00206641 -0.0117192 -0.15
   vertex 0.00974791 -0.00682556 -0.15
  endloop
 endfacet
 facet normal 0 0 1
  outer loop
   vertex 0.00206641 -0.0117192 -0.15
   vertex 0.00257563 -0.0116179 -0.15
   vertex 0.00974791 -0.00682556 -0.15
  endloop
 endfacet
 facet normal 0 0 1
  outer loop
   vertex 0.00974791 -0.00682556 -0.15
   vertex 0.00257563 -0.0116179 -0.15
   vertex 0.00307995 -0.0114945 -0.15
  endloop
 endfacet
 facet normal 0 0 1
  outer loop
   vertex 0.00307995 -0.0114945 -0.15
   vertex 0.0035784 -0.0113492 -0.15
   vertex 0.00974791 -0.00682556 -0.15
  endloop
 endfacet
 facet normal 0 0 1
  outer loop
   vertex 0.0035784 -0.0113492 -0.15
   vertex 0.00407004 -0.0111823 -0.15
   vertex 0.00974791 -0.00682556 -0.15
  endloop
 endfacet
 facet normal 0 0 1
  outer loop
   vertex 0.00974791 -0.00682556 -0.15
   vertex 0.00407004 -0.0111823 -0.15
   vertex 0.00455393 -0.0109942 -0.15
  endloop
 endfacet
 facet normal 0 -0 1
  outer loop
   vertex 0.0111823 -0.00407004 -0.15
   vertex 0.0113492 -0.0035784 -0.15
   vertex 0.0103057 0.00595 -0.15
  endloop
 endfacet
 facet normal 0 -0 1
  outer loop
   vertex 0.0113492 -0.0035784 -0.15
   vertex 0.0114945 -0.00307995 -0.15
   vertex 0.0103057 0.00595 -0.15
  endloop
 endfacet
 facet normal 0 0 1
  outer loop
   vertex 0.0103057 0.00595 -0.15
   vertex 0.0114945 -0.00307995 -0.15
   vertex 0.0116179 -0.00257563 -0.15
  endloop
 endfacet
 facet normal 0 0 1
  outer loop
   vertex 0.00764917 0.00911593 -0.15
   vertex 0.00724426 0.0094409 -0.15
   vertex 0.0103057 -0.00595 -0.15
  endloop
 endfacet
 facet normal 0 0 1
  outer loop
   vertex 0.00724426 0.0094409 -0.15
   vertex 0.00682556 0.00974791 -0.15
   vertex 0.0103057 -0.00595 -0.15
  endloop
 endfacet
 facet normal 0 0 1
  outer loop
   vertex 0.0103057 -0.00595 -0.15
   vertex 0.00682556 0.00974791 -0.15
   vertex 0.00639387 0.0100364 -0.15
  endloop
 endfacet
 facet normal 0 0 1
  outer loop
   vertex 0.00639387 0.0100364 -0.15
   vertex 0.00595 0.0103057 -0.15
   vertex 0.0103057 -0.00595 -0.15
  endloop
 endfacet
 facet normal 0 0 1
  outer loop
   vertex 0.00595 0.0103057 -0.15
   vertex 0.00549481 0.0105554 -0.15
   vertex 0.0103057 -0.00595 -0.15
  endloop
 endfacet
 facet normal 0 0 1
  outer loop
   vertex 0.0103057 -0.00595 -0.15
   vertex 0.00549481 0.0105554 -0.15
   vertex 0.00502916 0.0107851 -0.15
  endloop
 endfacet
 facet normal 0 0 1
  outer loop
   vertex -0.00399372 0.00998308 -0.15
   vertex -0.00469855 0.00948075 -0.15
   vertex 0.0103057 -0.00595 -0.15
  endloop
 endfacet
 facet normal 0 0 1
  outer loop
   vertex -0.00469855 0.00948075 -0.15
   vertex -0.00544963 0.00889938 -0.15
   vertex 0.0103057 -0.00595 -0.15
  endloop
 endfacet
 facet normal 0 0 1
  outer loop
   vertex 0.0103057 -0.00595 -0.15
   vertex -0.00544963 0.00889938 -0.15
   vertex -0.00622428 0.00824801 -0.15
  endloop
 endfacet
 facet normal 0 0 1
  outer loop
   vertex -0.01131 -0.00169098 -0.15
   vertex -0.0110973 -0.00214938 -0.15
   vertex 0.0103057 -0.00595 -0.15
  endloop
 endfacet
 facet normal 0 0 1
  outer loop
   vertex -0.0110973 -0.00214938 -0.15
   vertex -0.0108489 -0.00263413 -0.15
   vertex 0.0103057 -0.00595 -0.15
  endloop
 endfacet
 facet normal 0 0 1
  outer loop
   vertex 0.0103057 -0.00595 -0.15
   vertex -0.0108489 -0.00263413 -0.15
   vertex -0.0105602 -0.00314693 -0.15
  endloop
 endfacet
 facet normal 0 0 1
  outer loop
   vertex -0.00940378 -0.00486346 -0.15
   vertex -0.00890609 -0.00549299 -0.15
   vertex 0.0103057 -0.00595 -0.15
  endloop
 endfacet
 facet normal 0 0 1
  outer loop
   vertex -0.00890609 -0.00549299 -0.15
   vertex -0.00834742 -0.00614553 -0.15
   vertex 0.0103057 -0.00595 -0.15
  endloop
 endfacet
 facet normal 0 0 1
  outer loop
   vertex 0.0103057 -0.00595 -0.15
   vertex -0.00834742 -0.00614553 -0.15
   vertex -0.00772884 -0.00681336 -0.15
  endloop
 endfacet
 facet normal 0 0 1
  outer loop
   vertex 0.00455393 -0.0109942 -0.15
   vertex 0.00502916 -0.0107851 -0.15
   vertex 0.00974791 -0.00682556 -0.15
  endloop
 endfacet
 facet normal 0 0 1
  outer loop
   vertex 0.00502916 -0.0107851 -0.15
   vertex 0.00549481 -0.0105554 -0.15
   vertex 0.00974791 -0.00682556 -0.15
  endloop
 endfacet
 facet normal 0 0 1
  outer loop
   vertex 0.00974791 -0.00682556 -0.15
   vertex 0.00549481 -0.0105554 -0.15
   vertex 0.00595 -0.0103057 -0.15
  endloop
 endfacet
 facet normal 0 0 1
  outer loop
   vertex 0.00595 -0.0103057 -0.15
   vertex 0.00639387 -0.0100364 -0.15
   vertex 0.00974791 -0.00682556 -0.15
  endloop
 endfacet
 facet normal 0 0 1
  outer loop
   vertex 0.00639387 -0.0100364 -0.15
   vertex 0.00682556 -0.00974791 -0.15
   vertex 0.00974791 -0.00682556 -0.15
  endloop
 endfacet
 facet normal 0 0 1
  outer loop
   vertex 0.00974791 -0.00682556 -0.15
   vertex 0.00682556 -0.00974791 -0.15
   vertex 0.0094409 -0.00724426 -0.15
  endloop
 endfacet
 facet normal 0 0 1
  outer loop
   vertex 0.0109942 0.00455393 -0.15
   vertex 0.0107851 0.00502916 -0.15
   vertex 0.0118547 -0.00103715 -0.15
  endloop
 endfacet
 facet normal 0 0 1
  outer loop
   vertex 0.0107851 0.00502916 -0.15
   vertex 0.0105554 0.00549481 -0.15
   vertex 0.0118547 -0.00103715 -0.15
  endloop
 endfacet
 facet normal 0 0 1
  outer loop
   vertex 0.0118547 -0.00103715 -0.15
   vertex 0.0105554 0.00549481 -0.15
   vertex 0.0103057 0.00595 -0.15
  endloop
 endfacet
 facet normal 0 0 1
  outer loop
   vertex -0.00622428 0.00824801 -0.15
   vertex -0.00698858 0.00754955 -0.15
   vertex 0.0103057 -0.00595 -0.15
  endloop
 endfacet
 facet normal 0 0 1
  outer loop
   vertex -0.00698858 0.00754955 -0.15
   vertex -0.00772884 0.00681336 -0.15
   vertex 0.0103057 -0.00595 -0.15
  endloop
 endfacet
 facet normal 0 0 1
  outer loop
   vertex 0.0103057 -0.00595 -0.15
   vertex -0.00772884 0.00681336 -0.15
   vertex -0.00834742 0.00614553 -0.15
  endloop
 endfacet
 facet normal 0 0 1
  outer loop
   vertex -0.0118784 8.32721e-05 -0.15
   vertex -0.0119 -0 -0.15
   vertex 0.0103057 -0.00595 -0.15
  endloop
 endfacet
 facet normal 0 0 1
  outer loop
   vertex -0.0119 -0 -0.15
   vertex -0.0118784 -8.32721e-05 -0.15
   vertex 0.0103057 -0.00595 -0.15
  endloop
 endfacet
 facet normal 0 0 1
  outer loop
   vertex 0.0103057 -0.00595 -0.15
   vertex -0.0118784 -8.32721e-05 -0.15
   vertex -0.0117725 -0.000454544 -0.15
  endloop
 endfacet
 facet normal 0 0 1
  outer loop
   vertex 0.0100364 -0.00639387 -0.15
   vertex -0.000179903 -0.0118627 -0.15
   vertex 0.00974791 -0.00682556 -0.15
  endloop
 endfacet
 facet normal -0 0 1
  outer loop
   vertex -0.000179903 -0.0118627 -0.15
   vertex 1.91367e-18 -0.0119 -0.15
   vertex 0.00974791 -0.00682556 -0.15
  endloop
 endfacet
 facet normal 0 0 1
  outer loop
   vertex 0.00974791 -0.00682556 -0.15
   vertex 1.91367e-18 -0.0119 -0.15
   vertex 0.000519071 -0.0118887 -0.15
  endloop
 endfacet
 facet normal 0 -0 1
  outer loop
   vertex 0.00724426 -0.0094409 -0.15
   vertex 0.0087736 -0.00803952 -0.15
   vertex 0.00682556 -0.00974791 -0.15
  endloop
 endfacet
 facet normal 0 -0 1
  outer loop
   vertex 0.0087736 -0.00803952 -0.15
   vertex 0.00911593 -0.00764917 -0.15
   vertex 0.00682556 -0.00974791 -0.15
  endloop
 endfacet
 facet normal 0 0 1
  outer loop
   vertex 0.00682556 -0.00974791 -0.15
   vertex 0.00911593 -0.00764917 -0.15
   vertex 0.0094409 -0.00724426 -0.15
  endloop
 endfacet
 facet normal 0 0 1
  outer loop
   vertex 0.00724426 -0.0094409 -0.15
   vertex 0.00764917 -0.00911593 -0.15
   vertex 0.0087736 -0.00803952 -0.15
  endloop
 endfacet
 facet normal 0 0 1
  outer loop
   vertex 0.00764917 -0.00911593 -0.15
   vertex 0.00803952 -0.0087736 -0.15
   vertex 0.0087736 -0.00803952 -0.15
  endloop
 endfacet
 facet normal 0 0 1
  outer loop
   vertex 0.0087736 -0.00803952 -0.15
   vertex 0.00803952 -0.0087736 -0.15
   vertex 0.00841457 -0.00841457 -0.15
  endloop
 endfacet
 facet normal 0 -0 1
  outer loop
   vertex 0.0118547 -0.00103715 -0.15
   vertex 0.0118887 -0.000519071 -0.15
   vertex 0.0111823 0.00407004 -0.15
  endloop
 endfacet
 facet normal 0 -0 1
  outer loop
   vertex 0.0118887 -0.000519071 -0.15
   vertex 0.0119 2.91466e-18 -0.15
   vertex 0.0111823 0.00407004 -0.15
  endloop
 endfacet
 facet normal 0 0 1
  outer loop
   vertex 0.0111823 0.00407004 -0.15
   vertex 0.0119 2.91466e-18 -0.15
   vertex 0.0118887 0.000519071 -0.15
  endloop
 endfacet
 facet normal 0 0 1
  outer loop
   vertex 0.0118887 0.000519071 -0.15
   vertex 0.0118547 0.00103715 -0.15
   vertex 0.0111823 0.00407004 -0.15
  endloop
 endfacet
 facet normal 0 0 1
  outer loop
   vertex 0.0118547 0.00103715 -0.15
   vertex 0.0117982 0.00155326 -0.15
   vertex 0.0111823 0.00407004 -0.15
  endloop
 endfacet
 facet normal 0 0 1
  outer loop
   vertex 0.0111823 0.00407004 -0.15
   vertex 0.0117982 0.00155326 -0.15
   vertex 0.0117192 0.00206641 -0.15
  endloop
 endfacet
 facet normal 0 0 1
  outer loop
   vertex 0.0117192 0.00206641 -0.15
   vertex 0.0116179 0.00257563 -0.15
   vertex 0.0111823 0.00407004 -0.15
  endloop
 endfacet
 facet normal 0 0 1
  outer loop
   vertex 0.0116179 0.00257563 -0.15
   vertex 0.0114945 0.00307995 -0.15
   vertex 0.0111823 0.00407004 -0.15
  endloop
 endfacet
 facet normal 0 0 1
  outer loop
   vertex 0.0111823 0.00407004 -0.15
   vertex 0.0114945 0.00307995 -0.15
   vertex 0.0113492 0.0035784 -0.15
  endloop
 endfacet
 facet normal 0 0 1
  outer loop
   vertex -0.0108489 0.00263413 -0.15
   vertex -0.0110973 0.00214938 -0.15
   vertex 0.0103057 -0.00595 -0.15
  endloop
 endfacet
 facet normal 0 0 1
  outer loop
   vertex -0.0110973 0.00214938 -0.15
   vertex -0.01131 0.00169098 -0.15
   vertex 0.0103057 -0.00595 -0.15
  endloop
 endfacet
 facet normal 0 0 1
  outer loop
   vertex 0.0103057 -0.00595 -0.15
   vertex -0.01131 0.00169098 -0.15
   vertex -0.0114911 0.001257 -0.15
  endloop
 endfacet
 facet normal -0 0 1
  outer loop
   vertex -0.00772884 -0.00681336 -0.15
   vertex -0.00698858 -0.00754955 -0.15
   vertex 0.0103057 -0.00595 -0.15
  endloop
 endfacet
 facet normal -0 0 1
  outer loop
   vertex -0.00698858 -0.00754955 -0.15
   vertex -0.00622428 -0.00824801 -0.15
   vertex 0.0103057 -0.00595 -0.15
  endloop
 endfacet
 facet normal 0 0 1
  outer loop
   vertex 0.0103057 -0.00595 -0.15
   vertex -0.00622428 -0.00824801 -0.15
   vertex -0.00544963 -0.00889938 -0.15
  endloop
 endfacet
 facet normal 0 0 1
  outer loop
   vertex -0.0114911 0.001257 -0.15
   vertex -0.0116442 0.000845497 -0.15
   vertex 0.0103057 -0.00595 -0.15
  endloop
 endfacet
 facet normal 0 0 1
  outer loop
   vertex -0.0116442 0.000845497 -0.15
   vertex -0.0117725 0.000454544 -0.15
   vertex 0.0103057 -0.00595 -0.15
  endloop
 endfacet
 facet normal 0 0 1
  outer loop
   vertex 0.0103057 -0.00595 -0.15
   vertex -0.0117725 0.000454544 -0.15
   vertex -0.0118784 8.32721e-05 -0.15
  endloop
 endfacet
 facet normal 0 0 1
  outer loop
   vertex -0.0117725 -0.000454544 -0.15
   vertex -0.0116442 -0.000845497 -0.15
   vertex 0.0103057 -0.00595 -0.15
  endloop
 endfacet
 facet normal 0 0 1
  outer loop
   vertex -0.0116442 -0.000845497 -0.15
   vertex -0.0114911 -0.001257 -0.15
   vertex 0.0103057 -0.00595 -0.15
  endloop
 endfacet
 facet normal 0 0 1
  outer loop
   vertex 0.0103057 -0.00595 -0.15
   vertex -0.0114911 -0.001257 -0.15
   vertex -0.01131 -0.00169098 -0.15
  endloop
 endfacet
 facet normal 0.967966 0.251083 -0
  outer loop
   vertex -0.0119 -0 -0.15
   vertex -0.0119 -0 0.15
   vertex -0.0118784 -8.32721e-05 0.15
  endloop
 endfacet
 facet normal 0.967966 0.251083 0
  outer loop
   vertex -0.0119 -0 -0.15
   vertex -0.0118784 -8.32721e-05 0.15
   vertex -0.0118784 -8.32721e-05 -0.15
  endloop
 endfacet
 facet normal 0.961646 0.274295 0
  outer loop
   vertex -0.0118784 -8.32721e-05 0.15
   vertex -0.0117725 -0.000454544 0.15
   vertex -0.0118784 -8.32721e-05 -0.15
  endloop
 endfacet
 facet normal 0.961646 0.274295 0
  outer loop
   vertex -0.0118784 -8.32721e-05 -0.15
   vertex -0.0117725 -0.000454544 0.15
   vertex -0.0117725 -0.000454544 -0.15
  endloop
 endfacet
 facet normal 0.950144 0.311811 0
  outer loop
   vertex -0.0117725 -0.000454544 0.15
   vertex -0.0116442 -0.000845497 0.15
   vertex -0.0117725 -0.000454544 -0.15
  endloop
 endfacet
 facet normal 0.950144 0.311811 0
  outer loop
   vertex -0.0117725 -0.000454544 -0.15
   vertex -0.0116442 -0.000845497 0.15
   vertex -0.0116442 -0.000845497 -0.15
  endloop
 endfacet
 facet normal 0.937235 0.348699 0
  outer loop
   vertex -0.0116442 -0.000845497 0.15
   vertex -0.0114911 -0.001257 0.15
   vertex -0.0116442 -0.000845497 -0.15
  endloop
 endfacet
 facet normal 0.937235 0.348699 0
  outer loop
   vertex -0.0116442 -0.000845497 -0.15
   vertex -0.0114911 -0.001257 0.15
   vertex -0.0114911 -0.001257 -0.15
  endloop
 endfacet
 facet normal 0.922869 0.385114 0
  outer loop
   vertex -0.0114911 -0.001257 0.15
   vertex -0.01131 -0.00169098 0.15
   vertex -0.0114911 -0.001257 -0.15
  endloop
 endfacet
 facet normal 0.922869 0.385114 0
  outer loop
   vertex -0.0114911 -0.001257 -0.15
   vertex -0.01131 -0.00169098 0.15
   vertex -0.01131 -0.00169098 -0.15
  endloop
 endfacet
 facet normal 0.907106 0.420902 0
  outer loop
   vertex -0.01131 -0.00169098 0.15
   vertex -0.0110973 -0.00214938 0.15
   vertex -0.01131 -0.00169098 -0.15
  endloop
 endfacet
 facet normal 0.907106 0.420902 0
  outer loop
   vertex -0.01131 -0.00169098 -0.15
   vertex -0.0110973 -0.00214938 0.15
   vertex -0.0110973 -0.00214938 -0.15
  endloop
 endfacet
 facet normal 0.889959 0.45604 0
  outer loop
   vertex -0.0110973 -0.00214938 0.15
   vertex -0.0108489 -0.00263413 0.15
   vertex -0.0110973 -0.00214938 -0.15
  endloop
 endfacet
 facet normal 0.889959 0.45604 0
  outer loop
   vertex -0.0110973 -0.00214938 -0.15
   vertex -0.0108489 -0.00263413 0.15
   vertex -0.0108489 -0.00263413 -0.15
  endloop
 endfacet
 facet normal 0.871393 0.490585 0
  outer loop
   vertex -0.0108489 -0.00263413 0.15
   vertex -0.0105602 -0.00314693 0.15
   vertex -0.0108489 -0.00263413 -0.15
  endloop
 endfacet
 facet normal 0.871393 0.490585 0
  outer loop
   vertex -0.0108489 -0.00263413 -0.15
   vertex -0.0105602 -0.00314693 0.15
   vertex -0.0105602 -0.00314693 -0.15
  endloop
 endfacet
 facet normal 0.851645 0.524119 0
  outer loop
   vertex -0.0105602 -0.00314693 0.15
   vertex -0.0102265 -0.00368916 0.15
   vertex -0.0105602 -0.00314693 -0.15
  endloop
 endfacet
 facet normal 0.851645 0.524119 0
  outer loop
   vertex -0.0105602 -0.00314693 -0.15
   vertex -0.0102265 -0.00368916 0.15
   vertex -0.0102265 -0.00368916 -0.15
  endloop
 endfacet
 facet normal 0.830477 0.557052 0
  outer loop
   vertex -0.0102265 -0.00368916 0.15
   vertex -0.00984261 -0.00426148 0.15
   vertex -0.0102265 -0.00368916 -0.15
  endloop
 endfacet
 facet normal 0.830477 0.557052 0
  outer loop
   vertex -0.0102265 -0.00368916 -0.15
   vertex -0.00984261 -0.00426148 0.15
   vertex -0.00984261 -0.00426148 -0.15
  endloop
 endfacet
 facet normal 0.80808 0.589072 0
  outer loop
   vertex -0.00984261 -0.00426148 0.15
   vertex -0.00940378 -0.00486346 0.15
   vertex -0.00984261 -0.00426148 -0.15
  endloop
 endfacet
 facet normal 0.80808 0.589072 0
  outer loop
   vertex -0.00984261 -0.00426148 -0.15
   vertex -0.00940378 -0.00486346 0.15
   vertex -0.00940378 -0.00486346 -0.15
  endloop
 endfacet
 facet normal 0.784462 0.620176 0
  outer loop
   vertex -0.00940378 -0.00486346 0.15
   vertex -0.00890609 -0.00549299 0.15
   vertex -0.00940378 -0.00486346 -0.15
  endloop
 endfacet
 facet normal 0.784462 0.620176 0
  outer loop
   vertex -0.00940378 -0.00486346 -0.15
   vertex -0.00890609 -0.00549299 0.15
   vertex -0.00890609 -0.00549299 -0.15
  endloop
 endfacet
 facet normal 0.759631 0.650355 0
  outer loop
   vertex -0.00890609 -0.00549299 0.15
   vertex -0.00834742 -0.00614553 0.15
   vertex -0.00890609 -0.00549299 -0.15
  endloop
 endfacet
 facet normal 0.759631 0.650355 0
  outer loop
   vertex -0.00890609 -0.00549299 -0.15
   vertex -0.00834742 -0.00614553 0.15
   vertex -0.00834742 -0.00614553 -0.15
  endloop
 endfacet
 facet normal 0.733641 0.679537 0
  outer loop
   vertex -0.00834742 -0.00614553 0.15
   vertex -0.00772884 -0.00681336 0.15
   vertex -0.00834742 -0.00614553 -0.15
  endloop
 endfacet
 facet normal 0.733641 0.679537 0
  outer loop
   vertex -0.00834742 -0.00614553 -0.15
   vertex -0.00772884 -0.00681336 0.15
   vertex -0.00772884 -0.00681336 -0.15
  endloop
 endfacet
 facet normal 0.705155 0.709053 0
  outer loop
   vertex -0.00772884 -0.00681336 0.15
   vertex -0.00698858 -0.00754955 0.15
   vertex -0.00772884 -0.00681336 -0.15
  endloop
 endfacet
 facet normal 0.705155 0.709053 0
  outer loop
   vertex -0.00772884 -0.00681336 -0.15
   vertex -0.00698858 -0.00754955 0.15
   vertex -0.00698858 -0.00754955 -0.15
  endloop
 endfacet
 facet normal 0.674596 0.738187 0
  outer loop
   vertex -0.00698858 -0.00754955 0.15
   vertex -0.00622428 -0.00824801 0.15
   vertex -0.00698858 -0.00754955 -0.15
  endloop
 endfacet
 facet normal 0.674596 0.738187 0
  outer loop
   vertex -0.00698858 -0.00754955 -0.15
   vertex -0.00622428 -0.00824801 0.15
   vertex -0.00622428 -0.00824801 -0.15
  endloop
 endfacet
 facet normal 0.643577 0.765381 0
  outer loop
   vertex -0.00622428 -0.00824801 0.15
   vertex -0.00544963 -0.00889938 0.15
   vertex -0.00622428 -0.00824801 -0.15
  endloop
 endfacet
 facet normal 0.643577 0.765381 0
  outer loop
   vertex -0.00622428 -0.00824801 -0.15
   vertex -0.00544963 -0.00889938 0.15
   vertex -0.00544963 -0.00889938 -0.15
  endloop
 endfacet
 facet normal 0.6121 0.790781 0
  outer loop
   vertex -0.00544963 -0.00889938 0.15
   vertex -0.00469855 -0.00948075 0.15
   vertex -0.00544963 -0.00889938 -0.15
  endloop
 endfacet
 facet normal 0.6121 0.790781 0
  outer loop
   vertex -0.00544963 -0.00889938 -0.15
   vertex -0.00469855 -0.00948075 0.15
   vertex -0.00469855 -0.00948075 -0.15
  endloop
 endfacet
 facet normal 0.580381 0.814345 0
  outer loop
   vertex -0.00469855 -0.00948075 0.15
   vertex -0.00399372 -0.00998308 0.15
   vertex -0.00469855 -0.00948075 -0.15
  endloop
 endfacet
 facet normal 0.580381 0.814345 0
  outer loop
   vertex -0.00469855 -0.00948075 -0.15
   vertex -0.00399372 -0.00998308 0.15
   vertex -0.00399372 -0.00998308 -0.15
  endloop
 endfacet
 facet normal 0.548405 0.836213 0
  outer loop
   vertex -0.00399372 -0.00998308 0.15
   vertex -0.00335022 -0.0104051 0.15
   vertex -0.00399372 -0.00998308 -0.15
  endloop
 endfacet
 facet normal 0.548405 0.836213 0
  outer loop
   vertex -0.00399372 -0.00998308 -0.15
   vertex -0.00335022 -0.0104051 0.15
   vertex -0.00335022 -0.0104051 -0.15
  endloop
 endfacet
 facet normal 0.516195 0.856471 0
  outer loop
   vertex -0.00335022 -0.0104051 0.15
   vertex -0.00277514 -0.0107517 0.15
   vertex -0.00335022 -0.0104051 -0.15
  endloop
 endfacet
 facet normal 0.516195 0.856471 0
  outer loop
   vertex -0.00335022 -0.0104051 -0.15
   vertex -0.00277514 -0.0107517 0.15
   vertex -0.00277514 -0.0107517 -0.15
  endloop
 endfacet
 facet normal 0.483571 0.875305 0
  outer loop
   vertex -0.00277514 -0.0107517 0.15
   vertex -0.00226904 -0.0110313 0.15
   vertex -0.00277514 -0.0107517 -0.15
  endloop
 endfacet
 facet normal 0.483571 0.875305 0
  outer loop
   vertex -0.00277514 -0.0107517 -0.15
   vertex -0.00226904 -0.0110313 0.15
   vertex -0.00226904 -0.0110313 -0.15
  endloop
 endfacet
 facet normal 0.450467 0.892793 0
  outer loop
   vertex -0.00226904 -0.0110313 0.15
   vertex -0.00182806 -0.0112538 0.15
   vertex -0.00226904 -0.0110313 -0.15
  endloop
 endfacet
 facet normal 0.450467 0.892793 0
  outer loop
   vertex -0.00226904 -0.0110313 -0.15
   vertex -0.00182806 -0.0112538 0.15
   vertex -0.00182806 -0.0112538 -0.15
  endloop
 endfacet
 facet normal 0.417009 0.908903 0
  outer loop
   vertex -0.00182806 -0.0112538 0.15
   vertex -0.00144598 -0.0114291 0.15
   vertex -0.00182806 -0.0112538 -0.15
  endloop
 endfacet
 facet normal 0.417009 0.908903 0
  outer loop
   vertex -0.00182806 -0.0112538 -0.15
   vertex -0.00144598 -0.0114291 0.15
   vertex -0.00144598 -0.0114291 -0.15
  endloop
 endfacet
 facet normal 0.382847 0.923812 0
  outer loop
   vertex -0.00144598 -0.0114291 0.15
   vertex -0.00111564 -0.011566 0.15
   vertex -0.00144598 -0.0114291 -0.15
  endloop
 endfacet
 facet normal 0.382847 0.923812 0
  outer loop
   vertex -0.00144598 -0.0114291 -0.15
   vertex -0.00111564 -0.011566 0.15
   vertex -0.00111564 -0.011566 -0.15
  endloop
 endfacet
 facet normal 0.348452 0.937327 0
  outer loop
   vertex -0.00111564 -0.011566 0.15
   vertex -0.000829966 -0.0116722 0.15
   vertex -0.00111564 -0.011566 -0.15
  endloop
 endfacet
 facet normal 0.348452 0.937327 0
  outer loop
   vertex -0.00111564 -0.011566 -0.15
   vertex -0.000829966 -0.0116722 0.15
   vertex -0.000829966 -0.0116722 -0.15
  endloop
 endfacet
 facet normal 0.313382 0.949627 0
  outer loop
   vertex -0.000829966 -0.0116722 0.15
   vertex -0.000582393 -0.0117539 0.15
   vertex -0.000829966 -0.0116722 -0.15
  endloop
 endfacet
 facet normal 0.313382 0.949627 0
  outer loop
   vertex -0.000829966 -0.0116722 -0.15
   vertex -0.000582393 -0.0117539 0.15
   vertex -0.000582393 -0.0117539 -0.15
  endloop
 endfacet
 facet normal 0.277538 0.960715 0
  outer loop
   vertex -0.000582393 -0.0117539 0.15
   vertex -0.000367083 -0.0118161 0.15
   vertex -0.000582393 -0.0117539 -0.15
  endloop
 endfacet
 facet normal 0.277538 0.960715 0
  outer loop
   vertex -0.000582393 -0.0117539 -0.15
   vertex -0.000367083 -0.0118161 0.15
   vertex -0.000367083 -0.0118161 -0.15
  endloop
 endfacet
 facet normal 0.241582 0.97038 0
  outer loop
   vertex -0.000367083 -0.0118161 0.15
   vertex -0.000179903 -0.0118627 0.15
   vertex -0.000367083 -0.0118161 -0.15
  endloop
 endfacet
 facet normal 0.241582 0.97038 0
  outer loop
   vertex -0.000367083 -0.0118161 -0.15
   vertex -0.000179903 -0.0118627 0.15
   vertex -0.000179903 -0.0118627 -0.15
  endloop
 endfacet
 facet normal 0.203018 0.979175 0
  outer loop
   vertex -0.000179903 -0.0118627 0.15
   vertex 1.91367e-18 -0.0119 0.15
   vertex -0.000179903 -0.0118627 -0.15
  endloop
 endfacet
 facet normal 0.203018 0.979175 0
  outer loop
   vertex -0.000179903 -0.0118627 -0.15
   vertex 1.91367e-18 -0.0119 0.15
   vertex 1.91367e-18 -0.0119 -0.15
  endloop
 endfacet
 facet normal -0.0217658 0.999763 0
  outer loop
   vertex 1.91367e-18 -0.0119 -0.15
   vertex 1.91367e-18 -0.0119 0.15
   vertex 0.000519071 -0.0118887 0.15
  endloop
 endfacet
 facet normal -0.0217658 0.999763 0
  outer loop
   vertex 1.91367e-18 -0.0119 -0.15
   vertex 0.000519071 -0.0118887 0.15
   vertex 0.000519071 -0.0118887 -0.15
  endloop
 endfacet
 facet normal -0.0654858 0.997854 0
  outer loop
   vertex 0.000519071 -0.0118887 0.15
   vertex 0.00103715 -0.0118547 0.15
   vertex 0.000519071 -0.0118887 -0.15
  endloop
 endfacet
 facet normal -0.0654858 0.997854 0
  outer loop
   vertex 0.000519071 -0.0118887 -0.15
   vertex 0.00103715 -0.0118547 0.15
   vertex 0.00103715 -0.0118547 -0.15
  endloop
 endfacet
 facet normal -0.108822 0.994061 0
  outer loop
   vertex 0.00103715 -0.0118547 0.15
   vertex 0.00155326 -0.0117982 0.15
   vertex 0.00103715 -0.0118547 -0.15
  endloop
 endfacet
 facet normal -0.108822 0.994061 0
  outer loop
   vertex 0.00103715 -0.0118547 -0.15
   vertex 0.00155326 -0.0117982 0.15
   vertex 0.00155326 -0.0117982 -0.15
  endloop
 endfacet
 facet normal -0.152159 0.988356 0
  outer loop
   vertex 0.00155326 -0.0117982 0.15
   vertex 0.00206641 -0.0117192 0.15
   vertex 0.00155326 -0.0117982 -0.15
  endloop
 endfacet
 facet normal -0.152159 0.988356 0
  outer loop
   vertex 0.00155326 -0.0117982 -0.15
   vertex 0.00206641 -0.0117192 0.15
   vertex 0.00206641 -0.0117192 -0.15
  endloop
 endfacet
 facet normal -0.195108 0.980782 0
  outer loop
   vertex 0.00206641 -0.0117192 0.15
   vertex 0.00257563 -0.0116179 0.15
   vertex 0.00206641 -0.0117192 -0.15
  endloop
 endfacet
 facet normal -0.195108 0.980782 0
  outer loop
   vertex 0.00206641 -0.0117192 -0.15
   vertex 0.00257563 -0.0116179 0.15
   vertex 0.00257563 -0.0116179 -0.15
  endloop
 endfacet
 facet normal -0.237675 0.971345 0
  outer loop
   vertex 0.00257563 -0.0116179 0.15
   vertex 0.00307995 -0.0114945 0.15
   vertex 0.00257563 -0.0116179 -0.15
  endloop
 endfacet
 facet normal -0.237675 0.971345 0
  outer loop
   vertex 0.00257563 -0.0116179 -0.15
   vertex 0.00307995 -0.0114945 0.15
   vertex 0.00307995 -0.0114945 -0.15
  endloop
 endfacet
 facet normal -0.279855 0.960042 0
  outer loop
   vertex 0.00307995 -0.0114945 0.15
   vertex 0.0035784 -0.0113492 0.15
   vertex 0.00307995 -0.0114945 -0.15
  endloop
 endfacet
 facet normal -0.279855 0.960042 0
  outer loop
   vertex 0.00307995 -0.0114945 -0.15
   vertex 0.0035784 -0.0113492 0.15
   vertex 0.0035784 -0.0113492 -0.15
  endloop
 endfacet
 facet normal -0.321459 0.946924 0
  outer loop
   vertex 0.0035784 -0.0113492 0.15
   vertex 0.00407004 -0.0111823 0.15
   vertex 0.0035784 -0.0113492 -0.15
  endloop
 endfacet
 facet normal -0.321459 0.946924 0
  outer loop
   vertex 0.0035784 -0.0113492 -0.15
   vertex 0.00407004 -0.0111823 0.15
   vertex 0.00407004 -0.0111823 -0.15
  endloop
 endfacet
 facet normal -0.362314 0.932056 0
  outer loop
   vertex 0.00407004 -0.0111823 0.15
   vertex 0.00455393 -0.0109942 0.15
   vertex 0.00407004 -0.0111823 -0.15
  endloop
 endfacet
 facet normal -0.362314 0.932056 0
  outer loop
   vertex 0.00407004 -0.0111823 -0.15
   vertex 0.00455393 -0.0109942 0.15
   vertex 0.00455393 -0.0109942 -0.15
  endloop
 endfacet
 facet normal -0.402736 0.915316 0
  outer loop
   vertex 0.00455393 -0.0109942 0.15
   vertex 0.00502916 -0.0107851 0.15
   vertex 0.00455393 -0.0109942 -0.15
  endloop
 endfacet
 facet normal -0.402736 0.915316 0
  outer loop
   vertex 0.00455393 -0.0109942 -0.15
   vertex 0.00502916 -0.0107851 0.15
   vertex 0.00502916 -0.0107851 -0.15
  endloop
 endfacet
 facet normal -0.442393 0.896821 0
  outer loop
   vertex 0.00502916 -0.0107851 0.15
   vertex 0.00549481 -0.0105554 0.15
   vertex 0.00502916 -0.0107851 -0.15
  endloop
 endfacet
 facet normal -0.442393 0.896821 0
  outer loop
   vertex 0.00502916 -0.0107851 -0.15
   vertex 0.00549481 -0.0105554 0.15
   vertex 0.00549481 -0.0105554 -0.15
  endloop
 endfacet
 facet normal -0.48095 0.876748 0
  outer loop
   vertex 0.00549481 -0.0105554 0.15
   vertex 0.00595 -0.0103057 0.15
   vertex 0.00549481 -0.0105554 -0.15
  endloop
 endfacet
 facet normal -0.48095 0.876748 0
  outer loop
   vertex 0.00549481 -0.0105554 -0.15
   vertex 0.00595 -0.0103057 0.15
   vertex 0.00595 -0.0103057 -0.15
  endloop
 endfacet
 facet normal -0.518708 0.854952 0
  outer loop
   vertex 0.00595 -0.0103057 0.15
   vertex 0.00639387 -0.0100364 0.15
   vertex 0.00595 -0.0103057 -0.15
  endloop
 endfacet
 facet normal -0.518708 0.854952 0
  outer loop
   vertex 0.00595 -0.0103057 -0.15
   vertex 0.00639387 -0.0100364 0.15
   vertex 0.00639387 -0.0100364 -0.15
  endloop
 endfacet
 facet normal -0.555628 0.831431 0
  outer loop
   vertex 0.00639387 -0.0100364 0.15
   vertex 0.00682556 -0.00974791 0.15
   vertex 0.00639387 -0.0100364 -0.15
  endloop
 endfacet
 facet normal -0.555628 0.831431 0
  outer loop
   vertex 0.00639387 -0.0100364 -0.15
   vertex 0.00682556 -0.00974791 0.15
   vertex 0.00682556 -0.00974791 -0.15
  endloop
 endfacet
 facet normal -0.591318 0.806438 0
  outer loop
   vertex 0.00682556 -0.00974791 0.15
   vertex 0.00724426 -0.0094409 0.15
   vertex 0.00682556 -0.00974791 -0.15
  endloop
 endfacet
 facet normal -0.591318 0.806438 0
  outer loop
   vertex 0.00682556 -0.00974791 -0.15
   vertex 0.00724426 -0.0094409 0.15
   vertex 0.00724426 -0.0094409 -0.15
  endloop
 endfacet
 facet normal -0.625918 0.779889 0
  outer loop
   vertex 0.00724426 -0.0094409 0.15
   vertex 0.00764917 -0.00911593 0.15
   vertex 0.00724426 -0.0094409 -0.15
  endloop
 endfacet
 facet normal -0.625918 0.779889 0
  outer loop
   vertex 0.00724426 -0.0094409 -0.15
   vertex 0.00764917 -0.00911593 0.15
   vertex 0.00764917 -0.00911593 -0.15
  endloop
 endfacet
 facet normal -0.659348 0.751838 0
  outer loop
   vertex 0.00764917 -0.00911593 0.15
   vertex 0.00803952 -0.0087736 0.15
   vertex 0.00764917 -0.00911593 -0.15
  endloop
 endfacet
 facet normal -0.659348 0.751838 0
  outer loop
   vertex 0.00764917 -0.00911593 -0.15
   vertex 0.00803952 -0.0087736 0.15
   vertex 0.00803952 -0.0087736 -0.15
  endloop
 endfacet
 facet normal -0.69151 0.722367 0
  outer loop
   vertex 0.00803952 -0.0087736 0.15
   vertex 0.00841457 -0.00841457 0.15
   vertex 0.00803952 -0.0087736 -0.15
  endloop
 endfacet
 facet normal -0.69151 0.722367 0
  outer loop
   vertex 0.00803952 -0.0087736 -0.15
   vertex 0.00841457 -0.00841457 0.15
   vertex 0.00841457 -0.00841457 -0.15
  endloop
 endfacet
 facet normal -0.722367 0.69151 0
  outer loop
   vertex 0.00841457 -0.00841457 0.15
   vertex 0.0087736 -0.00803952 0.15
   vertex 0.00841457 -0.00841457 -0.15
  endloop
 endfacet
 facet normal -0.722367 0.69151 0
  outer loop
   vertex 0.00841457 -0.00841457 -0.15
   vertex 0.0087736 -0.00803952 0.15
   vertex 0.0087736 -0.00803952 -0.15
  endloop
 endfacet
 facet normal -0.751838 0.659348 0
  outer loop
   vertex 0.0087736 -0.00803952 0.15
   vertex 0.00911593 -0.00764917 0.15
   vertex 0.0087736 -0.00803952 -0.15
  endloop
 endfacet
 facet normal -0.751838 0.659348 0
  outer loop
   vertex 0.0087736 -0.00803952 -0.15
   vertex 0.00911593 -0.00764917 0.15
   vertex 0.00911593 -0.00764917 -0.15
  endloop
 endfacet
 facet normal -0.779889 0.625918 0
  outer loop
   vertex 0.00911593 -0.00764917 0.15
   vertex 0.0094409 -0.00724426 0.15
   vertex 0.00911593 -0.00764917 -0.15
  endloop
 endfacet
 facet normal -0.779889 0.625918 0
  outer loop
   vertex 0.00911593 -0.00764917 -0.15
   vertex 0.0094409 -0.00724426 0.15
   vertex 0.0094409 -0.00724426 -0.15
  endloop
 endfacet
 facet normal -0.806438 0.591318 0
  outer loop
   vertex 0.0094409 -0.00724426 0.15
   vertex 0.00974791 -0.00682556 0.15
   vertex 0.0094409 -0.00724426 -0.15
  endloop
 endfacet
 facet normal -0.806438 0.591318 0
  outer loop
   vertex 0.0094409 -0.00724426 -0.15
   vertex 0.00974791 -0.00682556 0.15
   vertex 0.00974791 -0.00682556 -0.15
  endloop
 endfacet
 facet normal -0.831431 0.555628 0
  outer loop
   vertex 0.00974791 -0.00682556 0.15
   vertex 0.0100364 -0.00639387 0.15
   vertex 0.00974791 -0.00682556 -0.15
  endloop
 endfacet
 facet normal -0.831431 0.555628 0
  outer loop
   vertex 0.00974791 -0.00682556 -0.15
   vertex 0.0100364 -0.00639387 0.15
   vertex 0.0100364 -0.00639387 -0.15
  endloop
 endfacet
 facet normal -0.854952 0.518708 0
  outer loop
   vertex 0.0100364 -0.00639387 0.15
   vertex 0.0103057 -0.00595 0.15
   vertex 0.0100364 -0.00639387 -0.15
  endloop
 endfacet
 facet normal -0.854952 0.518708 0
  outer loop
   vertex 0.0100364 -0.00639387 -0.15
   vertex 0.0103057 -0.00595 0.15
   vertex 0.0103057 -0.00595 -0.15
  endloop
 endfacet
 facet normal -0.876748 0.48095 0
  outer loop
   vertex 0.0103057 -0.00595 0.15
   vertex 0.0105554 -0.00549481 0.15
   vertex 0.0103057 -0.00595 -0.15
  endloop
 endfacet
 facet normal -0.876748 0.48095 0
  outer loop
   vertex 0.0103057 -0.00595 -0.15
   vertex 0.0105554 -0.00549481 0.15
   vertex 0.0105554 -0.00549481 -0.15
  endloop
 endfacet
 facet normal -0.896821 0.442393 0
  outer loop
   vertex 0.0105554 -0.00549481 0.15
   vertex 0.0107851 -0.00502916 0.15
   vertex 0.0105554 -0.00549481 -0.15
  endloop
 endfacet
 facet normal -0.896821 0.442393 0
  outer loop
   vertex 0.0105554 -0.00549481 -0.15
   vertex 0.0107851 -0.00502916 0.15
   vertex 0.0107851 -0.00502916 -0.15
  endloop
 endfacet
 facet normal -0.915316 0.402736 0
  outer loop
   vertex 0.0107851 -0.00502916 0.15
   vertex 0.0109942 -0.00455393 0.15
   vertex 0.0107851 -0.00502916 -0.15
  endloop
 endfacet
 facet normal -0.915316 0.402736 0
  outer loop
   vertex 0.0107851 -0.00502916 -0.15
   vertex 0.0109942 -0.00455393 0.15
   vertex 0.0109942 -0.00455393 -0.15
  endloop
 endfacet
 facet normal -0.932056 0.362314 0
  outer loop
   vertex 0.0109942 -0.00455393 0.15
   vertex 0.0111823 -0.00407004 0.15
   vertex 0.0109942 -0.00455393 -0.15
  endloop
 endfacet
 facet normal -0.932056 0.362314 0
  outer loop
   vertex 0.0109942 -0.00455393 -0.15
   vertex 0.0111823 -0.00407004 0.15
   vertex 0.0111823 -0.00407004 -0.15
  endloop
 endfacet
 facet normal -0.946924 0.321459 0
  outer loop
   vertex 0.0111823 -0.00407004 0.15
   vertex 0.0113492 -0.0035784 0.15
   vertex 0.0111823 -0.00407004 -0.15
  endloop
 endfacet
 facet normal -0.946924 0.321459 0
  outer loop
   vertex 0.0111823 -0.00407004 -0.15
   vertex 0.0113492 -0.0035784 0.15
   vertex 0.0113492 -0.0035784 -0.15
  endloop
 endfacet
 facet normal -0.960042 0.279855 0
  outer loop
   vertex 0.0113492 -0.0035784 0.15
   vertex 0.0114945 -0.00307995 0.15
   vertex 0.0113492 -0.0035784 -0.15
  endloop
 endfacet
 facet normal -0.960042 0.279855 0
  outer loop
   vertex 0.0113492 -0.0035784 -0.15
   vertex 0.0114945 -0.00307995 0.15
   vertex 0.0114945 -0.00307995 -0.15
  endloop
 endfacet
 facet normal -0.971345 0.237675 0
  outer loop
   vertex 0.0114945 -0.00307995 0.15
   vertex 0.0116179 -0.00257563 0.15
   vertex 0.0114945 -0.00307995 -0.15
  endloop
 endfacet
 facet normal -0.971345 0.237675 0
  outer loop
   vertex 0.0114945 -0.00307995 -0.15
   vertex 0.0116179 -0.00257563 0.15
   vertex 0.0116179 -0.00257563 -0.15
  endloop
 endfacet
 facet normal -0.980782 0.195108 0
  outer loop
   vertex 0.0116179 -0.00257563 0.15
   vertex 0.0117192 -0.00206641 0.15
   vertex 0.0116179 -0.00257563 -0.15
  endloop
 endfacet
 facet normal -0.980782 0.195108 0
  outer loop
   vertex 0.0116179 -0.00257563 -0.15
   vertex 0.0117192 -0.00206641 0.15
   vertex 0.0117192 -0.00206641 -0.15
  endloop
 endfacet
 facet normal -0.988356 0.152159 0
  outer loop
   vertex 0.0117192 -0.00206641 0.15
   vertex 0.0117982 -0.00155326 0.15
   vertex 0.0117192 -0.00206641 -0.15
  endloop
 endfacet
 facet normal -0.988356 0.152159 0
  outer loop
   vertex 0.0117192 -0.00206641 -0.15
   vertex 0.0117982 -0.00155326 0.15
   vertex 0.0117982 -0.00155326 -0.15
  endloop
 endfacet
 facet normal -0.994061 0.108822 0
  outer loop
   vertex 0.0117982 -0.00155326 0.15
   vertex 0.0118547 -0.00103715 0.15
   vertex 0.0117982 -0.00155326 -0.15
  endloop
 endfacet
 facet normal -0.994061 0.108822 0
  outer loop
   vertex 0.0117982 -0.00155326 -0.15
   vertex 0.0118547 -0.00103715 0.15
   vertex 0.0118547 -0.00103715 -0.15
  endloop
 endfacet
 facet normal -0.997854 0.0654858 0
  outer loop
   vertex 0.0118547 -0.00103715 0.15
   vertex 0.0118887 -0.000519071 0.15
   vertex 0.0118547 -0.00103715 -0.15
  endloop
 endfacet
 facet normal -0.997854 0.0654858 0
  outer loop
   vertex 0.0118547 -0.00103715 -0.15
   vertex 0.0118887 -0.000519071 0.15
   vertex 0.0118887 -0.000519071 -0.15
  endloop
 endfacet
 facet normal -0.999763 0.0217658 0
  outer loop
   vertex 0.0118887 -0.000519071 0.15
   vertex 0.0119 2.91466e-18 0.15
   vertex 0.0118887 -0.000519071 -0.15
  endloop
 endfacet
 facet normal -0.999763 0.0217658 0
  outer loop
   vertex 0.0118887 -0.000519071 -0.15
   vertex 0.0119 2.91466e-18 0.15
   vertex 0.0119 2.91466e-18 -0.15
  endloop
 endfacet
 facet normal -0.999763 -0.0217658 -0
  outer loop
   vertex 0.0119 2.91466e-18 0.15
   vertex 0.0118887 0.000519071 0.15
   vertex 0.0119 2.91466e-18 -0.15
  endloop
 endfacet
 facet normal -0.999763 -0.0217658 0
  outer loop
   vertex 0.0119 2.91466e-18 -0.15
   vertex 0.0118887 0.000519071 0.15
   vertex 0.0118887 0.000519071 -0.15
  endloop
 endfacet
 facet normal -0.997854 -0.0654858 -0
  outer loop
   vertex 0.0118887 0.000519071 0.15
   vertex 0.0118547 0.00103715 0.15
   vertex 0.0118887 0.000519071 -0.15
  endloop
 endfacet
 facet normal -0.997854 -0.0654858 0
  outer loop
   vertex 0.0118887 0.000519071 -0.15
   vertex 0.0118547 0.00103715 0.15
   vertex 0.0118547 0.00103715 -0.15
  endloop
 endfacet
 facet normal -0.994061 -0.108822 -0
  outer loop
   vertex 0.0118547 0.00103715 0.15
   vertex 0.0117982 0.00155326 0.15
   vertex 0.0118547 0.00103715 -0.15
  endloop
 endfacet
 facet normal -0.994061 -0.108822 0
  outer loop
   vertex 0.0118547 0.00103715 -0.15
   vertex 0.0117982 0.00155326 0.15
   vertex 0.0117982 0.00155326 -0.15
  endloop
 endfacet
 facet normal -0.988356 -0.152159 -0
  outer loop
   vertex 0.0117982 0.00155326 0.15
   vertex 0.0117192 0.00206641 0.15
   vertex 0.0117982 0.00155326 -0.15
  endloop
 endfacet
 facet normal -0.988356 -0.152159 0
  outer loop
   vertex 0.0117982 0.00155326 -0.15
   vertex 0.0117192 0.00206641 0.15
   vertex 0.0117192 0.00206641 -0.15
  endloop
 endfacet
 facet normal -0.980782 -0.195108 -0
  outer loop
   vertex 0.0117192 0.00206641 0.15
   vertex 0.0116179 0.00257563 0.15
   vertex 0.0117192 0.00206641 -0.15
  endloop
 endfacet
 facet normal -0.980782 -0.195108 0
  outer loop
   vertex 0.0117192 0.00206641 -0.15
   vertex 0.0116179 0.00257563 0.15
   vertex 0.0116179 0.00257563 -0.15
  endloop
 endfacet
 facet normal -0.971345 -0.237675 -0
  outer loop
   vertex 0.0116179 0.00257563 0.15
   vertex 0.0114945 0.00307995 0.15
   vertex 0.0116179 0.00257563 -0.15
  endloop
 endfacet
 facet normal -0.971345 -0.237675 0
  outer loop
   vertex 0.0116179 0.00257563 -0.15
   vertex 0.0114945 0.00307995 0.15
   vertex 0.0114945 0.00307995 -0.15
  endloop
 endfacet
 facet normal -0.960042 -0.279855 -0
  outer loop
   vertex 0.0114945 0.00307995 0.15
   vertex 0.0113492 0.0035784 0.15
   vertex 0.0114945 0.00307995 -0.15
  endloop
 endfacet
 facet normal -0.960042 -0.279855 0
  outer loop
   vertex 0.0114945 0.00307995 -0.15
   vertex 0.0113492 0.0035784 0.15
   vertex 0.0113492 0.0035784 -0.15
  endloop
 endfacet
 facet normal -0.946924 -0.321459 -0
  outer loop
   vertex 0.0113492 0.0035784 0.15
   vertex 0.0111823 0.00407004 0.15
   vertex 0.0113492 0.0035784 -0.15
  endloop
 endfacet
 facet normal -0.946924 -0.321459 0
  outer loop
   vertex 0.0113492 0.0035784 -0.15
   vertex 0.0111823 0.00407004 0.15
   vertex 0.0111823 0.00407004 -0.15
  endloop
 endfacet
 facet normal -0.932056 -0.362314 -0
  outer loop
   vertex 0.0111823 0.00407004 0.15
   vertex 0.0109942 0.00455393 0.15
   vertex 0.0111823 0.00407004 -0.15
  endloop
 endfacet
 facet normal -0.932056 -0.362314 0
  outer loop
   vertex 0.0111823 0.00407004 -0.15
   vertex 0.0109942 0.00455393 0.15
   vertex 0.0109942 0.00455393 -0.15
  endloop
 endfacet
 facet normal -0.915316 -0.402736 -0
  outer loop
   vertex 0.0109942 0.00455393 0.15
   vertex 0.0107851 0.00502916 0.15
   vertex 0.0109942 0.00455393 -0.15
  endloop
 endfacet
 facet normal -0.915316 -0.402736 0
  outer loop
   vertex 0.0109942 0.00455393 -0.15
   vertex 0.0107851 0.00502916 0.15
   vertex 0.0107851 0.00502916 -0.15
  endloop
 endfacet
 facet normal -0.896821 -0.442393 -0
  outer loop
   vertex 0.0107851 0.00502916 0.15
   vertex 0.0105554 0.00549481 0.15
   vertex 0.0107851 0.00502916 -0.15
  endloop
 endfacet
 facet normal -0.896821 -0.442393 0
  outer loop
   vertex 0.0107851 0.00502916 -0.15
   vertex 0.0105554 0.00549481 0.15
   vertex 0.0105554 0.00549481 -0.15
  endloop
 endfacet
 facet normal -0.876748 -0.48095 -0
  outer loop
   vertex 0.0105554 0.00549481 0.15
   vertex 0.0103057 0.00595 0.15
   vertex 0.0105554 0.00549481 -0.15
  endloop
 endfacet
 facet normal -0.876748 -0.48095 0
  outer loop
   vertex 0.0105554 0.00549481 -0.15
   vertex 0.0103057 0.00595 0.15
   vertex 0.0103057 0.00595 -0.15
  endloop
 endfacet
 facet normal -0.854952 -0.518708 -0
  outer loop
   vertex 0.0103057 0.00595 0.15
   vertex 0.0100364 0.00639387 0.15
   vertex 0.0103057 0.00595 -0.15
  endloop
 endfacet
 facet normal -0.854952 -0.518708 0
  outer loop
   vertex 0.0103057 0.00595 -0.15
   vertex 0.0100364 0.00639387 0.15
   vertex 0.0100364 0.00639387 -0.15
  endloop
 endfacet
 facet normal -0.831431 -0.555628 -0
  outer loop
   vertex 0.0100364 0.00639387 0.15
   vertex 0.00974791 0.00682556 0.15
   vertex 0.0100364 0.00639387 -0.15
  endloop
 endfacet
 facet normal -0.831431 -0.555628 0
  outer loop
   vertex 0.0100364 0.00639387 -0.15
   vertex 0.00974791 0.00682556 0.15
   vertex 0.00974791 0.00682556 -0.15
  endloop
 endfacet
 facet normal -0.806438 -0.591318 -0
  outer loop
   vertex 0.00974791 0.00682556 0.15
   vertex 0.0094409 0.00724426 0.15
   vertex 0.00974791 0.00682556 -0.15
  endloop
 endfacet
 facet normal -0.806438 -0.591318 0
  outer loop
   vertex 0.00974791 0.00682556 -0.15
   vertex 0.0094409 0.00724426 0.15
   vertex 0.0094409 0.00724426 -0.15
  endloop
 endfacet
 facet normal -0.779889 -0.625918 -0
  outer loop
   vertex 0.0094409 0.00724426 0.15
   vertex 0.00911593 0.00764917 0.15
   vertex 0.0094409 0.00724426 -0.15
  endloop
 endfacet
 facet normal -0.779889 -0.625918 0
  outer loop
   vertex 0.0094409 0.00724426 -0.15
   vertex 0.00911593 0.00764917 0.15
   vertex 0.00911593 0.00764917 -0.15
  endloop
 endfacet
 facet normal -0.751838 -0.659348 -0
  outer loop
   vertex 0.00911593 0.00764917 0.15
   vertex 0.0087736 0.00803952 0.15
   vertex 0.00911593 0.00764917 -0.15
  endloop
 endfacet
 facet normal -0.751838 -0.659348 0
  outer loop
   vertex 0.00911593 0.00764917 -0.15
   vertex 0.0087736 0.00803952 0.15
   vertex 0.0087736 0.00803952 -0.15
  endloop
 endfacet
 facet normal -0.722367 -0.69151 -0
  outer loop
   vertex 0.0087736 0.00803952 0.15
   vertex 0.00841457 0.00841457 0.15
   vertex 0.0087736 0.00803952 -0.15
  endloop
 endfacet
 facet normal -0.722367 -0.69151 0
  outer loop
   vertex 0.0087736 0.00803952 -0.15
   vertex 0.00841457 0.00841457 0.15
   vertex 0.00841457 0.00841457 -0.15
  endloop
 endfacet
 facet normal -0.69151 -0.722367 -0
  outer loop
   vertex 0.00841457 0.00841457 0.15
   vertex 0.00803952 0.0087736 0.15
   vertex 0.00841457 0.00841457 -0.15
  endloop
 endfacet
 facet normal -0.69151 -0.722367 0
  outer loop
   vertex 0.00841457 0.00841457 -0.15
   vertex 0.00803952 0.0087736 0.15
   vertex 0.00803952 0.0087736 -0.15
  endloop
 endfacet
 facet normal -0.659348 -0.751838 -0
  outer loop
   vertex 0.00803952 0.0087736 0.15
   vertex 0.00764917 0.00911593 0.15
   vertex 0.00803952 0.0087736 -0.15
  endloop
 endfacet
 facet normal -0.659348 -0.751838 0
  outer loop
   vertex 0.00803952 0.0087736 -0.15
   vertex 0.00764917 0.00911593 0.15
   vertex 0.00764917 0.00911593 -0.15
  endloop
 endfacet
 facet normal -0.625918 -0.779889 -0
  outer loop
   vertex 0.00764917 0.00911593 0.15
   vertex 0.00724426 0.0094409 0.15
   vertex 0.00764917 0.00911593 -0.15
  endloop
 endfacet
 facet normal -0.625918 -0.779889 0
  outer loop
   vertex 0.00764917 0.00911593 -0.15
   vertex 0.00724426 0.0094409 0.15
   vertex 0.00724426 0.0094409 -0.15
  endloop
 endfacet
 facet normal -0.591318 -0.806438 -0
  outer loop
   vertex 0.00724426 0.0094409 0.15
   vertex 0.00682556 0.00974791 0.15
   vertex 0.00724426 0.0094409 -0.15
  endloop
 endfacet
 facet normal -0.591318 -0.806438 0
  outer loop
   vertex 0.00724426 0.0094409 -0.15
   vertex 0.00682556 0.00974791 0.15
   vertex 0.00682556 0.00974791 -0.15
  endloop
 endfacet
 facet normal -0.555628 -0.831431 -0
  outer loop
   vertex 0.00682556 0.00974791 0.15
   vertex 0.00639387 0.0100364 0.15
   vertex 0.00682556 0.00974791 -0.15
  endloop
 endfacet
 facet normal -0.555628 -0.831431 0
  outer loop
   vertex 0.00682556 0.00974791 -0.15
   vertex 0.00639387 0.0100364 0.15
   vertex 0.00639387 0.0100364 -0.15
  endloop
 endfacet
 facet normal -0.518708 -0.854952 -0
  outer loop
   vertex 0.00639387 0.0100364 0.15
   vertex 0.00595 0.0103057 0.15
   vertex 0.00639387 0.0100364 -0.15
  endloop
 endfacet
 facet normal -0.518708 -0.854952 0
  outer loop
   vertex 0.00639387 0.0100364 -0.15
   vertex 0.00595 0.0103057 0.15
   vertex 0.00595 0.0103057 -0.15
  endloop
 endfacet
 facet normal -0.48095 -0.876748 -0
  outer loop
   vertex 0.00595 0.0103057 0.15
   vertex 0.00549481 0.0105554 0.15
   vertex 0.00595 0.0103057 -0.15
  endloop
 endfacet
 facet normal -0.48095 -0.876748 0
  outer loop
   vertex 0.00595 0.0103057 -0.15
   vertex 0.00549481 0.0105554 0.15
   vertex 0.00549481 0.0105554 -0.15
  endloop
 endfacet
 facet normal -0.442393 -0.896821 -0
  outer loop
   vertex 0.00549481 0.0105554 0.15
   vertex 0.00502916 0.0107851 0.15
   vertex 0.00549481 0.0105554 -0.15
  endloop
 endfacet
 facet normal -0.442393 -0.896821 0
  outer loop
   vertex 0.00549481 0.0105554 -0.15
   vertex 0.00502916 0.0107851 0.15
   vertex 0.00502916 0.0107851 -0.15
  endloop
 endfacet
 facet normal -0.402736 -0.915316 -0
  outer loop
   vertex 0.00502916 0.0107851 0.15
   vertex 0.00455393 0.0109942 0.15
   vertex 0.00502916 0.0107851 -0.15
  endloop
 endfacet
 facet normal -0.402736 -0.915316 0
  outer loop
   vertex 0.00502916 0.0107851 -0.15
   vertex 0.00455393 0.0109942 0.15
   vertex 0.00455393 0.0109942 -0.15
  endloop
 endfacet
 facet normal -0.362314 -0.932056 -0
  outer loop
   vertex 0.00455393 0.0109942 0.15
   vertex 0.00407004 0.0111823 0.15
   vertex 0.00455393 0.0109942 -0.15
  endloop
 endfacet
 facet normal -0.362314 -0.932056 0
  outer loop
   vertex 0.00455393 0.0109942 -0.15
   vertex 0.00407004 0.0111823 0.15
   vertex 0.00407004 0.0111823 -0.15
  endloop
 endfacet
 facet normal -0.321459 -0.946924 -0
  outer loop
   vertex 0.00407004 0.0111823 0.15
   vertex 0.0035784 0.0113492 0.15
   vertex 0.00407004 0.0111823 -0.15
  endloop
 endfacet
 facet normal -0.321459 -0.946924 0
  outer loop
   vertex 0.00407004 0.0111823 -0.15
   vertex 0.0035784 0.0113492 0.15
   vertex 0.0035784 0.0113492 -0.15
  endloop
 endfacet
 facet normal -0.279855 -0.960042 -0
  outer loop
   vertex 0.0035784 0.0113492 0.15
   vertex 0.00307995 0.0114945 0.15
   vertex 0.0035784 0.0113492 -0.15
  endloop
 endfacet
 facet normal -0.279855 -0.960042 0
  outer loop
   vertex 0.0035784 0.0113492 -0.15
   vertex 0.00307995 0.0114945 0.15
   vertex 0.00307995 0.0114945 -0.15
  endloop
 endfacet
 facet normal -0.237675 -0.971345 -0
  outer loop
   vertex 0.00307995 0.0114945 0.15
   vertex 0.00257563 0.0116179 0.15
   vertex 0.00307995 0.0114945 -0.15
  endloop
 endfacet
 facet normal -0.237675 -0.971345 0
  outer loop
   vertex 0.00307995 0.0114945 -0.15
   vertex 0.00257563 0.0116179 0.15
   vertex 0.00257563 0.0116179 -0.15
  endloop
 endfacet
 facet normal -0.195108 -0.980782 -0
  outer loop
   vertex 0.00257563 0.0116179 0.15
   vertex 0.00206641 0.0117192 0.15
   vertex 0.00257563 0.0116179 -0.15
  endloop
 endfacet
 facet normal -0.195108 -0.980782 0
  outer loop
   vertex 0.00257563 0.0116179 -0.15
   vertex 0.00206641 0.0117192 0.15
   vertex 0.00206641 0.0117192 -0.15
  endloop
 endfacet
 facet normal -0.152159 -0.988356 -0
  outer loop
   vertex 0.00206641 0.0117192 0.15
   vertex 0.00155326 0.0117982 0.15
   vertex 0.00206641 0.0117192 -0.15
  endloop
 endfacet
 facet normal -0.152159 -0.988356 0
  outer loop
   vertex 0.00206641 0.0117192 -0.15
   vertex 0.00155326 0.0117982 0.15
   vertex 0.00155326 0.0117982 -0.15
  endloop
 endfacet
 facet normal -0.108822 -0.994061 -0
  outer loop
   vertex 0.00155326 0.0117982 0.15
   vertex 0.00103715 0.0118547 0.15
   vertex 0.00155326 0.0117982 -0.15
  endloop
 endfacet
 facet normal -0.108822 -0.994061 0
  outer loop
   vertex 0.00155326 0.0117982 -0.15
   vertex 0.00103715 0.0118547 0.15
   vertex 0.00103715 0.0118547 -0.15
  endloop
 endfacet
 facet normal -0.0654858 -0.997854 -0
  outer loop
   vertex 0.00103715 0.0118547 0.15
   vertex 0.000519071 0.0118887 0.15
   vertex 0.00103715 0.0118547 -0.15
  endloop
 endfacet
 facet normal -0.0654858 -0.997854 0
  outer loop
   vertex 0.00103715 0.0118547 -0.15
   vertex 0.000519071 0.0118887 0.15
   vertex 0.000519071 0.0118887 -0.15
  endloop
 endfacet
 facet normal -0.0217658 -0.999763 -0
  outer loop
   vertex 0.000519071 0.0118887 0.15
   vertex 2.18599e-18 0.0119 0.15
   vertex 0.000519071 0.0118887 -0.15
  endloop
 endfacet
 facet normal -0.0217658 -0.999763 0
  outer loop
   vertex 0.000519071 0.0118887 -0.15
   vertex 2.18599e-18 0.0119 0.15
   vertex 2.18599e-18 0.0119 -0.15
  endloop
 endfacet
 facet normal 0.203018 -0.979175 0
  outer loop
   vertex 2.18599e-18 0.0119 -0.15
   vertex 2.18599e-18 0.0119 0.15
   vertex -0.000179903 0.0118627 0.15
  endloop
 endfacet
 facet normal 0.203018 -0.979175 0
  outer loop
   vertex 2.18599e-18 0.0119 -0.15
   vertex -0.000179903 0.0118627 0.15
   vertex -0.000179903 0.0118627 -0.15
  endloop
 endfacet
 facet normal 0.241582 -0.97038 0
  outer loop
   vertex -0.000179903 0.0118627 0.15
   vertex -0.000367083 0.0118161 0.15
   vertex -0.000179903 0.0118627 -0.15
  endloop
 endfacet
 facet normal 0.241582 -0.97038 0
  outer loop
   vertex -0.000179903 0.0118627 -0.15
   vertex -0.000367083 0.0118161 0.15
   vertex -0.000367083 0.0118161 -0.15
  endloop
 endfacet
 facet normal 0.277538 -0.960715 0
  outer loop
   vertex -0.000367083 0.0118161 0.15
   vertex -0.000582393 0.0117539 0.15
   vertex -0.000367083 0.0118161 -0.15
  endloop
 endfacet
 facet normal 0.277538 -0.960715 0
  outer loop
   vertex -0.000367083 0.0118161 -0.15
   vertex -0.000582393 0.0117539 0.15
   vertex -0.000582393 0.0117539 -0.15
  endloop
 endfacet
 facet normal 0.313382 -0.949627 0
  outer loop
   vertex -0.000582393 0.0117539 0.15
   vertex -0.000829966 0.0116722 0.15
   vertex -0.000582393 0.0117539 -0.15
  endloop
 endfacet
 facet normal 0.313382 -0.949627 0
  outer loop
   vertex -0.000582393 0.0117539 -0.15
   vertex -0.000829966 0.0116722 0.15
   vertex -0.000829966 0.0116722 -0.15
  endloop
 endfacet
 facet normal 0.348452 -0.937327 0
  outer loop
   vertex -0.000829966 0.0116722 0.15
   vertex -0.00111564 0.011566 0.15
   vertex -0.000829966 0.0116722 -0.15
  endloop
 endfacet
 facet normal 0.348452 -0.937327 0
  outer loop
   vertex -0.000829966 0.0116722 -0.15
   vertex -0.00111564 0.011566 0.15
   vertex -0.00111564 0.011566 -0.15
  endloop
 endfacet
 facet normal 0.382847 -0.923812 0
  outer loop
   vertex -0.00111564 0.011566 0.15
   vertex -0.00144598 0.0114291 0.15
   vertex -0.00111564 0.011566 -0.15
  endloop
 endfacet
 facet normal 0.382847 -0.923812 0
  outer loop
   vertex -0.00111564 0.011566 -0.15
   vertex -0.00144598 0.0114291 0.15
   vertex -0.00144598 0.0114291 -0.15
  endloop
 endfacet
 facet normal 0.417009 -0.908903 0
  outer loop
   vertex -0.00144598 0.0114291 0.15
   vertex -0.00182806 0.0112538 0.15
   vertex -0.00144598 0.0114291 -0.15
  endloop
 endfacet
 facet normal 0.417009 -0.908903 0
  outer loop
   vertex -0.00144598 0.0114291 -0.15
   vertex -0.00182806 0.0112538 0.15
   vertex -0.00182806 0.0112538 -0.15
  endloop
 endfacet
 facet normal 0.450467 -0.892793 0
  outer loop
   vertex -0.00182806 0.0112538 0.15
   vertex -0.00226904 0.0110313 0.15
   vertex -0.00182806 0.0112538 -0.15
  endloop
 endfacet
 facet normal 0.450467 -0.892793 0
  outer loop
   vertex -0.00182806 0.0112538 -0.15
   vertex -0.00226904 0.0110313 0.15
   vertex -0.00226904 0.0110313 -0.15
  endloop
 endfacet
 facet normal 0.483571 -0.875305 0
  outer loop
   vertex -0.00226904 0.0110313 0.15
   vertex -0.00277514 0.0107517 0.15
   vertex -0.00226904 0.0110313 -0.15
  endloop
 endfacet
 facet normal 0.483571 -0.875305 0
  outer loop
   vertex -0.00226904 0.0110313 -0.15
   vertex -0.00277514 0.0107517 0.15
   vertex -0.00277514 0.0107517 -0.15
  endloop
 endfacet
 facet normal 0.516195 -0.856471 0
  outer loop
   vertex -0.00277514 0.0107517 0.15
   vertex -0.00335022 0.0104051 0.15
   vertex -0.00277514 0.0107517 -0.15
  endloop
 endfacet
 facet normal 0.516195 -0.856471 0
  outer loop
   vertex -0.00277514 0.0107517 -0.15
   vertex -0.00335022 0.0104051 0.15
   vertex -0.00335022 0.0104051 -0.15
  endloop
 endfacet
 facet normal 0.548405 -0.836213 0
  outer loop
   vertex -0.00335022 0.0104051 0.15
   vertex -0.00399372 0.00998308 0.15
   vertex -0.00335022 0.0104051 -0.15
  endloop
 endfacet
 facet normal 0.548405 -0.836213 0
  outer loop
   vertex -0.00335022 0.0104051 -0.15
   vertex -0.00399372 0.00998308 0.15
   vertex -0.00399372 0.00998308 -0.15
  endloop
 endfacet
 facet normal 0.580381 -0.814345 0
  outer loop
   vertex -0.00399372 0.00998308 0.15
   vertex -0.00469855 0.00948075 0.15
   vertex -0.00399372 0.00998308 -0.15
  endloop
 endfacet
 facet normal 0.580381 -0.814345 0
  outer loop
   vertex -0.00399372 0.00998308 -0.15
   vertex -0.00469855 0.00948075 0.15
   vertex -0.00469855 0.00948075 -0.15
  endloop
 endfacet
 facet normal 0.6121 -0.790781 0
  outer loop
   vertex -0.00469855 0.00948075 0.15
   vertex -0.00544963 0.00889938 0.15
   vertex -0.00469855 0.00948075 -0.15
  endloop
 endfacet
 facet normal 0.6121 -0.790781 0
  outer loop
   vertex -0.00469855 0.00948075 -0.15
   vertex -0.00544963 0.00889938 0.15
   vertex -0.00544963 0.00889938 -0.15
  endloop
 endfacet
 facet normal 0.643577 -0.765381 0
  outer loop
   vertex -0.00544963 0.00889938 0.15
   vertex -0.00622428 0.00824801 0.15
   vertex -0.00544963 0.00889938 -0.15
  endloop
 endfacet
 facet normal 0.643577 -0.765381 0
  outer loop
   vertex -0.00544963 0.00889938 -0.15
   vertex -0.00622428 0.00824801 0.15
   vertex -0.00622428 0.00824801 -0.15
  endloop
 endfacet
 facet normal 0.674596 -0.738187 0
  outer loop
   vertex -0.00622428 0.00824801 0.15
   vertex -0.00698858 0.00754955 0.15
   vertex -0.00622428 0.00824801 -0.15
  endloop
 endfacet
 facet normal 0.674596 -0.738187 0
  outer loop
   vertex -0.00622428 0.00824801 -0.15
   vertex -0.00698858 0.00754955 0.15
   vertex -0.00698858 0.00754955 -0.15
  endloop
 endfacet
 facet normal 0.705155 -0.709053 0
  outer loop
   vertex -0.00698858 0.00754955 0.15
   vertex -0.00772884 0.00681336 0.15
   vertex -0.00698858 0.00754955 -0.15
  endloop
 endfacet
 facet normal 0.705155 -0.709053 0
  outer loop
   vertex -0.00698858 0.00754955 -0.15
   vertex -0.00772884 0.00681336 0.15
   vertex -0.00772884 0.00681336 -0.15
  endloop
 endfacet
 facet normal 0.733641 -0.679537 0
  outer loop
   vertex -0.00772884 0.00681336 0.15
   vertex -0.00834742 0.00614553 0.15
   vertex -0.00772884 0.00681336 -0.15
  endloop
 endfacet
 facet normal 0.733641 -0.679537 0
  outer loop
   vertex -0.00772884 0.00681336 -0.15
   vertex -0.00834742 0.00614553 0.15
   vertex -0.00834742 0.00614553 -0.15
  endloop
 endfacet
 facet normal 0.759631 -0.650355 0
  outer loop
   vertex -0.00834742 0.00614553 0.15
   vertex -0.00890609 0.00549299 0.15
   vertex -0.00834742 0.00614553 -0.15
  endloop
 endfacet
 facet normal 0.759631 -0.650355 0
  outer loop
   vertex -0.00834742 0.00614553 -0.15
   vertex -0.00890609 0.00549299 0.15
   vertex -0.00890609 0.00549299 -0.15
  endloop
 endfacet
 facet normal 0.784462 -0.620176 0
  outer loop
   vertex -0.00890609 0.00549299 0.15
   vertex -0.00940378 0.00486346 0.15
   vertex -0.00890609 0.00549299 -0.15
  endloop
 endfacet
 facet normal 0.784462 -0.620176 0
  outer loop
   vertex -0.00890609 0.00549299 -0.15
   vertex -0.00940378 0.00486346 0.15
   vertex -0.00940378 0.00486346 -0.15
  endloop
 endfacet
 facet normal 0.80808 -0.589072 0
  outer loop
   vertex -0.00940378 0.00486346 0.15
   vertex -0.00984261 0.00426148 0.15
   vertex -0.00940378 0.00486346 -0.15
  endloop
 endfacet
 facet normal 0.80808 -0.589072 0
  outer loop
   vertex -0.00940378 0.00486346 -0.15
   vertex -0.00984261 0.00426148 0.15
   vertex -0.00984261 0.00426148 -0.15
  endloop
 endfacet
 facet normal 0.830477 -0.557052 0
  outer loop
   vertex -0.00984261 0.00426148 0.15
   vertex -0.0102265 0.00368916 0.15
   vertex -0.00984261 0.00426148 -0.15
  endloop
 endfacet
 facet normal 0.830477 -0.557052 0
  outer loop
   vertex -0.00984261 0.00426148 -0.15
   vertex -0.0102265 0.00368916 0.15
   vertex -0.0102265 0.00368916 -0.15
  endloop
 endfacet
 facet normal 0.851645 -0.524119 0
  outer loop
   vertex -0.0102265 0.00368916 0.15
   vertex -0.0105602 0.00314693 0.15
   vertex -0.0102265 0.00368916 -0.15
  endloop
 endfacet
 facet normal 0.851645 -0.524119 0
  outer loop
   vertex -0.0102265 0.00368916 -0.15
   vertex -0.0105602 0.00314693 0.15
   vertex -0.0105602 0.00314693 -0.15
  endloop
 endfacet
 facet normal 0.871393 -0.490585 0
  outer loop
   vertex -0.0105602 0.00314693 0.15
   vertex -0.0108489 0.00263413 0.15
   vertex -0.0105602 0.00314693 -0.15
  endloop
 endfacet
 facet normal 0.871393 -0.490585 0
  outer loop
   vertex -0.0105602 0.00314693 -0.15
   vertex -0.0108489 0.00263413 0.15
   vertex -0.0108489 0.00263413 -0.15
  endloop
 endfacet
 facet normal 0.889959 -0.45604 0
  outer loop
   vertex -0.0108489 0.00263413 0.15
   vertex -0.0110973 0.00214938 0.15
   vertex -0.0108489 0.00263413 -0.15
  endloop
 endfacet
 facet normal 0.889959 -0.45604 0
  outer loop
   vertex -0.0108489 0.00263413 -0.15
   vertex -0.0110973 0.00214938 0.15
   vertex -0.0110973 0.00214938 -0.15
  endloop
 endfacet
 facet normal 0.907106 -0.420902 0
  outer loop
   vertex -0.0110973 0.00214938 0.15
   vertex -0.01131 0.00169098 0.15
   vertex -0.0110973 0.00214938 -0.15
  endloop
 endfacet
 facet normal 0.907106 -0.420902 0
  outer loop
   vertex -0.0110973 0.00214938 -0.15
   vertex -0.01131 0.00169098 0.15
   vertex -0.01131 0.00169098 -0.15
  endloop
 endfacet
 facet normal 0.922869 -0.385114 0
  outer loop
   vertex -0.01131 0.00169098 0.15
   vertex -0.0114911 0.001257 0.15
   vertex -0.01131 0.00169098 -0.15
  endloop
 endfacet
 facet normal 0.922869 -0.385114 0
  outer loop
   vertex -0.01131 0.00169098 -0.15
   vertex -0.0114911 0.001257 0.15
   vertex -0.0114911 0.001257 -0.15
  endloop
 endfacet
 facet normal 0.937235 -0.348699 0
  outer loop
   vertex -0.0114911 0.001257 0.15
   vertex -0.0116442 0.000845497 0.15
   vertex -0.0114911 0.001257 -0.15
  endloop
 endfacet
 facet normal 0.937235 -0.348699 0
  outer loop
   vertex -0.0114911 0.001257 -0.15
   vertex -0.0116442 0.000845497 0.15
   vertex -0.0116442 0.000845497 -0.15
  endloop
 endfacet
 facet normal 0.950144 -0.311811 0
  outer loop
   vertex -0.0116442 0.000845497 0.15
   vertex -0.0117725 0.000454544 0.15
   vertex -0.0116442 0.000845497 -0.15
  endloop
 endfacet
 facet normal 0.950144 -0.311811 0
  outer loop
   vertex -0.0116442 0.000845497 -0.15
   vertex -0.0117725 0.000454544 0.15
   vertex -0.0117725 0.000454544 -0.15
  endloop
 endfacet
 facet normal 0.961646 -0.274295 0
  outer loop
   vertex -0.0117725 0.000454544 0.15
   vertex -0.0118784 8.32721e-05 0.15
   vertex -0.0117725 0.000454544 -0.15
  endloop
 endfacet
 facet normal 0.961646 -0.274295 0
  outer loop
   vertex -0.0117725 0.000454544 -0.15
   vertex -0.0118784 8.32721e-05 0.15
   vertex -0.0118784 8.32721e-05 -0.15
  endloop
 endfacet
 facet normal 0.967966 -0.251083 0
  outer loop
   vertex -0.0118784 8.32721e-05 0.15
   vertex -0.0119 -0 0.15
   vertex -0.0118784 8.32721e-05 -0.15
  endloop
 endfacet
 facet normal 0.967966 -0.251083 0
  outer loop
   vertex -0.0118784 8.32721e-05 -0.15
   vertex -0.0119 -0 0.15
   vertex -0.0119 -0 -0.15
  endloop
 endfacet
endsolid zone0
