solid zone0
 facet normal -0 0 -1
  outer loop
   vertex 0.00218263 -0.0114278 0.15
   vertex 0.00168024 -0.0115744 0.15
   vertex 0.0070151 0.00893547 0.15
  endloop
 endfacet
 facet normal 0 -0 -1
  outer loop
   vertex 0.00121574 0.011691 0.15
   vertex 0.00168024 0.0115744 0.15
   vertex -0.00764917 -0.00911593 0.15
  endloop
 endfacet
 facet normal 0 -0 -1
  outer loop
   vertex 0.00168024 0.0115744 0.15
   vertex 0.00218263 0.0114278 0.15
   vertex -0.00764917 -0.00911593 0.15
  endloop
 endfacet
 facet normal 0 0 -1
  outer loop
   vertex -0.00764917 -0.00911593 0.15
   vertex 0.00218263 0.0114278 0.15
   vertex 0.00272291 0.0112475 0.15
  endloop
 endfacet
 facet normal -0 -0 -1
  outer loop
   vertex 0.00713104 0.00883626 0.15
   vertex 0.00713104 -0.00883626 0.15
   vertex 0.0070151 0.00893547 0.15
  endloop
 endfacet
 facet normal -0 0 -1
  outer loop
   vertex 0.00713104 -0.00883626 0.15
   vertex 0.0070151 -0.00893547 0.15
   vertex 0.0070151 0.00893547 0.15
  endloop
 endfacet
 facet normal 0 -0 -1
  outer loop
   vertex 0.0070151 0.00893547 0.15
   vertex 0.0070151 -0.00893547 0.15
   vertex 0.00680386 -0.00910447 0.15
  endloop
 endfacet
 facet normal -0 0 -1
  outer loop
   vertex 0.00168024 -0.0115744 0.15
   vertex 0.00121574 -0.011691 0.15
   vertex 0.0070151 0.00893547 0.15
  endloop
 endfacet
 facet normal -0 0 -1
  outer loop
   vertex 0.00121574 -0.011691 0.15
   vertex 0.000787467 -0.0117812 0.15
   vertex 0.0070151 0.00893547 0.15
  endloop
 endfacet
 facet normal 0 0 -1
  outer loop
   vertex 0.0070151 0.00893547 0.15
   vertex 0.000787467 -0.0117812 0.15
   vertex 0.000394319 -0.0118486 0.15
  endloop
 endfacet
 facet normal 0 -0 -1
  outer loop
   vertex 0.00615998 0.00955917 0.15
   vertex 0.00652348 0.00931164 0.15
   vertex -0.00764917 -0.00911593 0.15
  endloop
 endfacet
 facet normal -0 0 -1
  outer loop
   vertex 0.0039017 -0.0107767 0.15
   vertex 0.00329831 -0.0110308 0.15
   vertex 0.0070151 0.00893547 0.15
  endloop
 endfacet
 facet normal -0 0 -1
  outer loop
   vertex 0.00329831 -0.0110308 0.15
   vertex 0.00272291 -0.0112475 0.15
   vertex 0.0070151 0.00893547 0.15
  endloop
 endfacet
 facet normal 0 0 -1
  outer loop
   vertex 0.0070151 0.00893547 0.15
   vertex 0.00272291 -0.0112475 0.15
   vertex 0.00218263 -0.0114278 0.15
  endloop
 endfacet
 facet normal 0 0 -1
  outer loop
   vertex -0.00803952 -0.0087736 0.15
   vertex 0.000394319 0.0118486 0.15
   vertex -0.00764917 -0.00911593 0.15
  endloop
 endfacet
 facet normal 0 -0 -1
  outer loop
   vertex 0.000394319 0.0118486 0.15
   vertex 0.000787467 0.0117812 0.15
   vertex -0.00764917 -0.00911593 0.15
  endloop
 endfacet
 facet normal 0 0 -1
  outer loop
   vertex -0.00764917 -0.00911593 0.15
   vertex 0.000787467 0.0117812 0.15
   vertex 0.00121574 0.011691 0.15
  endloop
 endfacet
 facet normal 0 0 -1
  outer loop
   vertex -0.0118887 0.000519071 0.15
   vertex -0.0118547 0.00103715 0.15
   vertex -0.00595 0.0103057 0.15
  endloop
 endfacet
 facet normal 0 -0 -1
  outer loop
   vertex -0.00549481 0.0105554 0.15
   vertex -0.00502916 0.0107851 0.15
   vertex -0.0111823 -0.00407004 0.15
  endloop
 endfacet
 facet normal 0 0 -1
  outer loop
   vertex 0.0070151 0.00893547 0.15
   vertex -0.00103715 -0.0118547 0.15
   vertex -0.00155326 -0.0117982 0.15
  endloop
 endfacet
 facet normal 0 0 -1
  outer loop
   vertex -0.00803952 -0.0087736 0.15
   vertex -0.00841457 -0.00841457 0.15
   vertex 0.000394319 0.0118486 0.15
  endloop
 endfacet
 facet normal 0 0 -1
  outer loop
   vertex -0.00841457 -0.00841457 0.15
   vertex -0.0087736 -0.00803952 0.15
   vertex 0.000394319 0.0118486 0.15
  endloop
 endfacet
 facet normal 0 0 -1
  outer loop
   vertex 0.000394319 0.0118486 0.15
   vertex -0.0087736 -0.00803952 0.15
   vertex -0.00911593 -0.00764917 0.15
  endloop
 endfacet
 facet normal 0 0 -1
  outer loop
   vertex -0.0114945 -0.00307995 0.15
   vertex -0.0116179 -0.00257563 0.15
   vertex -0.00595 0.0103057 0.15
  endloop
 endfacet
 facet normal 0 -0 -1
  outer loop
   vertex 0.00272291 0.0112475 0.15
   vertex 0.00329831 0.0110308 0.15
   vertex -0.00764917 -0.00911593 0.15
  endloop
 endfacet
 facet normal 0 -0 -1
  outer loop
   vertex 0.00329831 0.0110308 0.15
   vertex 0.0039017 0.0107767 0.15
   vertex -0.00764917 -0.00911593 0.15
  endloop
 endfacet
 facet normal 0 0 -1
  outer loop
   vertex -0.00764917 -0.00911593 0.15
   vertex 0.0039017 0.0107767 0.15
   vertex 0.00451973 0.0104875 0.15
  endloop
 endfacet
 facet normal -0 0 -1
  outer loop
   vertex 0.000394319 -0.0118486 0.15
   vertex -7.28665e-19 -0.0119 0.15
   vertex 0.0070151 0.00893547 0.15
  endloop
 endfacet
 facet normal 0 0 -1
  outer loop
   vertex -7.28665e-19 -0.0119 0.15
   vertex -0.000519071 -0.0118887 0.15
   vertex 0.0070151 0.00893547 0.15
  endloop
 endfacet
 facet normal 0 0 -1
  outer loop
   vertex 0.0070151 0.00893547 0.15
   vertex -0.000519071 -0.0118887 0.15
   vertex -0.00103715 -0.0118547 0.15
  endloop
 endfacet
 facet normal 0 0 -1
  outer loop
   vertex -0.00155326 -0.0117982 0.15
   vertex -0.00206641 -0.0117192 0.15
   vertex 0.0070151 0.00893547 0.15
  endloop
 endfacet
 facet normal 0 0 -1
  outer loop
   vertex -0.00206641 -0.0117192 0.15
   vertex -0.00257563 -0.0116179 0.15
   vertex 0.0070151 0.00893547 0.15
  endloop
 endfacet
 facet normal 0 0 -1
  outer loop
   vertex 0.0070151 0.00893547 0.15
   vertex -0.00257563 -0.0116179 0.15
   vertex -0.00307995 -0.0114945 0.15
  endloop
 endfacet
 facet normal 0 0 -1
  outer loop
   vertex -0.00911593 -0.00764917 0.15
   vertex -0.0094409 -0.00724426 0.15
   vertex 0.000394319 0.0118486 0.15
  endloop
 endfacet
 facet normal 0 0 -1
  outer loop
   vertex -0.0094409 -0.00724426 0.15
   vertex -0.00974791 -0.00682556 0.15
   vertex 0.000394319 0.0118486 0.15
  endloop
 endfacet
 facet normal 0 0 -1
  outer loop
   vertex 0.000394319 0.0118486 0.15
   vertex -0.00974791 -0.00682556 0.15
   vertex -0.0100364 -0.00639387 0.15
  endloop
 endfacet
 facet normal 0 0 -1
  outer loop
   vertex -0.0118547 0.00103715 0.15
   vertex -0.0117982 0.00155326 0.15
   vertex -0.00595 0.0103057 0.15
  endloop
 endfacet
 facet normal 0 0 -1
  outer loop
   vertex -0.0117982 0.00155326 0.15
   vertex -0.0117192 0.00206641 0.15
   vertex -0.00595 0.0103057 0.15
  endloop
 endfacet
 facet normal 0 0 -1
  outer loop
   vertex -0.00595 0.0103057 0.15
   vertex -0.0117192 0.00206641 0.15
   vertex -0.0116179 0.00257563 0.15
  endloop
 endfacet
 facet normal 0 -0 -1
  outer loop
   vertex -0.00502916 0.0107851 0.15
   vertex -0.00455393 0.0109942 0.15
   vertex -0.0111823 -0.00407004 0.15
  endloop
 endfacet
 facet normal 0 -0 -1
  outer loop
   vertex -0.00455393 0.0109942 0.15
   vertex -0.00407004 0.0111823 0.15
   vertex -0.0111823 -0.00407004 0.15
  endloop
 endfacet
 facet normal 0 0 -1
  outer loop
   vertex -0.0111823 -0.00407004 0.15
   vertex -0.00407004 0.0111823 0.15
   vertex -0.0035784 0.0113492 0.15
  endloop
 endfacet
 facet normal 0 -0 -1
  outer loop
   vertex -0.00206641 0.0117192 0.15
   vertex -0.00155326 0.0117982 0.15
   vertex -0.0111823 -0.00407004 0.15
  endloop
 endfacet
 facet normal 0 -0 -1
  outer loop
   vertex -0.00155326 0.0117982 0.15
   vertex -0.00103715 0.0118547 0.15
   vertex -0.0111823 -0.00407004 0.15
  endloop
 endfacet
 facet normal 0 0 -1
  outer loop
   vertex -0.0111823 -0.00407004 0.15
   vertex -0.00103715 0.0118547 0.15
   vertex -0.000519071 0.0118887 0.15
  endloop
 endfacet
 facet normal 0 0 -1
  outer loop
   vertex -0.0100364 -0.00639387 0.15
   vertex -0.0103057 -0.00595 0.15
   vertex 0.000394319 0.0118486 0.15
  endloop
 endfacet
 facet normal 0 0 -1
  outer loop
   vertex -0.0103057 -0.00595 0.15
   vertex -0.0105554 -0.00549481 0.15
   vertex 0.000394319 0.0118486 0.15
  endloop
 endfacet
 facet normal 0 0 -1
  outer loop
   vertex 0.000394319 0.0118486 0.15
   vertex -0.0105554 -0.00549481 0.15
   vertex -0.0107851 -0.00502916 0.15
  endloop
 endfacet
 facet normal 0 0 -1
  outer loop
   vertex -0.00549481 0.0105554 0.15
   vertex -0.0111823 -0.00407004 0.15
   vertex -0.00595 0.0103057 0.15
  endloop
 endfacet
 facet normal 0 0 -1
  outer loop
   vertex -0.0111823 -0.00407004 0.15
   vertex -0.0113492 -0.0035784 0.15
   vertex -0.00595 0.0103057 0.15
  endloop
 endfacet
 facet normal 0 0 -1
  outer loop
   vertex -0.00595 0.0103057 0.15
   vertex -0.0113492 -0.0035784 0.15
   vertex -0.0114945 -0.00307995 0.15
  endloop
 endfacet
 facet normal 0 0 -1
  outer loop
   vertex -0.0116179 0.00257563 0.15
   vertex -0.0114945 0.00307995 0.15
   vertex -0.00595 0.0103057 0.15
  endloop
 endfacet
 facet normal 0 0 -1
  outer loop
   vertex -0.0114945 0.00307995 0.15
   vertex -0.0113492 0.0035784 0.15
   vertex -0.00595 0.0103057 0.15
  endloop
 endfacet
 facet normal 0 0 -1
  outer loop
   vertex -0.00595 0.0103057 0.15
   vertex -0.0113492 0.0035784 0.15
   vertex -0.0111823 0.00407004 0.15
  endloop
 endfacet
 facet normal 0 -0 -1
  outer loop
   vertex -0.0035784 0.0113492 0.15
   vertex -0.00307995 0.0114945 0.15
   vertex -0.0111823 -0.00407004 0.15
  endloop
 endfacet
 facet normal 0 -0 -1
  outer loop
   vertex -0.00307995 0.0114945 0.15
   vertex -0.00257563 0.0116179 0.15
   vertex -0.0111823 -0.00407004 0.15
  endloop
 endfacet
 facet normal 0 0 -1
  outer loop
   vertex -0.0111823 -0.00407004 0.15
   vertex -0.00257563 0.0116179 0.15
   vertex -0.00206641 0.0117192 0.15
  endloop
 endfacet
 facet normal 0 0 -1
  outer loop
   vertex -0.0107851 -0.00502916 0.15
   vertex -0.0109942 -0.00455393 0.15
   vertex 0.000394319 0.0118486 0.15
  endloop
 endfacet
 facet normal 0 0 -1
  outer loop
   vertex -0.0109942 -0.00455393 0.15
   vertex -0.0111823 -0.00407004 0.15
   vertex 0.000394319 0.0118486 0.15
  endloop
 endfacet
 facet normal -0 0 -1
  outer loop
   vertex 0.000394319 0.0118486 0.15
   vertex -0.0111823 -0.00407004 0.15
   vertex 2.18599e-18 0.0119 0.15
  endloop
 endfacet
 facet normal 0 0 -1
  outer loop
   vertex -0.0111823 -0.00407004 0.15
   vertex -0.000519071 0.0118887 0.15
   vertex 2.18599e-18 0.0119 0.15
  endloop
 endfacet
 facet normal 0 -0 -1
  outer loop
   vertex 0.00451973 0.0104875 0.15
   vertex 0.00513125 0.0101711 0.15
   vertex -0.00764917 -0.00911593 0.15
  endloop
 endfacet
 facet normal 0 -0 -1
  outer loop
   vertex 0.00513125 0.0101711 0.15
   vertex 0.0057077 0.00984216 0.15
   vertex -0.00764917 -0.00911593 0.15
  endloop
 endfacet
 facet normal 0 0 -1
  outer loop
   vertex -0.00764917 -0.00911593 0.15
   vertex 0.0057077 0.00984216 0.15
   vertex 0.00615998 0.00955917 0.15
  endloop
 endfacet
 facet normal -0 0 -1
  outer loop
   vertex 0.00680386 -0.00910447 0.15
   vertex 0.00652348 -0.00931164 0.15
   vertex 0.0070151 0.00893547 0.15
  endloop
 endfacet
 facet normal -0 0 -1
  outer loop
   vertex 0.00652348 -0.00931164 0.15
   vertex 0.00615998 -0.00955917 0.15
   vertex 0.0070151 0.00893547 0.15
  endloop
 endfacet
 facet normal 0 0 -1
  outer loop
   vertex 0.0070151 0.00893547 0.15
   vertex 0.00615998 -0.00955917 0.15
   vertex 0.0057077 -0.00984216 0.15
  endloop
 endfacet
 facet normal 0 0 -1
  outer loop
   vertex -0.00307995 -0.0114945 0.15
   vertex -0.0035784 -0.0113492 0.15
   vertex 0.0070151 0.00893547 0.15
  endloop
 endfacet
 facet normal 0 0 -1
  outer loop
   vertex -0.0035784 -0.0113492 0.15
   vertex -0.00407004 -0.0111823 0.15
   vertex 0.0070151 0.00893547 0.15
  endloop
 endfacet
 facet normal 0 0 -1
  outer loop
   vertex 0.0070151 0.00893547 0.15
   vertex -0.00407004 -0.0111823 0.15
   vertex -0.00455393 -0.0109942 0.15
  endloop
 endfacet
 facet normal 0 0 -1
  outer loop
   vertex -0.00595 -0.0103057 0.15
   vertex -0.00639387 -0.0100364 0.15
   vertex 0.0070151 0.00893547 0.15
  endloop
 endfacet
 facet normal 0 0 -1
  outer loop
   vertex -0.00639387 -0.0100364 0.15
   vertex -0.00682556 -0.00974791 0.15
   vertex 0.0070151 0.00893547 0.15
  endloop
 endfacet
 facet normal 0 0 -1
  outer loop
   vertex -0.0116179 -0.00257563 0.15
   vertex -0.0117192 -0.00206641 0.15
   vertex -0.00595 0.0103057 0.15
  endloop
 endfacet
 facet normal 0 0 -1
  outer loop
   vertex -0.0117192 -0.00206641 0.15
   vertex -0.0117982 -0.00155326 0.15
   vertex -0.00595 0.0103057 0.15
  endloop
 endfacet
 facet normal 0 0 -1
  outer loop
   vertex -0.00595 0.0103057 0.15
   vertex -0.0117982 -0.00155326 0.15
   vertex -0.0118547 -0.00103715 0.15
  endloop
 endfacet
 facet normal 0 0 -1
  outer loop
   vertex -0.0118547 -0.00103715 0.15
   vertex -0.0118887 -0.000519071 0.15
   vertex -0.00595 0.0103057 0.15
  endloop
 endfacet
 facet normal 0 0 -1
  outer loop
   vertex -0.0118887 -0.000519071 0.15
   vertex -0.0119 -1.45733e-18 0.15
   vertex -0.00595 0.0103057 0.15
  endloop
 endfacet
 facet normal 0 0 -1
  outer loop
   vertex -0.00595 0.0103057 0.15
   vertex -0.0119 -1.45733e-18 0.15
   vertex -0.0118887 0.000519071 0.15
  endloop
 endfacet
 facet normal 0 0 -1
  outer loop
   vertex -0.0111823 0.00407004 0.15
   vertex -0.0109942 0.00455393 0.15
   vertex -0.00595 0.0103057 0.15
  endloop
 endfacet
 facet normal 0 0 -1
  outer loop
   vertex -0.0109942 0.00455393 0.15
   vertex -0.0107851 0.00502916 0.15
   vertex -0.00595 0.0103057 0.15
  endloop
 endfacet
 facet normal 0 0 -1
  outer loop
   vertex -0.00595 0.0103057 0.15
   vertex -0.0107851 0.00502916 0.15
   vertex -0.0105554 0.00549481 0.15
  endloop
 endfacet
 facet normal -0 0 -1
  outer loop
   vertex 0.0057077 -0.00984216 0.15
   vertex 0.00513125 -0.0101711 0.15
   vertex 0.0070151 0.00893547 0.15
  endloop
 endfacet
 facet normal -0 0 -1
  outer loop
   vertex 0.00513125 -0.0101711 0.15
   vertex 0.00451973 -0.0104875 0.15
   vertex 0.0070151 0.00893547 0.15
  endloop
 endfacet
 facet normal 0 0 -1
  outer loop
   vertex 0.0070151 0.00893547 0.15
   vertex 0.00451973 -0.0104875 0.15
   vertex 0.0039017 -0.0107767 0.15
  endloop
 endfacet
 facet normal 0 0 -1
  outer loop
   vertex -0.00455393 -0.0109942 0.15
   vertex -0.00502916 -0.0107851 0.15
   vertex 0.0070151 0.00893547 0.15
  endloop
 endfacet
 facet normal 0 0 -1
  outer loop
   vertex -0.00502916 -0.0107851 0.15
   vertex -0.00549481 -0.0105554 0.15
   vertex 0.0070151 0.00893547 0.15
  endloop
 endfacet
 facet normal 0 0 -1
  outer loop
   vertex 0.0070151 0.00893547 0.15
   vertex -0.00549481 -0.0105554 0.15
   vertex -0.00595 -0.0103057 0.15
  endloop
 endfacet
 facet normal 0 -0 -1
  outer loop
   vertex 0.00652348 0.00931164 0.15
   vertex 0.00680386 0.00910447 0.15
   vertex -0.00764917 -0.00911593 0.15
  endloop
 endfacet
 facet normal 0 -0 -1
  outer loop
   vertex 0.00680386 0.00910447 0.15
   vertex 0.0070151 0.00893547 0.15
   vertex -0.00764917 -0.00911593 0.15
  endloop
 endfacet
 facet normal 0 0 -1
  outer loop
   vertex -0.00764917 -0.00911593 0.15
   vertex 0.0070151 0.00893547 0.15
   vertex -0.00724426 -0.0094409 0.15
  endloop
 endfacet
 facet normal 0 0 -1
  outer loop
   vertex 0.0070151 0.00893547 0.15
   vertex -0.00682556 -0.00974791 0.15
   vertex -0.00724426 -0.0094409 0.15
  endloop
 endfacet
 facet normal 0 0 -1
  outer loop
   vertex -0.0105554 0.00549481 0.15
   vertex -0.0103057 0.00595 0.15
   vertex -0.00595 0.0103057 0.15
  endloop
 endfacet
 facet normal 0 0 -1
  outer loop
   vertex -0.0103057 0.00595 0.15
   vertex -0.0100364 0.00639387 0.15
   vertex -0.00595 0.0103057 0.15
  endloop
 endfacet
 facet normal 0 0 -1
  outer loop
   vertex -0.00595 0.0103057 0.15
   vertex -0.0100364 0.00639387 0.15
   vertex -0.00974791 0.00682556 0.15
  endloop
 endfacet
 facet normal 0 0 -1
  outer loop
   vertex -0.00974791 0.00682556 0.15
   vertex -0.0094409 0.00724426 0.15
   vertex -0.00595 0.0103057 0.15
  endloop
 endfacet
 facet normal 0 0 -1
  outer loop
   vertex -0.0094409 0.00724426 0.15
   vertex -0.00911593 0.00764917 0.15
   vertex -0.00595 0.0103057 0.15
  endloop
 endfacet
 facet normal 0 0 -1
  outer loop
   vertex -0.00595 0.0103057 0.15
   vertex -0.00911593 0.00764917 0.15
   vertex -0.0087736 0.00803952 0.15
  endloop
 endfacet
 facet normal 0 0 -1
  outer loop
   vertex -0.0087736 0.00803952 0.15
   vertex -0.00841457 0.00841457 0.15
   vertex -0.00595 0.0103057 0.15
  endloop
 endfacet
 facet normal 0 0 -1
  outer loop
   vertex -0.00841457 0.00841457 0.15
   vertex -0.00803952 0.0087736 0.15
   vertex -0.00595 0.0103057 0.15
  endloop
 endfacet
 facet normal 0 0 -1
  outer loop
   vertex -0.00595 0.0103057 0.15
   vertex -0.00803952 0.0087736 0.15
   vertex -0.00764917 0.00911593 0.15
  endloop
 endfacet
 facet normal 0 0 -1
  outer loop
   vertex -0.00764917 0.00911593 0.15
   vertex -0.00724426 0.0094409 0.15
   vertex -0.00595 0.0103057 0.15
  endloop
 endfacet
 facet normal 0 0 -1
  outer loop
   vertex -0.00724426 0.0094409 0.15
   vertex -0.00682556 0.00974791 0.15
   vertex -0.00595 0.0103057 0.15
  endloop
 endfacet
 facet normal 0 0 -1
  outer loop
   vertex -0.00595 0.0103057 0.15
   vertex -0.00682556 0.00974791 0.15
   vertex -0.00639387 0.0100364 0.15
  endloop
 endfacet
 facet normal 0 0 1
  outer loop
   vertex -0.00724426 0.0094409 -0.15
   vertex -0.00764917 0.00911593 -0.15
   vertex 0.0070151 -0.00893547 -0.15
  endloop
 endfacet
 facet normal 0 -0 1
  outer loop
   vertex 0.000787467 -0.0117812 -0.15
   vertex 0.00121574 -0.011691 -0.15
   vertex -0.00764917 0.00911593 -0.15
  endloop
 endfacet
 facet normal 0 0 1
  outer loop
   vertex 0.00218263 0.0114278 -0.15
   vertex 0.00168024 0.0115744 -0.15
   vertex 0.0070151 -0.00893547 -0.15
  endloop
 endfacet
 facet normal 0 -0 1
  outer loop
   vertex 0.00121574 -0.011691 -0.15
   vertex 0.00168024 -0.0115744 -0.15
   vertex -0.00764917 0.00911593 -0.15
  endloop
 endfacet
 facet normal 0 -0 1
  outer loop
   vertex 0.00168024 -0.0115744 -0.15
   vertex 0.00218263 -0.0114278 -0.15
   vertex -0.00764917 0.00911593 -0.15
  endloop
 endfacet
 facet normal 0 0 1
  outer loop
   vertex -0.00764917 0.00911593 -0.15
   vertex 0.00218263 -0.0114278 -0.15
   vertex 0.00272291 -0.0112475 -0.15
  endloop
 endfacet
 facet normal 0 -0 1
  outer loop
   vertex 0.00713104 -0.00883626 -0.15
   vertex 0.00713104 0.00883626 -0.15
   vertex 0.0070151 -0.00893547 -0.15
  endloop
 endfacet
 facet normal 0 0 1
  outer loop
   vertex 0.00713104 0.00883626 -0.15
   vertex 0.0070151 0.00893547 -0.15
   vertex 0.0070151 -0.00893547 -0.15
  endloop
 endfacet
 facet normal 0 -0 1
  outer loop
   vertex 0.0070151 -0.00893547 -0.15
   vertex 0.0070151 0.00893547 -0.15
   vertex 0.00680386 0.00910447 -0.15
  endloop
 endfacet
 facet normal 0 0 1
  outer loop
   vertex 0.00168024 0.0115744 -0.15
   vertex 0.00121574 0.011691 -0.15
   vertex 0.0070151 -0.00893547 -0.15
  endloop
 endfacet
 facet normal 0 0 1
  outer loop
   vertex 0.00121574 0.011691 -0.15
   vertex 0.000787467 0.0117812 -0.15
   vertex 0.0070151 -0.00893547 -0.15
  endloop
 endfacet
 facet normal 0 0 1
  outer loop
   vertex 0.0070151 -0.00893547 -0.15
   vertex 0.000787467 0.0117812 -0.15
   vertex 0.000394319 0.0118486 -0.15
  endloop
 endfacet
 facet normal 0 -0 1
  outer loop
   vertex 0.00615998 -0.00955917 -0.15
   vertex 0.00652348 -0.00931164 -0.15
   vertex -0.00764917 0.00911593 -0.15
  endloop
 endfacet
 facet normal 0 -0 1
  outer loop
   vertex 0.00652348 -0.00931164 -0.15
   vertex 0.00680386 -0.00910447 -0.15
   vertex -0.00764917 0.00911593 -0.15
  endloop
 endfacet
 facet normal 0 0 1
  outer loop
   vertex -0.00764917 0.00911593 -0.15
   vertex 0.00680386 -0.00910447 -0.15
   vertex 0.0070151 -0.00893547 -0.15
  endloop
 endfacet
 facet normal 0 0 1
  outer loop
   vertex 0.0039017 0.0107767 -0.15
   vertex 0.00329831 0.0110308 -0.15
   vertex 0.0070151 -0.00893547 -0.15
  endloop
 endfacet
 facet normal 0 0 1
  outer loop
   vertex 0.00329831 0.0110308 -0.15
   vertex 0.00272291 0.0112475 -0.15
   vertex 0.0070151 -0.00893547 -0.15
  endloop
 endfacet
 facet normal 0 0 1
  outer loop
   vertex 0.0070151 -0.00893547 -0.15
   vertex 0.00272291 0.0112475 -0.15
   vertex 0.00218263 0.0114278 -0.15
  endloop
 endfacet
 facet normal 0 0 1
  outer loop
   vertex -0.00407004 0.0111823 -0.15
   vertex -0.00455393 0.0109942 -0.15
   vertex 0.0070151 -0.00893547 -0.15
  endloop
 endfacet
 facet normal 0 0 1
  outer loop
   vertex -0.0087736 0.00803952 -0.15
   vertex -0.00911593 0.00764917 -0.15
   vertex 0.000394319 -0.0118486 -0.15
  endloop
 endfacet
 facet normal 0 0 1
  outer loop
   vertex 0.000394319 -0.0118486 -0.15
   vertex -0.0116179 -0.00257563 -0.15
   vertex -0.0114945 -0.00307995 -0.15
  endloop
 endfacet
 facet normal 0 0 1
  outer loop
   vertex -0.0109942 -0.00455393 -0.15
   vertex -0.0107851 -0.00502916 -0.15
   vertex 0.000394319 -0.0118486 -0.15
  endloop
 endfacet
 facet normal 0 0 1
  outer loop
   vertex -0.0107851 -0.00502916 -0.15
   vertex -0.0105554 -0.00549481 -0.15
   vertex 0.000394319 -0.0118486 -0.15
  endloop
 endfacet
 facet normal 0 -0 1
  outer loop
   vertex 0.00272291 -0.0112475 -0.15
   vertex 0.00329831 -0.0110308 -0.15
   vertex -0.00764917 0.00911593 -0.15
  endloop
 endfacet
 facet normal 0 -0 1
  outer loop
   vertex 0.00329831 -0.0110308 -0.15
   vertex 0.0039017 -0.0107767 -0.15
   vertex -0.00764917 0.00911593 -0.15
  endloop
 endfacet
 facet normal 0 0 1
  outer loop
   vertex -0.00764917 0.00911593 -0.15
   vertex 0.0039017 -0.0107767 -0.15
   vertex 0.00451973 -0.0104875 -0.15
  endloop
 endfacet
 facet normal 0 0 1
  outer loop
   vertex -0.00103715 0.0118547 -0.15
   vertex -0.00155326 0.0117982 -0.15
   vertex 0.0070151 -0.00893547 -0.15
  endloop
 endfacet
 facet normal 0 0 1
  outer loop
   vertex -0.00155326 0.0117982 -0.15
   vertex -0.00206641 0.0117192 -0.15
   vertex 0.0070151 -0.00893547 -0.15
  endloop
 endfacet
 facet normal 0 0 1
  outer loop
   vertex 0.0070151 -0.00893547 -0.15
   vertex -0.00206641 0.0117192 -0.15
   vertex -0.00257563 0.0116179 -0.15
  endloop
 endfacet
 facet normal 0 0 1
  outer loop
   vertex -0.00455393 0.0109942 -0.15
   vertex -0.00502916 0.0107851 -0.15
   vertex 0.0070151 -0.00893547 -0.15
  endloop
 endfacet
 facet normal 0 0 1
  outer loop
   vertex -0.00502916 0.0107851 -0.15
   vertex -0.00549481 0.0105554 -0.15
   vertex 0.0070151 -0.00893547 -0.15
  endloop
 endfacet
 facet normal 0 0 1
  outer loop
   vertex 0.0070151 -0.00893547 -0.15
   vertex -0.00549481 0.0105554 -0.15
   vertex -0.00595 0.0103057 -0.15
  endloop
 endfacet
 facet normal -0 0 1
  outer loop
   vertex -0.0087736 0.00803952 -0.15
   vertex 0.000394319 -0.0118486 -0.15
   vertex -0.00841457 0.00841457 -0.15
  endloop
 endfacet
 facet normal 0 0 1
  outer loop
   vertex -0.0100364 0.00639387 -0.15
   vertex -0.0103057 0.00595 -0.15
   vertex 0.000394319 -0.0118486 -0.15
  endloop
 endfacet
 facet normal 0 0 1
  outer loop
   vertex -0.0103057 0.00595 -0.15
   vertex -0.0105554 0.00549481 -0.15
   vertex 0.000394319 -0.0118486 -0.15
  endloop
 endfacet
 facet normal 0 0 1
  outer loop
   vertex 0.000394319 -0.0118486 -0.15
   vertex -0.0105554 0.00549481 -0.15
   vertex -0.0107851 0.00502916 -0.15
  endloop
 endfacet
 facet normal 0 0 1
  outer loop
   vertex -0.0107851 0.00502916 -0.15
   vertex -0.0109942 0.00455393 -0.15
   vertex 0.000394319 -0.0118486 -0.15
  endloop
 endfacet
 facet normal 0 0 1
  outer loop
   vertex -0.0109942 0.00455393 -0.15
   vertex -0.0111823 0.00407004 -0.15
   vertex 0.000394319 -0.0118486 -0.15
  endloop
 endfacet
 facet normal 0 0 1
  outer loop
   vertex 0.000394319 -0.0118486 -0.15
   vertex -0.0111823 0.00407004 -0.15
   vertex -0.0113492 0.0035784 -0.15
  endloop
 endfacet
 facet normal 0 0 1
  outer loop
   vertex -0.0117192 0.00206641 -0.15
   vertex -0.0117982 0.00155326 -0.15
   vertex 0.000394319 -0.0118486 -0.15
  endloop
 endfacet
 facet normal 0 0 1
  outer loop
   vertex -0.0117982 0.00155326 -0.15
   vertex -0.0118547 0.00103715 -0.15
   vertex 0.000394319 -0.0118486 -0.15
  endloop
 endfacet
 facet normal 0 0 1
  outer loop
   vertex 0.000394319 -0.0118486 -0.15
   vertex -0.0118547 0.00103715 -0.15
   vertex -0.0118887 0.000519071 -0.15
  endloop
 endfacet
 facet normal 0 0 1
  outer loop
   vertex -0.0114945 -0.00307995 -0.15
   vertex -0.0113492 -0.0035784 -0.15
   vertex 0.000394319 -0.0118486 -0.15
  endloop
 endfacet
 facet normal 0 0 1
  outer loop
   vertex -0.0113492 -0.0035784 -0.15
   vertex -0.0111823 -0.00407004 -0.15
   vertex 0.000394319 -0.0118486 -0.15
  endloop
 endfacet
 facet normal 0 0 1
  outer loop
   vertex 0.000394319 -0.0118486 -0.15
   vertex -0.0111823 -0.00407004 -0.15
   vertex -0.0109942 -0.00455393 -0.15
  endloop
 endfacet
 facet normal 0 0 1
  outer loop
   vertex -0.0105554 -0.00549481 -0.15
   vertex -0.0103057 -0.00595 -0.15
   vertex 0.000394319 -0.0118486 -0.15
  endloop
 endfacet
 facet normal 0 0 1
  outer loop
   vertex -0.0103057 -0.00595 -0.15
   vertex -0.0100364 -0.00639387 -0.15
   vertex 0.000394319 -0.0118486 -0.15
  endloop
 endfacet
 facet normal 0 0 1
  outer loop
   vertex 0.000394319 -0.0118486 -0.15
   vertex -0.0100364 -0.00639387 -0.15
   vertex -0.00974791 -0.00682556 -0.15
  endloop
 endfacet
 facet normal 0 0 1
  outer loop
   vertex -0.00974791 -0.00682556 -0.15
   vertex -0.0094409 -0.00724426 -0.15
   vertex 0.000394319 -0.0118486 -0.15
  endloop
 endfacet
 facet normal 0 0 1
  outer loop
   vertex -0.0094409 -0.00724426 -0.15
   vertex -0.00911593 -0.00764917 -0.15
   vertex 0.000394319 -0.0118486 -0.15
  endloop
 endfacet
 facet normal 0 0 1
  outer loop
   vertex 0.000394319 -0.0118486 -0.15
   vertex -0.00911593 -0.00764917 -0.15
   vertex -0.0087736 -0.00803952 -0.15
  endloop
 endfacet
 facet normal -0 -0 1
  outer loop
   vertex -0.00307995 -0.0114945 -0.15
   vertex -0.00257563 -0.0116179 -0.15
   vertex -0.00803952 -0.0087736 -0.15
  endloop
 endfacet
 facet normal -0 -0 1
  outer loop
   vertex -0.00257563 -0.0116179 -0.15
   vertex -0.00206641 -0.0117192 -0.15
   vertex -0.00803952 -0.0087736 -0.15
  endloop
 endfacet
 facet normal 0 0 1
  outer loop
   vertex 0.000394319 0.0118486 -0.15
   vertex 2.18599e-18 0.0119 -0.15
   vertex 0.0070151 -0.00893547 -0.15
  endloop
 endfacet
 facet normal 0 0 1
  outer loop
   vertex 2.18599e-18 0.0119 -0.15
   vertex -0.000519071 0.0118887 -0.15
   vertex 0.0070151 -0.00893547 -0.15
  endloop
 endfacet
 facet normal 0 0 1
  outer loop
   vertex 0.0070151 -0.00893547 -0.15
   vertex -0.000519071 0.0118887 -0.15
   vertex -0.00103715 0.0118547 -0.15
  endloop
 endfacet
 facet normal 0 0 1
  outer loop
   vertex -0.00257563 0.0116179 -0.15
   vertex -0.00307995 0.0114945 -0.15
   vertex 0.0070151 -0.00893547 -0.15
  endloop
 endfacet
 facet normal 0 0 1
  outer loop
   vertex -0.00307995 0.0114945 -0.15
   vertex -0.0035784 0.0113492 -0.15
   vertex 0.0070151 -0.00893547 -0.15
  endloop
 endfacet
 facet normal 0 0 1
  outer loop
   vertex 0.0070151 -0.00893547 -0.15
   vertex -0.0035784 0.0113492 -0.15
   vertex -0.00407004 0.0111823 -0.15
  endloop
 endfacet
 facet normal 0 0 1
  outer loop
   vertex -0.00595 0.0103057 -0.15
   vertex -0.00639387 0.0100364 -0.15
   vertex 0.0070151 -0.00893547 -0.15
  endloop
 endfacet
 facet normal 0 0 1
  outer loop
   vertex -0.00639387 0.0100364 -0.15
   vertex -0.00682556 0.00974791 -0.15
   vertex 0.0070151 -0.00893547 -0.15
  endloop
 endfacet
 facet normal 0 0 1
  outer loop
   vertex 0.0070151 -0.00893547 -0.15
   vertex -0.00682556 0.00974791 -0.15
   vertex -0.00724426 0.0094409 -0.15
  endloop
 endfacet
 facet normal 0 0 1
  outer loop
   vertex 0.000787467 -0.0117812 -0.15
   vertex -0.00764917 0.00911593 -0.15
   vertex 0.000394319 -0.0118486 -0.15
  endloop
 endfacet
 facet normal 0 0 1
  outer loop
   vertex -0.00764917 0.00911593 -0.15
   vertex -0.00803952 0.0087736 -0.15
   vertex 0.000394319 -0.0118486 -0.15
  endloop
 endfacet
 facet normal 0 0 1
  outer loop
   vertex 0.000394319 -0.0118486 -0.15
   vertex -0.00803952 0.0087736 -0.15
   vertex -0.00841457 0.00841457 -0.15
  endloop
 endfacet
 facet normal 0 0 1
  outer loop
   vertex -0.0113492 0.0035784 -0.15
   vertex -0.0114945 0.00307995 -0.15
   vertex 0.000394319 -0.0118486 -0.15
  endloop
 endfacet
 facet normal 0 0 1
  outer loop
   vertex -0.0114945 0.00307995 -0.15
   vertex -0.0116179 0.00257563 -0.15
   vertex 0.000394319 -0.0118486 -0.15
  endloop
 endfacet
 facet normal 0 0 1
  outer loop
   vertex 0.000394319 -0.0118486 -0.15
   vertex -0.0116179 0.00257563 -0.15
   vertex -0.0117192 0.00206641 -0.15
  endloop
 endfacet
 facet normal 0 0 1
  outer loop
   vertex -0.0118887 0.000519071 -0.15
   vertex -0.0119 -1.45733e-18 -0.15
   vertex 0.000394319 -0.0118486 -0.15
  endloop
 endfacet
 facet normal 0 0 1
  outer loop
   vertex -0.0119 -1.45733e-18 -0.15
   vertex -0.0118887 -0.000519071 -0.15
   vertex 0.000394319 -0.0118486 -0.15
  endloop
 endfacet
 facet normal 0 0 1
  outer loop
   vertex 0.000394319 -0.0118486 -0.15
   vertex -0.0118887 -0.000519071 -0.15
   vertex -0.0118547 -0.00103715 -0.15
  endloop
 endfacet
 facet normal 0 0 1
  outer loop
   vertex -0.0118547 -0.00103715 -0.15
   vertex -0.0117982 -0.00155326 -0.15
   vertex 0.000394319 -0.0118486 -0.15
  endloop
 endfacet
 facet normal 0 0 1
  outer loop
   vertex -0.0117982 -0.00155326 -0.15
   vertex -0.0117192 -0.00206641 -0.15
   vertex 0.000394319 -0.0118486 -0.15
  endloop
 endfacet
 facet normal 0 0 1
  outer loop
   vertex 0.000394319 -0.0118486 -0.15
   vertex -0.0117192 -0.00206641 -0.15
   vertex -0.0116179 -0.00257563 -0.15
  endloop
 endfacet
 facet normal 0 0 1
  outer loop
   vertex -0.00724426 -0.0094409 -0.15
   vertex -0.00682556 -0.00974791 -0.15
   vertex -0.0035784 -0.0113492 -0.15
  endloop
 endfacet
 facet normal -0 -0 1
  outer loop
   vertex -0.00502916 -0.0107851 -0.15
   vertex -0.00455393 -0.0109942 -0.15
   vertex -0.00549481 -0.0105554 -0.15
  endloop
 endfacet
 facet normal 0 0 1
  outer loop
   vertex -0.00455393 -0.0109942 -0.15
   vertex -0.00595 -0.0103057 -0.15
   vertex -0.00549481 -0.0105554 -0.15
  endloop
 endfacet
 facet normal 0 -0 1
  outer loop
   vertex 0.00451973 -0.0104875 -0.15
   vertex 0.00513125 -0.0101711 -0.15
   vertex -0.00764917 0.00911593 -0.15
  endloop
 endfacet
 facet normal 0 -0 1
  outer loop
   vertex 0.00513125 -0.0101711 -0.15
   vertex 0.0057077 -0.00984216 -0.15
   vertex -0.00764917 0.00911593 -0.15
  endloop
 endfacet
 facet normal 0 0 1
  outer loop
   vertex -0.00764917 0.00911593 -0.15
   vertex 0.0057077 -0.00984216 -0.15
   vertex 0.00615998 -0.00955917 -0.15
  endloop
 endfacet
 facet normal 0 0 1
  outer loop
   vertex 0.00680386 0.00910447 -0.15
   vertex 0.00652348 0.00931164 -0.15
   vertex 0.0070151 -0.00893547 -0.15
  endloop
 endfacet
 facet normal 0 0 1
  outer loop
   vertex 0.00652348 0.00931164 -0.15
   vertex 0.00615998 0.00955917 -0.15
   vertex 0.0070151 -0.00893547 -0.15
  endloop
 endfacet
 facet normal 0 0 1
  outer loop
   vertex 0.0070151 -0.00893547 -0.15
   vertex 0.00615998 0.00955917 -0.15
   vertex 0.0057077 0.00984216 -0.15
  endloop
 endfacet
 facet normal 0 0 1
  outer loop
   vertex -0.00911593 0.00764917 -0.15
   vertex -0.0094409 0.00724426 -0.15
   vertex 0.000394319 -0.0118486 -0.15
  endloop
 endfacet
 facet normal 0 0 1
  outer loop
   vertex -0.0094409 0.00724426 -0.15
   vertex -0.00974791 0.00682556 -0.15
   vertex 0.000394319 -0.0118486 -0.15
  endloop
 endfacet
 facet normal 0 0 1
  outer loop
   vertex 0.000394319 -0.0118486 -0.15
   vertex -0.00974791 0.00682556 -0.15
   vertex -0.0100364 0.00639387 -0.15
  endloop
 endfacet
 facet normal 0 0 1
  outer loop
   vertex -0.00307995 -0.0114945 -0.15
   vertex -0.00803952 -0.0087736 -0.15
   vertex -0.0035784 -0.0113492 -0.15
  endloop
 endfacet
 facet normal 0 0 1
  outer loop
   vertex -0.00803952 -0.0087736 -0.15
   vertex -0.00764917 -0.00911593 -0.15
   vertex -0.0035784 -0.0113492 -0.15
  endloop
 endfacet
 facet normal 0 0 1
  outer loop
   vertex -0.0035784 -0.0113492 -0.15
   vertex -0.00764917 -0.00911593 -0.15
   vertex -0.00724426 -0.0094409 -0.15
  endloop
 endfacet
 facet normal -0 -0 1
  outer loop
   vertex -0.00455393 -0.0109942 -0.15
   vertex -0.00407004 -0.0111823 -0.15
   vertex -0.00595 -0.0103057 -0.15
  endloop
 endfacet
 facet normal -0 -0 1
  outer loop
   vertex -0.00407004 -0.0111823 -0.15
   vertex -0.0035784 -0.0113492 -0.15
   vertex -0.00595 -0.0103057 -0.15
  endloop
 endfacet
 facet normal -0 -0 1
  outer loop
   vertex -0.00595 -0.0103057 -0.15
   vertex -0.0035784 -0.0113492 -0.15
   vertex -0.00639387 -0.0100364 -0.15
  endloop
 endfacet
 facet normal 0 0 1
  outer loop
   vertex -0.0035784 -0.0113492 -0.15
   vertex -0.00682556 -0.00974791 -0.15
   vertex -0.00639387 -0.0100364 -0.15
  endloop
 endfacet
 facet normal -0 -0 1
  outer loop
   vertex -0.00206641 -0.0117192 -0.15
   vertex -0.00155326 -0.0117982 -0.15
   vertex -0.00803952 -0.0087736 -0.15
  endloop
 endfacet
 facet normal -0 -0 1
  outer loop
   vertex -0.00155326 -0.0117982 -0.15
   vertex -0.00103715 -0.0118547 -0.15
   vertex -0.00803952 -0.0087736 -0.15
  endloop
 endfacet
 facet normal 0 0 1
  outer loop
   vertex -0.00803952 -0.0087736 -0.15
   vertex -0.00103715 -0.0118547 -0.15
   vertex -0.000519071 -0.0118887 -0.15
  endloop
 endfacet
 facet normal 0 0 1
  outer loop
   vertex 0.0057077 0.00984216 -0.15
   vertex 0.00513125 0.0101711 -0.15
   vertex 0.0070151 -0.00893547 -0.15
  endloop
 endfacet
 facet normal 0 0 1
  outer loop
   vertex 0.00513125 0.0101711 -0.15
   vertex 0.00451973 0.0104875 -0.15
   vertex 0.0070151 -0.00893547 -0.15
  endloop
 endfacet
 facet normal 0 0 1
  outer loop
   vertex 0.0070151 -0.00893547 -0.15
   vertex 0.00451973 0.0104875 -0.15
   vertex 0.0039017 0.0107767 -0.15
  endloop
 endfacet
 facet normal 0 0 1
  outer loop
   vertex -0.0087736 -0.00803952 -0.15
   vertex -0.00841457 -0.00841457 -0.15
   vertex 0.000394319 -0.0118486 -0.15
  endloop
 endfacet
 facet normal 0 0 1
  outer loop
   vertex -0.00841457 -0.00841457 -0.15
   vertex -0.00803952 -0.0087736 -0.15
   vertex 0.000394319 -0.0118486 -0.15
  endloop
 endfacet
 facet normal 0 0 1
  outer loop
   vertex 0.000394319 -0.0118486 -0.15
   vertex -0.00803952 -0.0087736 -0.15
   vertex -7.28665e-19 -0.0119 -0.15
  endloop
 endfacet
 facet normal 0 0 1
  outer loop
   vertex -0.00803952 -0.0087736 -0.15
   vertex -0.000519071 -0.0118887 -0.15
   vertex -7.28665e-19 -0.0119 -0.15
  endloop
 endfacet
 facet normal -1 0 0
  outer loop
   vertex 0.00713104 0.00883626 -0.15
   vertex 0.00713104 -0.00883626 -0.15
   vertex 0.00713104 0.00883626 0.15
  endloop
 endfacet
 facet normal -1 0 0
  outer loop
   vertex 0.00713104 -0.00883626 -0.15
   vertex 0.00713104 -0.00883626 0.15
   vertex 0.00713104 0.00883626 0.15
  endloop
 endfacet
 facet normal -0.129259 0.991611 0
  outer loop
   vertex -7.28665e-19 -0.0119 -0.15
   vertex -7.28665e-19 -0.0119 0.15
   vertex 0.000394319 -0.0118486 0.15
  endloop
 endfacet
 facet normal -0.129259 0.991611 0
  outer loop
   vertex -7.28665e-19 -0.0119 -0.15
   vertex 0.000394319 -0.0118486 0.15
   vertex 0.000394319 -0.0118486 -0.15
  endloop
 endfacet
 facet normal -0.168971 0.985621 0
  outer loop
   vertex 0.000394319 -0.0118486 0.15
   vertex 0.000787467 -0.0117812 0.15
   vertex 0.000394319 -0.0118486 -0.15
  endloop
 endfacet
 facet normal -0.168971 0.985621 0
  outer loop
   vertex 0.000394319 -0.0118486 -0.15
   vertex 0.000787467 -0.0117812 0.15
   vertex 0.000787467 -0.0117812 -0.15
  endloop
 endfacet
 facet normal -0.206091 0.978533 0
  outer loop
   vertex 0.000787467 -0.0117812 0.15
   vertex 0.00121574 -0.011691 0.15
   vertex 0.000787467 -0.0117812 -0.15
  endloop
 endfacet
 facet normal -0.206091 0.978533 0
  outer loop
   vertex 0.000787467 -0.0117812 -0.15
   vertex 0.00121574 -0.011691 0.15
   vertex 0.00121574 -0.011691 -0.15
  endloop
 endfacet
 facet normal -0.24347 0.969908 0
  outer loop
   vertex 0.00121574 -0.011691 0.15
   vertex 0.00168024 -0.0115744 0.15
   vertex 0.00121574 -0.011691 -0.15
  endloop
 endfacet
 facet normal -0.24347 0.969908 0
  outer loop
   vertex 0.00121574 -0.011691 -0.15
   vertex 0.00168024 -0.0115744 0.15
   vertex 0.00168024 -0.0115744 -0.15
  endloop
 endfacet
 facet normal -0.280122 0.959964 0
  outer loop
   vertex 0.00168024 -0.0115744 0.15
   vertex 0.00218263 -0.0114278 0.15
   vertex 0.00168024 -0.0115744 -0.15
  endloop
 endfacet
 facet normal -0.280122 0.959964 0
  outer loop
   vertex 0.00168024 -0.0115744 -0.15
   vertex 0.00218263 -0.0114278 0.15
   vertex 0.00218263 -0.0114278 -0.15
  endloop
 endfacet
 facet normal -0.316555 0.948574 0
  outer loop
   vertex 0.00218263 -0.0114278 0.15
   vertex 0.00272291 -0.0112475 0.15
   vertex 0.00218263 -0.0114278 -0.15
  endloop
 endfacet
 facet normal -0.316555 0.948574 0
  outer loop
   vertex 0.00218263 -0.0114278 -0.15
   vertex 0.00272291 -0.0112475 0.15
   vertex 0.00272291 -0.0112475 -0.15
  endloop
 endfacet
 facet normal -0.352442 0.935834 0
  outer loop
   vertex 0.00272291 -0.0112475 0.15
   vertex 0.00329831 -0.0110308 0.15
   vertex 0.00272291 -0.0112475 -0.15
  endloop
 endfacet
 facet normal -0.352442 0.935834 0
  outer loop
   vertex 0.00272291 -0.0112475 -0.15
   vertex 0.00329831 -0.0110308 0.15
   vertex 0.00329831 -0.0110308 -0.15
  endloop
 endfacet
 facet normal -0.388109 0.921613 0
  outer loop
   vertex 0.00329831 -0.0110308 0.15
   vertex 0.0039017 -0.0107767 0.15
   vertex 0.00329831 -0.0110308 -0.15
  endloop
 endfacet
 facet normal -0.388109 0.921613 0
  outer loop
   vertex 0.00329831 -0.0110308 -0.15
   vertex 0.0039017 -0.0107767 0.15
   vertex 0.0039017 -0.0107767 -0.15
  endloop
 endfacet
 facet normal -0.423832 0.905741 0
  outer loop
   vertex 0.0039017 -0.0107767 0.15
   vertex 0.00451973 -0.0104875 0.15
   vertex 0.0039017 -0.0107767 -0.15
  endloop
 endfacet
 facet normal -0.423832 0.905741 0
  outer loop
   vertex 0.0039017 -0.0107767 -0.15
   vertex 0.00451973 -0.0104875 0.15
   vertex 0.00451973 -0.0104875 -0.15
  endloop
 endfacet
 facet normal -0.459534 0.88816 0
  outer loop
   vertex 0.00451973 -0.0104875 0.15
   vertex 0.00513125 -0.0101711 0.15
   vertex 0.00451973 -0.0104875 -0.15
  endloop
 endfacet
 facet normal -0.459534 0.88816 0
  outer loop
   vertex 0.00451973 -0.0104875 -0.15
   vertex 0.00513125 -0.0101711 0.15
   vertex 0.00513125 -0.0101711 -0.15
  endloop
 endfacet
 facet normal -0.495616 0.868542 0
  outer loop
   vertex 0.00513125 -0.0101711 0.15
   vertex 0.0057077 -0.00984216 0.15
   vertex 0.00513125 -0.0101711 -0.15
  endloop
 endfacet
 facet normal -0.495616 0.868542 0
  outer loop
   vertex 0.00513125 -0.0101711 -0.15
   vertex 0.0057077 -0.00984216 0.15
   vertex 0.0057077 -0.00984216 -0.15
  endloop
 endfacet
 facet normal -0.530423 0.847733 0
  outer loop
   vertex 0.0057077 -0.00984216 0.15
   vertex 0.00615998 -0.00955917 0.15
   vertex 0.0057077 -0.00984216 -0.15
  endloop
 endfacet
 facet normal -0.530423 0.847733 0
  outer loop
   vertex 0.0057077 -0.00984216 -0.15
   vertex 0.00615998 -0.00955917 0.15
   vertex 0.00615998 -0.00955917 -0.15
  endloop
 endfacet
 facet normal -0.562855 0.826556 0
  outer loop
   vertex 0.00615998 -0.00955917 0.15
   vertex 0.00652348 -0.00931164 0.15
   vertex 0.00615998 -0.00955917 -0.15
  endloop
 endfacet
 facet normal -0.562855 0.826556 0
  outer loop
   vertex 0.00615998 -0.00955917 -0.15
   vertex 0.00652348 -0.00931164 0.15
   vertex 0.00652348 -0.00931164 -0.15
  endloop
 endfacet
 facet normal -0.594266 0.804268 0
  outer loop
   vertex 0.00652348 -0.00931164 0.15
   vertex 0.00680386 -0.00910447 0.15
   vertex 0.00652348 -0.00931164 -0.15
  endloop
 endfacet
 facet normal -0.594266 0.804268 0
  outer loop
   vertex 0.00652348 -0.00931164 -0.15
   vertex 0.00680386 -0.00910447 0.15
   vertex 0.00680386 -0.00910447 -0.15
  endloop
 endfacet
 facet normal -0.624712 0.780855 0
  outer loop
   vertex 0.00680386 -0.00910447 0.15
   vertex 0.0070151 -0.00893547 0.15
   vertex 0.00680386 -0.00910447 -0.15
  endloop
 endfacet
 facet normal -0.624712 0.780855 0
  outer loop
   vertex 0.00680386 -0.00910447 -0.15
   vertex 0.0070151 -0.00893547 0.15
   vertex 0.0070151 -0.00893547 -0.15
  endloop
 endfacet
 facet normal -0.65016 0.759797 0
  outer loop
   vertex 0.0070151 -0.00893547 0.15
   vertex 0.00713104 -0.00883626 0.15
   vertex 0.0070151 -0.00893547 -0.15
  endloop
 endfacet
 facet normal -0.65016 0.759797 0
  outer loop
   vertex 0.0070151 -0.00893547 -0.15
   vertex 0.00713104 -0.00883626 0.15
   vertex 0.00713104 -0.00883626 -0.15
  endloop
 endfacet
 facet normal -0.65016 -0.759797 0
  outer loop
   vertex 0.00713104 0.00883626 -0.15
   vertex 0.00713104 0.00883626 0.15
   vertex 0.0070151 0.00893547 0.15
  endloop
 endfacet
 facet normal -0.65016 -0.759797 0
  outer loop
   vertex 0.00713104 0.00883626 -0.15
   vertex 0.0070151 0.00893547 0.15
   vertex 0.0070151 0.00893547 -0.15
  endloop
 endfacet
 facet normal -0.624712 -0.780855 -0
  outer loop
   vertex 0.0070151 0.00893547 0.15
   vertex 0.00680386 0.00910447 0.15
   vertex 0.0070151 0.00893547 -0.15
  endloop
 endfacet
 facet normal -0.624712 -0.780855 0
  outer loop
   vertex 0.0070151 0.00893547 -0.15
   vertex 0.00680386 0.00910447 0.15
   vertex 0.00680386 0.00910447 -0.15
  endloop
 endfacet
 facet normal -0.594266 -0.804268 -0
  outer loop
   vertex 0.00680386 0.00910447 0.15
   vertex 0.00652348 0.00931164 0.15
   vertex 0.00680386 0.00910447 -0.15
  endloop
 endfacet
 facet normal -0.594266 -0.804268 0
  outer loop
   vertex 0.00680386 0.00910447 -0.15
   vertex 0.00652348 0.00931164 0.15
   vertex 0.00652348 0.00931164 -0.15
  endloop
 endfacet
 facet normal -0.562855 -0.826556 -0
  outer loop
   vertex 0.00652348 0.00931164 0.15
   vertex 0.00615998 0.00955917 0.15
   vertex 0.00652348 0.00931164 -0.15
  endloop
 endfacet
 facet normal -0.562855 -0.826556 0
  outer loop
   vertex 0.00652348 0.00931164 -0.15
   vertex 0.00615998 0.00955917 0.15
   vertex 0.00615998 0.00955917 -0.15
  endloop
 endfacet
 facet normal -0.530423 -0.847733 -0
  outer loop
   vertex 0.00615998 0.00955917 0.15
   vertex 0.0057077 0.00984216 0.15
   vertex 0.00615998 0.00955917 -0.15
  endloop
 endfacet
 facet normal -0.530423 -0.847733 0
  outer loop
   vertex 0.00615998 0.00955917 -0.15
   vertex 0.0057077 0.00984216 0.15
   vertex 0.0057077 0.00984216 -0.15
  endloop
 endfacet
 facet normal -0.495616 -0.868542 -0
  outer loop
   vertex 0.0057077 0.00984216 0.15
   vertex 0.00513125 0.0101711 0.15
   vertex 0.0057077 0.00984216 -0.15
  endloop
 endfacet
 facet normal -0.495616 -0.868542 0
  outer loop
   vertex 0.0057077 0.00984216 -0.15
   vertex 0.00513125 0.0101711 0.15
   vertex 0.00513125 0.0101711 -0.15
  endloop
 endfacet
 facet normal -0.459534 -0.88816 -0
  outer loop
   vertex 0.00513125 0.0101711 0.15
   vertex 0.00451973 0.0104875 0.15
   vertex 0.00513125 0.0101711 -0.15
  endloop
 endfacet
 facet normal -0.459534 -0.88816 0
  outer loop
   vertex 0.00513125 0.0101711 -0.15
   vertex 0.00451973 0.0104875 0.15
   vertex 0.00451973 0.0104875 -0.15
  endloop
 endfacet
 facet normal -0.423832 -0.905741 -0
  outer loop
   vertex 0.00451973 0.0104875 0.15
   vertex 0.0039017 0.0107767 0.15
   vertex 0.00451973 0.0104875 -0.15
  endloop
 endfacet
 facet normal -0.423832 -0.905741 0
  outer loop
   vertex 0.00451973 0.0104875 -0.15
   vertex 0.0039017 0.0107767 0.15
   vertex 0.0039017 0.0107767 -0.15
  endloop
 endfacet
 facet normal -0.388109 -0.921613 -0
  outer loop
   vertex 0.0039017 0.0107767 0.15
   vertex 0.00329831 0.0110308 0.15
   vertex 0.0039017 0.0107767 -0.15
  endloop
 endfacet
 facet normal -0.388109 -0.921613 0
  outer loop
   vertex 0.0039017 0.0107767 -0.15
   vertex 0.00329831 0.0110308 0.15
   vertex 0.00329831 0.0110308 -0.15
  endloop
 endfacet
 facet normal -0.352442 -0.935834 -0
  outer loop
   vertex 0.00329831 0.0110308 0.15
   vertex 0.00272291 0.0112475 0.15
   vertex 0.00329831 0.0110308 -0.15
  endloop
 endfacet
 facet normal -0.352442 -0.935834 0
  outer loop
   vertex 0.00329831 0.0110308 -0.15
   vertex 0.00272291 0.0112475 0.15
   vertex 0.00272291 0.0112475 -0.15
  endloop
 endfacet
 facet normal -0.316555 -0.948574 -0
  outer loop
   vertex 0.00272291 0.0112475 0.15
   vertex 0.00218263 0.0114278 0.15
   vertex 0.00272291 0.0112475 -0.15
  endloop
 endfacet
 facet normal -0.316555 -0.948574 0
  outer loop
   vertex 0.00272291 0.0112475 -0.15
   vertex 0.00218263 0.0114278 0.15
   vertex 0.00218263 0.0114278 -0.15
  endloop
 endfacet
 facet normal -0.280122 -0.959964 -0
  outer loop
   vertex 0.00218263 0.0114278 0.15
   vertex 0.00168024 0.0115744 0.15
   vertex 0.00218263 0.0114278 -0.15
  endloop
 endfacet
 facet normal -0.280122 -0.959964 0
  outer loop
   vertex 0.00218263 0.0114278 -0.15
   vertex 0.00168024 0.0115744 0.15
   vertex 0.00168024 0.0115744 -0.15
  endloop
 endfacet
 facet normal -0.24347 -0.969908 -0
  outer loop
   vertex 0.00168024 0.0115744 0.15
   vertex 0.00121574 0.011691 0.15
   vertex 0.00168024 0.0115744 -0.15
  endloop
 endfacet
 facet normal -0.24347 -0.969908 0
  outer loop
   vertex 0.00168024 0.0115744 -0.15
   vertex 0.00121574 0.011691 0.15
   vertex 0.00121574 0.011691 -0.15
  endloop
 endfacet
 facet normal -0.206091 -0.978533 -0
  outer loop
   vertex 0.00121574 0.011691 0.15
   vertex 0.000787467 0.0117812 0.15
   vertex 0.00121574 0.011691 -0.15
  endloop
 endfacet
 facet normal -0.206091 -0.978533 0
  outer loop
   vertex 0.00121574 0.011691 -0.15
   vertex 0.000787467 0.0117812 0.15
   vertex 0.000787467 0.0117812 -0.15
  endloop
 endfacet
 facet normal -0.168971 -0.985621 -0
  outer loop
   vertex 0.000787467 0.0117812 0.15
   vertex 0.000394319 0.0118486 0.15
   vertex 0.000787467 0.0117812 -0.15
  endloop
 endfacet
 facet normal -0.168971 -0.985621 0
  outer loop
   vertex 0.000787467 0.0117812 -0.15
   vertex 0.000394319 0.0118486 0.15
   vertex 0.000394319 0.0118486 -0.15
  endloop
 endfacet
 facet normal -0.129259 -0.991611 -0
  outer loop
   vertex 0.000394319 0.0118486 0.15
   vertex 2.18599e-18 0.0119 0.15
   vertex 0.000394319 0.0118486 -0.15
  endloop
 endfacet
 facet normal -0.129259 -0.991611 0
  outer loop
   vertex 0.000394319 0.0118486 -0.15
   vertex 2.18599e-18 0.0119 0.15
   vertex 2.18599e-18 0.0119 -0.15
  endloop
 endfacet
 facet normal 0.0217658 -0.999763 0
  outer loop
   vertex 2.18599e-18 0.0119 -0.15
   vertex 2.18599e-18 0.0119 0.15
   vertex -0.000519071 0.0118887 0.15
  endloop
 endfacet
 facet normal 0.0217658 -0.999763 0
  outer loop
   vertex 2.18599e-18 0.0119 -0.15
   vertex -0.000519071 0.0118887 0.15
   vertex -0.000519071 0.0118887 -0.15
  endloop
 endfacet
 facet normal 0.0654858 -0.997854 0
  outer loop
   vertex -0.000519071 0.0118887 0.15
   vertex -0.00103715 0.0118547 0.15
   vertex -0.000519071 0.0118887 -0.15
  endloop
 endfacet
 facet normal 0.0654858 -0.997854 0
  outer loop
   vertex -0.000519071 0.0118887 -0.15
   vertex -0.00103715 0.0118547 0.15
   vertex -0.00103715 0.0118547 -0.15
  endloop
 endfacet
 facet normal 0.108822 -0.994061 0
  outer loop
   vertex -0.00103715 0.0118547 0.15
   vertex -0.00155326 0.0117982 0.15
   vertex -0.00103715 0.0118547 -0.15
  endloop
 endfacet
 facet normal 0.108822 -0.994061 0
  outer loop
   vertex -0.00103715 0.0118547 -0.15
   vertex -0.00155326 0.0117982 0.15
   vertex -0.00155326 0.0117982 -0.15
  endloop
 endfacet
 facet normal 0.152159 -0.988356 0
  outer loop
   vertex -0.00155326 0.0117982 0.15
   vertex -0.00206641 0.0117192 0.15
   vertex -0.00155326 0.0117982 -0.15
  endloop
 endfacet
 facet normal 0.152159 -0.988356 0
  outer loop
   vertex -0.00155326 0.0117982 -0.15
   vertex -0.00206641 0.0117192 0.15
   vertex -0.00206641 0.0117192 -0.15
  endloop
 endfacet
 facet normal 0.195108 -0.980782 0
  outer loop
   vertex -0.00206641 0.0117192 0.15
   vertex -0.00257563 0.0116179 0.15
   vertex -0.00206641 0.0117192 -0.15
  endloop
 endfacet
 facet normal 0.195108 -0.980782 0
  outer loop
   vertex -0.00206641 0.0117192 -0.15
   vertex -0.00257563 0.0116179 0.15
   vertex -0.00257563 0.0116179 -0.15
  endloop
 endfacet
 facet normal 0.237675 -0.971345 0
  outer loop
   vertex -0.00257563 0.0116179 0.15
   vertex -0.00307995 0.0114945 0.15
   vertex -0.00257563 0.0116179 -0.15
  endloop
 endfacet
 facet normal 0.237675 -0.971345 0
  outer loop
   vertex -0.00257563 0.0116179 -0.15
   vertex -0.00307995 0.0114945 0.15
   vertex -0.00307995 0.0114945 -0.15
  endloop
 endfacet
 facet normal 0.279855 -0.960042 0
  outer loop
   vertex -0.00307995 0.0114945 0.15
   vertex -0.0035784 0.0113492 0.15
   vertex -0.00307995 0.0114945 -0.15
  endloop
 endfacet
 facet normal 0.279855 -0.960042 0
  outer loop
   vertex -0.00307995 0.0114945 -0.15
   vertex -0.0035784 0.0113492 0.15
   vertex -0.0035784 0.0113492 -0.15
  endloop
 endfacet
 facet normal 0.321459 -0.946924 0
  outer loop
   vertex -0.0035784 0.0113492 0.15
   vertex -0.00407004 0.0111823 0.15
   vertex -0.0035784 0.0113492 -0.15
  endloop
 endfacet
 facet normal 0.321459 -0.946924 0
  outer loop
   vertex -0.0035784 0.0113492 -0.15
   vertex -0.00407004 0.0111823 0.15
   vertex -0.00407004 0.0111823 -0.15
  endloop
 endfacet
 facet normal 0.362314 -0.932056 0
  outer loop
   vertex -0.00407004 0.0111823 0.15
   vertex -0.00455393 0.0109942 0.15
   vertex -0.00407004 0.0111823 -0.15
  endloop
 endfacet
 facet normal 0.362314 -0.932056 0
  outer loop
   vertex -0.00407004 0.0111823 -0.15
   vertex -0.00455393 0.0109942 0.15
   vertex -0.00455393 0.0109942 -0.15
  endloop
 endfacet
 facet normal 0.402736 -0.915316 0
  outer loop
   vertex -0.00455393 0.0109942 0.15
   vertex -0.00502916 0.0107851 0.15
   vertex -0.00455393 0.0109942 -0.15
  endloop
 endfacet
 facet normal 0.402736 -0.915316 0
  outer loop
   vertex -0.00455393 0.0109942 -0.15
   vertex -0.00502916 0.0107851 0.15
   vertex -0.00502916 0.0107851 -0.15
  endloop
 endfacet
 facet normal 0.442393 -0.896821 0
  outer loop
   vertex -0.00502916 0.0107851 0.15
   vertex -0.00549481 0.0105554 0.15
   vertex -0.00502916 0.0107851 -0.15
  endloop
 endfacet
 facet normal 0.442393 -0.896821 0
  outer loop
   vertex -0.00502916 0.0107851 -0.15
   vertex -0.00549481 0.0105554 0.15
   vertex -0.00549481 0.0105554 -0.15
  endloop
 endfacet
 facet normal 0.48095 -0.876748 0
  outer loop
   vertex -0.00549481 0.0105554 0.15
   vertex -0.00595 0.0103057 0.15
   vertex -0.00549481 0.0105554 -0.15
  endloop
 endfacet
 facet normal 0.48095 -0.876748 0
  outer loop
   vertex -0.00549481 0.0105554 -0.15
   vertex -0.00595 0.0103057 0.15
   vertex -0.00595 0.0103057 -0.15
  endloop
 endfacet
 facet normal 0.518708 -0.854952 0
  outer loop
   vertex -0.00595 0.0103057 0.15
   vertex -0.00639387 0.0100364 0.15
   vertex -0.00595 0.0103057 -0.15
  endloop
 endfacet
 facet normal 0.518708 -0.854952 0
  outer loop
   vertex -0.00595 0.0103057 -0.15
   vertex -0.00639387 0.0100364 0.15
   vertex -0.00639387 0.0100364 -0.15
  endloop
 endfacet
 facet normal 0.555628 -0.831431 0
  outer loop
   vertex -0.00639387 0.0100364 0.15
   vertex -0.00682556 0.00974791 0.15
   vertex -0.00639387 0.0100364 -0.15
  endloop
 endfacet
 facet normal 0.555628 -0.831431 0
  outer loop
   vertex -0.00639387 0.0100364 -0.15
   vertex -0.00682556 0.00974791 0.15
   vertex -0.00682556 0.00974791 -0.15
  endloop
 endfacet
 facet normal 0.591318 -0.806438 0
  outer loop
   vertex -0.00682556 0.00974791 0.15
   vertex -0.00724426 0.0094409 0.15
   vertex -0.00682556 0.00974791 -0.15
  endloop
 endfacet
 facet normal 0.591318 -0.806438 0
  outer loop
   vertex -0.00682556 0.00974791 -0.15
   vertex -0.00724426 0.0094409 0.15
   vertex -0.00724426 0.0094409 -0.15
  endloop
 endfacet
 facet normal 0.625918 -0.779889 0
  outer loop
   vertex -0.00724426 0.0094409 0.15
   vertex -0.00764917 0.00911593 0.15
   vertex -0.00724426 0.0094409 -0.15
  endloop
 endfacet
 facet normal 0.625918 -0.779889 0
  outer loop
   vertex -0.00724426 0.0094409 -0.15
   vertex -0.00764917 0.00911593 0.15
   vertex -0.00764917 0.00911593 -0.15
  endloop
 endfacet
 facet normal 0.659348 -0.751838 0
  outer loop
   vertex -0.00764917 0.00911593 0.15
   vertex -0.00803952 0.0087736 0.15
   vertex -0.00764917 0.00911593 -0.15
  endloop
 endfacet
 facet normal 0.659348 -0.751838 0
  outer loop
   vertex -0.00764917 0.00911593 -0.15
   vertex -0.00803952 0.0087736 0.15
   vertex -0.00803952 0.0087736 -0.15
  endloop
 endfacet
 facet normal 0.69151 -0.722367 0
  outer loop
   vertex -0.00803952 0.0087736 0.15
   vertex -0.00841457 0.00841457 0.15
   vertex -0.00803952 0.0087736 -0.15
  endloop
 endfacet
 facet normal 0.69151 -0.722367 0
  outer loop
   vertex -0.00803952 0.0087736 -0.15
   vertex -0.00841457 0.00841457 0.15
   vertex -0.00841457 0.00841457 -0.15
  endloop
 endfacet
 facet normal 0.722367 -0.69151 0
  outer loop
   vertex -0.00841457 0.00841457 0.15
   vertex -0.0087736 0.00803952 0.15
   vertex -0.00841457 0.00841457 -0.15
  endloop
 endfacet
 facet normal 0.722367 -0.69151 0
  outer loop
   vertex -0.00841457 0.00841457 -0.15
   vertex -0.0087736 0.00803952 0.15
   vertex -0.0087736 0.00803952 -0.15
  endloop
 endfacet
 facet normal 0.751838 -0.659348 0
  outer loop
   vertex -0.0087736 0.00803952 0.15
   vertex -0.00911593 0.00764917 0.15
   vertex -0.0087736 0.00803952 -0.15
  endloop
 endfacet
 facet normal 0.751838 -0.659348 0
  outer loop
   vertex -0.0087736 0.00803952 -0.15
   vertex -0.00911593 0.00764917 0.15
   vertex -0.00911593 0.00764917 -0.15
  endloop
 endfacet
 facet normal 0.779889 -0.625918 0
  outer loop
   vertex -0.00911593 0.00764917 0.15
   vertex -0.0094409 0.00724426 0.15
   vertex -0.00911593 0.00764917 -0.15
  endloop
 endfacet
 facet normal 0.779889 -0.625918 0
  outer loop
   vertex -0.00911593 0.00764917 -0.15
   vertex -0.0094409 0.00724426 0.15
   vertex -0.0094409 0.00724426 -0.15
  endloop
 endfacet
 facet normal 0.806438 -0.591318 0
  outer loop
   vertex -0.0094409 0.00724426 0.15
   vertex -0.00974791 0.00682556 0.15
   vertex -0.0094409 0.00724426 -0.15
  endloop
 endfacet
 facet normal 0.806438 -0.591318 0
  outer loop
   vertex -0.0094409 0.00724426 -0.15
   vertex -0.00974791 0.00682556 0.15
   vertex -0.00974791 0.00682556 -0.15
  endloop
 endfacet
 facet normal 0.831431 -0.555628 0
  outer loop
   vertex -0.00974791 0.00682556 0.15
   vertex -0.0100364 0.00639387 0.15
   vertex -0.00974791 0.00682556 -0.15
  endloop
 endfacet
 facet normal 0.831431 -0.555628 0
  outer loop
   vertex -0.00974791 0.00682556 -0.15
   vertex -0.0100364 0.00639387 0.15
   vertex -0.0100364 0.00639387 -0.15
  endloop
 endfacet
 facet normal 0.854952 -0.518708 0
  outer loop
   vertex -0.0100364 0.00639387 0.15
   vertex -0.0103057 0.00595 0.15
   vertex -0.0100364 0.00639387 -0.15
  endloop
 endfacet
 facet normal 0.854952 -0.518708 0
  outer loop
   vertex -0.0100364 0.00639387 -0.15
   vertex -0.0103057 0.00595 0.15
   vertex -0.0103057 0.00595 -0.15
  endloop
 endfacet
 facet normal 0.876748 -0.48095 0
  outer loop
   vertex -0.0103057 0.00595 0.15
   vertex -0.0105554 0.00549481 0.15
   vertex -0.0103057 0.00595 -0.15
  endloop
 endfacet
 facet normal 0.876748 -0.48095 0
  outer loop
   vertex -0.0103057 0.00595 -0.15
   vertex -0.0105554 0.00549481 0.15
   vertex -0.0105554 0.00549481 -0.15
  endloop
 endfacet
 facet normal 0.896821 -0.442393 0
  outer loop
   vertex -0.0105554 0.00549481 0.15
   vertex -0.0107851 0.00502916 0.15
   vertex -0.0105554 0.00549481 -0.15
  endloop
 endfacet
 facet normal 0.896821 -0.442393 0
  outer loop
   vertex -0.0105554 0.00549481 -0.15
   vertex -0.0107851 0.00502916 0.15
   vertex -0.0107851 0.00502916 -0.15
  endloop
 endfacet
 facet normal 0.915316 -0.402736 0
  outer loop
   vertex -0.0107851 0.00502916 0.15
   vertex -0.0109942 0.00455393 0.15
   vertex -0.0107851 0.00502916 -0.15
  endloop
 endfacet
 facet normal 0.915316 -0.402736 0
  outer loop
   vertex -0.0107851 0.00502916 -0.15
   vertex -0.0109942 0.00455393 0.15
   vertex -0.0109942 0.00455393 -0.15
  endloop
 endfacet
 facet normal 0.932056 -0.362314 0
  outer loop
   vertex -0.0109942 0.00455393 0.15
   vertex -0.0111823 0.00407004 0.15
   vertex -0.0109942 0.00455393 -0.15
  endloop
 endfacet
 facet normal 0.932056 -0.362314 0
  outer loop
   vertex -0.0109942 0.00455393 -0.15
   vertex -0.0111823 0.00407004 0.15
   vertex -0.0111823 0.00407004 -0.15
  endloop
 endfacet
 facet normal 0.946924 -0.321459 0
  outer loop
   vertex -0.0111823 0.00407004 0.15
   vertex -0.0113492 0.0035784 0.15
   vertex -0.0111823 0.00407004 -0.15
  endloop
 endfacet
 facet normal 0.946924 -0.321459 0
  outer loop
   vertex -0.0111823 0.00407004 -0.15
   vertex -0.0113492 0.0035784 0.15
   vertex -0.0113492 0.0035784 -0.15
  endloop
 endfacet
 facet normal 0.960042 -0.279855 0
  outer loop
   vertex -0.0113492 0.0035784 0.15
   vertex -0.0114945 0.00307995 0.15
   vertex -0.0113492 0.0035784 -0.15
  endloop
 endfacet
 facet normal 0.960042 -0.279855 0
  outer loop
   vertex -0.0113492 0.0035784 -0.15
   vertex -0.0114945 0.00307995 0.15
   vertex -0.0114945 0.00307995 -0.15
  endloop
 endfacet
 facet normal 0.971345 -0.237675 0
  outer loop
   vertex -0.0114945 0.00307995 0.15
   vertex -0.0116179 0.00257563 0.15
   vertex -0.0114945 0.00307995 -0.15
  endloop
 endfacet
 facet normal 0.971345 -0.237675 0
  outer loop
   vertex -0.0114945 0.00307995 -0.15
   vertex -0.0116179 0.00257563 0.15
   vertex -0.0116179 0.00257563 -0.15
  endloop
 endfacet
 facet normal 0.980782 -0.195108 0
  outer loop
   vertex -0.0116179 0.00257563 0.15
   vertex -0.0117192 0.00206641 0.15
   vertex -0.0116179 0.00257563 -0.15
  endloop
 endfacet
 facet normal 0.980782 -0.195108 0
  outer loop
   vertex -0.0116179 0.00257563 -0.15
   vertex -0.0117192 0.00206641 0.15
   vertex -0.0117192 0.00206641 -0.15
  endloop
 endfacet
 facet normal 0.988356 -0.152159 0
  outer loop
   vertex -0.0117192 0.00206641 0.15
   vertex -0.0117982 0.00155326 0.15
   vertex -0.0117192 0.00206641 -0.15
  endloop
 endfacet
 facet normal 0.988356 -0.152159 0
  outer loop
   vertex -0.0117192 0.00206641 -0.15
   vertex -0.0117982 0.00155326 0.15
   vertex -0.0117982 0.00155326 -0.15
  endloop
 endfacet
 facet normal 0.994061 -0.108822 0
  outer loop
   vertex -0.0117982 0.00155326 0.15
   vertex -0.0118547 0.00103715 0.15
   vertex -0.0117982 0.00155326 -0.15
  endloop
 endfacet
 facet normal 0.994061 -0.108822 0
  outer loop
   vertex -0.0117982 0.00155326 -0.15
   vertex -0.0118547 0.00103715 0.15
   vertex -0.0118547 0.00103715 -0.15
  endloop
 endfacet
 facet normal 0.997854 -0.0654858 0
  outer loop
   vertex -0.0118547 0.00103715 0.15
   vertex -0.0118887 0.000519071 0.15
   vertex -0.0118547 0.00103715 -0.15
  endloop
 endfacet
 facet normal 0.997854 -0.0654858 0
  outer loop
   vertex -0.0118547 0.00103715 -0.15
   vertex -0.0118887 0.000519071 0.15
   vertex -0.0118887 0.000519071 -0.15
  endloop
 endfacet
 facet normal 0.999763 -0.0217658 0
  outer loop
   vertex -0.0118887 0.000519071 0.15
   vertex -0.0119 -1.45733e-18 0.15
   vertex -0.0118887 0.000519071 -0.15
  endloop
 endfacet
 facet normal 0.999763 -0.0217658 0
  outer loop
   vertex -0.0118887 0.000519071 -0.15
   vertex -0.0119 -1.45733e-18 0.15
   vertex -0.0119 -1.45733e-18 -0.15
  endloop
 endfacet
 facet normal 0.999763 0.0217658 0
  outer loop
   vertex -0.0119 -1.45733e-18 0.15
   vertex -0.0118887 -0.000519071 0.15
   vertex -0.0119 -1.45733e-18 -0.15
  endloop
 endfacet
 facet normal 0.999763 0.0217658 0
  outer loop
   vertex -0.0119 -1.45733e-18 -0.15
   vertex -0.0118887 -0.000519071 0.15
   vertex -0.0118887 -0.000519071 -0.15
  endloop
 endfacet
 facet normal 0.997854 0.0654858 0
  outer loop
   vertex -0.0118887 -0.000519071 0.15
   vertex -0.0118547 -0.00103715 0.15
   vertex -0.0118887 -0.000519071 -0.15
  endloop
 endfacet
 facet normal 0.997854 0.0654858 0
  outer loop
   vertex -0.0118887 -0.000519071 -0.15
   vertex -0.0118547 -0.00103715 0.15
   vertex -0.0118547 -0.00103715 -0.15
  endloop
 endfacet
 facet normal 0.994061 0.108822 0
  outer loop
   vertex -0.0118547 -0.00103715 0.15
   vertex -0.0117982 -0.00155326 0.15
   vertex -0.0118547 -0.00103715 -0.15
  endloop
 endfacet
 facet normal 0.994061 0.108822 0
  outer loop
   vertex -0.0118547 -0.00103715 -0.15
   vertex -0.0117982 -0.00155326 0.15
   vertex -0.0117982 -0.00155326 -0.15
  endloop
 endfacet
 facet normal 0.988356 0.152159 0
  outer loop
   vertex -0.0117982 -0.00155326 0.15
   vertex -0.0117192 -0.00206641 0.15
   vertex -0.0117982 -0.00155326 -0.15
  endloop
 endfacet
 facet normal 0.988356 0.152159 0
  outer loop
   vertex -0.0117982 -0.00155326 -0.15
   vertex -0.0117192 -0.00206641 0.15
   vertex -0.0117192 -0.00206641 -0.15
  endloop
 endfacet
 facet normal 0.980782 0.195108 0
  outer loop
   vertex -0.0117192 -0.00206641 0.15
   vertex -0.0116179 -0.00257563 0.15
   vertex -0.0117192 -0.00206641 -0.15
  endloop
 endfacet
 facet normal 0.980782 0.195108 0
  outer loop
   vertex -0.0117192 -0.00206641 -0.15
   vertex -0.0116179 -0.00257563 0.15
   vertex -0.0116179 -0.00257563 -0.15
  endloop
 endfacet
 facet normal 0.971345 0.237675 0
  outer loop
   vertex -0.0116179 -0.00257563 0.15
   vertex -0.0114945 -0.00307995 0.15
   vertex -0.0116179 -0.00257563 -0.15
  endloop
 endfacet
 facet normal 0.971345 0.237675 0
  outer loop
   vertex -0.0116179 -0.00257563 -0.15
   vertex -0.0114945 -0.00307995 0.15
   vertex -0.0114945 -0.00307995 -0.15
  endloop
 endfacet
 facet normal 0.960042 0.279855 0
  outer loop
   vertex -0.0114945 -0.00307995 0.15
   vertex -0.0113492 -0.0035784 0.15
   vertex -0.0114945 -0.00307995 -0.15
  endloop
 endfacet
 facet normal 0.960042 0.279855 0
  outer loop
   vertex -0.0114945 -0.00307995 -0.15
   vertex -0.0113492 -0.0035784 0.15
   vertex -0.0113492 -0.0035784 -0.15
  endloop
 endfacet
 facet normal 0.946924 0.321459 0
  outer loop
   vertex -0.0113492 -0.0035784 0.15
   vertex -0.0111823 -0.00407004 0.15
   vertex -0.0113492 -0.0035784 -0.15
  endloop
 endfacet
 facet normal 0.946924 0.321459 0
  outer loop
   vertex -0.0113492 -0.0035784 -0.15
   vertex -0.0111823 -0.00407004 0.15
   vertex -0.0111823 -0.00407004 -0.15
  endloop
 endfacet
 facet normal 0.932056 0.362314 0
  outer loop
   vertex -0.0111823 -0.00407004 0.15
   vertex -0.0109942 -0.00455393 0.15
   vertex -0.0111823 -0.00407004 -0.15
  endloop
 endfacet
 facet normal 0.932056 0.362314 0
  outer loop
   vertex -0.0111823 -0.00407004 -0.15
   vertex -0.0109942 -0.00455393 0.15
   vertex -0.0109942 -0.00455393 -0.15
  endloop
 endfacet
 facet normal 0.915316 0.402736 0
  outer loop
   vertex -0.0109942 -0.00455393 0.15
   vertex -0.0107851 -0.00502916 0.15
   vertex -0.0109942 -0.00455393 -0.15
  endloop
 endfacet
 facet normal 0.915316 0.402736 0
  outer loop
   vertex -0.0109942 -0.00455393 -0.15
   vertex -0.0107851 -0.00502916 0.15
   vertex -0.0107851 -0.00502916 -0.15
  endloop
 endfacet
 facet normal 0.896821 0.442393 0
  outer loop
   vertex -0.0107851 -0.00502916 0.15
   vertex -0.0105554 -0.00549481 0.15
   vertex -0.0107851 -0.00502916 -0.15
  endloop
 endfacet
 facet normal 0.896821 0.442393 0
  outer loop
   vertex -0.0107851 -0.00502916 -0.15
   vertex -0.0105554 -0.00549481 0.15
   vertex -0.0105554 -0.00549481 -0.15
  endloop
 endfacet
 facet normal 0.876748 0.48095 0
  outer loop
   vertex -0.0105554 -0.00549481 0.15
   vertex -0.0103057 -0.00595 0.15
   vertex -0.0105554 -0.00549481 -0.15
  endloop
 endfacet
 facet normal 0.876748 0.48095 0
  outer loop
   vertex -0.0105554 -0.00549481 -0.15
   vertex -0.0103057 -0.00595 0.15
   vertex -0.0103057 -0.00595 -0.15
  endloop
 endfacet
 facet normal 0.854952 0.518708 0
  outer loop
   vertex -0.0103057 -0.00595 0.15
   vertex -0.0100364 -0.00639387 0.15
   vertex -0.0103057 -0.00595 -0.15
  endloop
 endfacet
 facet normal 0.854952 0.518708 0
  outer loop
   vertex -0.0103057 -0.00595 -0.15
   vertex -0.0100364 -0.00639387 0.15
   vertex -0.0100364 -0.00639387 -0.15
  endloop
 endfacet
 facet normal 0.831431 0.555628 0
  outer loop
   vertex -0.0100364 -0.00639387 0.15
   vertex -0.00974791 -0.00682556 0.15
   vertex -0.0100364 -0.00639387 -0.15
  endloop
 endfacet
 facet normal 0.831431 0.555628 0
  outer loop
   vertex -0.0100364 -0.00639387 -0.15
   vertex -0.00974791 -0.00682556 0.15
   vertex -0.00974791 -0.00682556 -0.15
  endloop
 endfacet
 facet normal 0.806438 0.591318 0
  outer loop
   vertex -0.00974791 -0.00682556 0.15
   vertex -0.0094409 -0.00724426 0.15
   vertex -0.00974791 -0.00682556 -0.15
  endloop
 endfacet
 facet normal 0.806438 0.591318 0
  outer loop
   vertex -0.00974791 -0.00682556 -0.15
   vertex -0.0094409 -0.00724426 0.15
   vertex -0.0094409 -0.00724426 -0.15
  endloop
 endfacet
 facet normal 0.779889 0.625918 0
  outer loop
   vertex -0.0094409 -0.00724426 0.15
   vertex -0.00911593 -0.00764917 0.15
   vertex -0.0094409 -0.00724426 -0.15
  endloop
 endfacet
 facet normal 0.779889 0.625918 0
  outer loop
   vertex -0.0094409 -0.00724426 -0.15
   vertex -0.00911593 -0.00764917 0.15
   vertex -0.00911593 -0.00764917 -0.15
  endloop
 endfacet
 facet normal 0.751838 0.659348 0
  outer loop
   vertex -0.00911593 -0.00764917 0.15
   vertex -0.0087736 -0.00803952 0.15
   vertex -0.00911593 -0.00764917 -0.15
  endloop
 endfacet
 facet normal 0.751838 0.659348 0
  outer loop
   vertex -0.00911593 -0.00764917 -0.15
   vertex -0.0087736 -0.00803952 0.15
   vertex -0.0087736 -0.00803952 -0.15
  endloop
 endfacet
 facet normal 0.722367 0.69151 0
  outer loop
   vertex -0.0087736 -0.00803952 0.15
   vertex -0.00841457 -0.00841457 0.15
   vertex -0.0087736 -0.00803952 -0.15
  endloop
 endfacet
 facet normal 0.722367 0.69151 0
  outer loop
   vertex -0.0087736 -0.00803952 -0.15
   vertex -0.00841457 -0.00841457 0.15
   vertex -0.00841457 -0.00841457 -0.15
  endloop
 endfacet
 facet normal 0.69151 0.722367 0
  outer loop
   vertex -0.00841457 -0.00841457 0.15
   vertex -0.00803952 -0.0087736 0.15
   vertex -0.00841457 -0.00841457 -0.15
  endloop
 endfacet
 facet normal 0.69151 0.722367 0
  outer loop
   vertex -0.00841457 -0.00841457 -0.15
   vertex -0.00803952 -0.0087736 0.15
   vertex -0.00803952 -0.0087736 -0.15
  endloop
 endfacet
 facet normal 0.659348 0.751838 0
  outer loop
   vertex -0.00803952 -0.0087736 0.15
   vertex -0.00764917 -0.00911593 0.15
   vertex -0.00803952 -0.0087736 -0.15
  endloop
 endfacet
 facet normal 0.659348 0.751838 0
  outer loop
   vertex -0.00803952 -0.0087736 -0.15
   vertex -0.00764917 -0.00911593 0.15
   vertex -0.00764917 -0.00911593 -0.15
  endloop
 endfacet
 facet normal 0.625918 0.779889 0
  outer loop
   vertex -0.00764917 -0.00911593 0.15
   vertex -0.00724426 -0.0094409 0.15
   vertex -0.00764917 -0.00911593 -0.15
  endloop
 endfacet
 facet normal 0.625918 0.779889 0
  outer loop
   vertex -0.00764917 -0.00911593 -0.15
   vertex -0.00724426 -0.0094409 0.15
   vertex -0.00724426 -0.0094409 -0.15
  endloop
 endfacet
 facet normal 0.591318 0.806438 0
  outer loop
   vertex -0.00724426 -0.0094409 0.15
   vertex -0.00682556 -0.00974791 0.15
   vertex -0.00724426 -0.0094409 -0.15
  endloop
 endfacet
 facet normal 0.591318 0.806438 0
  outer loop
   vertex -0.00724426 -0.0094409 -0.15
   vertex -0.00682556 -0.00974791 0.15
   vertex -0.00682556 -0.00974791 -0.15
  endloop
 endfacet
 facet normal 0.555628 0.831431 0
  outer loop
   vertex -0.00682556 -0.00974791 0.15
   vertex -0.00639387 -0.0100364 0.15
   vertex -0.00682556 -0.00974791 -0.15
  endloop
 endfacet
 facet normal 0.555628 0.831431 0
  outer loop
   vertex -0.00682556 -0.00974791 -0.15
   vertex -0.00639387 -0.0100364 0.15
   vertex -0.00639387 -0.0100364 -0.15
  endloop
 endfacet
 facet normal 0.518708 0.854952 0
  outer loop
   vertex -0.00639387 -0.0100364 0.15
   vertex -0.00595 -0.0103057 0.15
   vertex -0.00639387 -0.0100364 -0.15
  endloop
 endfacet
 facet normal 0.518708 0.854952 0
  outer loop
   vertex -0.00639387 -0.0100364 -0.15
   vertex -0.00595 -0.0103057 0.15
   vertex -0.00595 -0.0103057 -0.15
  endloop
 endfacet
 facet normal 0.48095 0.876748 0
  outer loop
   vertex -0.00595 -0.0103057 0.15
   vertex -0.00549481 -0.0105554 0.15
   vertex -0.00595 -0.0103057 -0.15
  endloop
 endfacet
 facet normal 0.48095 0.876748 0
  outer loop
   vertex -0.00595 -0.0103057 -0.15
   vertex -0.00549481 -0.0105554 0.15
   vertex -0.00549481 -0.0105554 -0.15
  endloop
 endfacet
 facet normal 0.442393 0.896821 0
  outer loop
   vertex -0.00549481 -0.0105554 0.15
   vertex -0.00502916 -0.0107851 0.15
   vertex -0.00549481 -0.0105554 -0.15
  endloop
 endfacet
 facet normal 0.442393 0.896821 0
  outer loop
   vertex -0.00549481 -0.0105554 -0.15
   vertex -0.00502916 -0.0107851 0.15
   vertex -0.00502916 -0.0107851 -0.15
  endloop
 endfacet
 facet normal 0.402736 0.915316 0
  outer loop
   vertex -0.00502916 -0.0107851 0.15
   vertex -0.00455393 -0.0109942 0.15
   vertex -0.00502916 -0.0107851 -0.15
  endloop
 endfacet
 facet normal 0.402736 0.915316 0
  outer loop
   vertex -0.00502916 -0.0107851 -0.15
   vertex -0.00455393 -0.0109942 0.15
   vertex -0.00455393 -0.0109942 -0.15
  endloop
 endfacet
 facet normal 0.362314 0.932056 0
  outer loop
   vertex -0.00455393 -0.0109942 0.15
   vertex -0.00407004 -0.0111823 0.15
   vertex -0.00455393 -0.0109942 -0.15
  endloop
 endfacet
 facet normal 0.362314 0.932056 0
  outer loop
   vertex -0.00455393 -0.0109942 -0.15
   vertex -0.00407004 -0.0111823 0.15
   vertex -0.00407004 -0.0111823 -0.15
  endloop
 endfacet
 facet normal 0.321459 0.946924 0
  outer loop
   vertex -0.00407004 -0.0111823 0.15
   vertex -0.0035784 -0.0113492 0.15
   vertex -0.00407004 -0.0111823 -0.15
  endloop
 endfacet
 facet normal 0.321459 0.946924 0
  outer loop
   vertex -0.00407004 -0.0111823 -0.15
   vertex -0.0035784 -0.0113492 0.15
   vertex -0.0035784 -0.0113492 -0.15
  endloop
 endfacet
 facet normal 0.279855 0.960042 0
  outer loop
   vertex -0.0035784 -0.0113492 0.15
   vertex -0.00307995 -0.0114945 0.15
   vertex -0.0035784 -0.0113492 -0.15
  endloop
 endfacet
 facet normal 0.279855 0.960042 0
  outer loop
   vertex -0.0035784 -0.0113492 -0.15
   vertex -0.00307995 -0.0114945 0.15
   vertex -0.00307995 -0.0114945 -0.15
  endloop
 endfacet
 facet normal 0.237675 0.971345 0
  outer loop
   vertex -0.00307995 -0.0114945 0.15
   vertex -0.00257563 -0.0116179 0.15
   vertex -0.00307995 -0.0114945 -0.15
  endloop
 endfacet
 facet normal 0.237675 0.971345 0
  outer loop
   vertex -0.00307995 -0.0114945 -0.15
   vertex -0.00257563 -0.0116179 0.15
   vertex -0.00257563 -0.0116179 -0.15
  endloop
 endfacet
 facet normal 0.195108 0.980782 0
  outer loop
   vertex -0.00257563 -0.0116179 0.15
   vertex -0.00206641 -0.0117192 0.15
   vertex -0.00257563 -0.0116179 -0.15
  endloop
 endfacet
 facet normal 0.195108 0.980782 0
  outer loop
   vertex -0.00257563 -0.0116179 -0.15
   vertex -0.00206641 -0.0117192 0.15
   vertex -0.00206641 -0.0117192 -0.15
  endloop
 endfacet
 facet normal 0.152159 0.988356 0
  outer loop
   vertex -0.00206641 -0.0117192 0.15
   vertex -0.00155326 -0.0117982 0.15
   vertex -0.00206641 -0.0117192 -0.15
  endloop
 endfacet
 facet normal 0.152159 0.988356 0
  outer loop
   vertex -0.00206641 -0.0117192 -0.15
   vertex -0.00155326 -0.0117982 0.15
   vertex -0.00155326 -0.0117982 -0.15
  endloop
 endfacet
 facet normal 0.108822 0.994061 0
  outer loop
   vertex -0.00155326 -0.0117982 0.15
   vertex -0.00103715 -0.0118547 0.15
   vertex -0.00155326 -0.0117982 -0.15
  endloop
 endfacet
 facet normal 0.108822 0.994061 0
  outer loop
   vertex -0.00155326 -0.0117982 -0.15
   vertex -0.00103715 -0.0118547 0.15
   vertex -0.00103715 -0.0118547 -0.15
  endloop
 endfacet
 facet normal 0.0654858 0.997854 0
  outer loop
   vertex -0.00103715 -0.0118547 0.15
   vertex -0.000519071 -0.0118887 0.15
   vertex -0.00103715 -0.0118547 -0.15
  endloop
 endfacet
 facet normal 0.0654858 0.997854 0
  outer loop
   vertex -0.00103715 -0.0118547 -0.15
   vertex -0.000519071 -0.0118887 0.15
   vertex -0.000519071 -0.0118887 -0.15
  endloop
 endfacet
 facet normal 0.0217658 0.999763 0
  outer loop
   vertex -0.000519071 -0.0118887 0.15
   vertex -7.28665e-19 -0.0119 0.15
   vertex -0.000519071 -0.0118887 -0.15
  endloop
 endfacet
 facet normal 0.0217658 0.999763 0
  outer loop
   vertex -0.000519071 -0.0118887 -0.15
   vertex -7.28665e-19 -0.0119 0.15
   vertex -7.28665e-19 -0.0119 -0.15
  endloop
 endfacet
endsolid zone0
